<?xml version="1.0" standalone="no"?>
<!DOCTYPE svg PUBLIC "-//W3C//DTD SVG 1.1//EN" "http://www.w3.org/Graphics/SVG/1.1/DTD/svg11.dtd" >
<svg>
<metadata>
Created by FontForge 20090914 at Sat May 16 09:35:11 2020
 By www-data
Copyright 2019 The Space Grotesk Project Authors (https://github.com/floriankarsten/space-grotesk)
</metadata>
<defs>
<font id="SpaceGrotesk-Bold" horiz-adv-x="620" >
  <font-face 
    font-family="Space Grotesk"
    font-weight="700"
    font-stretch="normal"
    units-per-em="1000"
    panose-1="0 0 8 0 0 0 0 0 0 0"
    ascent="800"
    descent="-200"
    x-height="496"
    cap-height="700"
    bbox="-680 -350.002 958.001 1000"
    underline-thickness="50"
    underline-position="-50"
    unicode-range="U+000D-U+E133"
  />
<missing-glyph horiz-adv-x="910" 
d="M146.5 768.5c34.333 34.333 81.833 51.5 142.5 51.5h332c60.667 0 108.167 -17.167 142.5 -51.5s51.5 -83.833 51.5 -148.5v-550c0 -64.667 -17.167 -114.167 -51.5 -148.5s-81.833 -51.5 -142.5 -51.5h-332c-60.667 0 -108.167 17.167 -142.5 51.5
s-51.5 83.833 -51.5 148.5v550c0 64.667 17.167 114.167 51.5 148.5zM311 -34h288c76 0 114 41.333 114 124v510c0 82.667 -38 124 -114 124h-288c-76 0 -114 -41.333 -114 -124v-510c0 -82.667 38 -124 114 -124zM335.5 552.5c33 27 74.5 40.502 124.5 40.502
c48.667 0 88.834 -12.833 120.501 -38.5s47.5 -59.167 47.5 -100.5v-3c0 -35.333 -9.16699 -62.833 -27.5 -82.5s-42.5 -35.834 -72.5 -48.501l-12 -5c-7.33301 -2.66699 -12.5 -6.83398 -15.5 -12.501s-4.5 -13.5 -4.5 -23.5v-15h-92v22c0 22.667 4.66699 41.667 14 57
s24.666 27.333 45.999 36l12 5c21.333 9.33301 37 18.833 47 28.5s15 22.167 15 37.5c0 18 -7.16699 32.5 -21.5 43.5s-33.166 16.5 -56.499 16.5c-24.667 0 -44.834 -6 -60.501 -18s-23.5 -29 -23.5 -51v-16h-90v20c0 44.667 16.5 80.5 49.5 107.5zM405.5 216.502
c12.333 11.667 27.833 17.5 46.5 17.5s34.167 -5.83301 46.5 -17.5s18.5 -26.834 18.5 -45.501s-6.16699 -33.834 -18.5 -45.501s-27.833 -17.5 -46.5 -17.5s-34.167 5.83301 -46.5 17.5s-18.5 26.834 -18.5 45.501s6.16699 33.834 18.5 45.501z" />
    <glyph glyph-name="f_f.liga" unicode="ff" horiz-adv-x="722" 
d="M704 496v-105.998h-130v-390h-126v390h-180v-390h-126v390h-126v106h126v102c0 29.333 9.5 53.666 28.5 72.999s42.833 29 71.5 29h130v-104h-76c-18.667 0 -28 -10 -28 -30v-70h180v102c0 29.333 9.5 53.666 28.5 72.999s42.833 29 71.5 29h130v-104h-76
c-18.667 0 -28 -10 -28 -30v-70h130z" />
    <glyph glyph-name="f_f_i.liga" unicode="ffi" horiz-adv-x="936" 
d="M880.5 702c17 -16 25.5 -36.667 25.5 -62s-8.5 -46 -25.5 -62s-38.167 -24 -63.5 -24s-46.5 8 -63.5 24s-25.5 36.667 -25.5 62s8.5 46 25.5 62s38.167 24 63.5 24s46.5 -8 63.5 -24zM880 496v-495.998h-126v390h-180v-390h-126v390h-180v-390h-126v390h-126v106h126v102
c0 29.333 9.5 53.666 28.5 72.999s42.833 29 71.5 29h130v-104h-76c-18.667 0 -28 -10 -28 -30v-70h180v102c0 29.333 9.5 53.666 28.5 72.999s42.833 29 71.5 29h116v-104h-62c-18.667 0 -28 -10 -28 -30v-70h306z" />
    <glyph glyph-name="f_f_j.liga" unicode="ffj" horiz-adv-x="936" 
d="M880.5 702c17 -16 25.5 -36.667 25.5 -62s-8.5 -46 -25.5 -62s-38.167 -24 -63.5 -24s-46.5 8 -63.5 24s-25.5 36.667 -25.5 62s8.5 46 25.5 62s38.167 24 63.5 24s46.5 -8 63.5 -24zM880 496v-583.998c0 -34 -10 -61.167 -30 -81.5s-46.667 -30.5 -80 -30.5h-130v102h86
c18.667 0 28 10 28 30v458h-180v-390h-126v390h-180v-390h-126v390h-126v106h126v102c0 29.333 9.5 53.666 28.5 72.999s42.833 29 71.5 29h130v-104h-76c-18.667 0 -28 -10 -28 -30v-70h180v102c0 29.333 9.5 53.666 28.5 72.999s42.833 29 71.5 29h116v-104h-62
c-18.667 0 -28 -10 -28 -30v-70h306z" />
    <glyph glyph-name="f_i.liga" unicode="fi" horiz-adv-x="630" 
d="M574.5 702c17 -16 25.5 -36.667 25.5 -62s-8.5 -46 -25.5 -62s-38.167 -24 -63.5 -24s-46.5 8 -63.5 24s-25.5 36.667 -25.5 62s8.5 46 25.5 62s38.167 24 63.5 24s46.5 -8 63.5 -24zM574 496v-495.999h-126v390h-180v-390h-126v390h-126v106h126v102
c0 29.333 9.5 53.666 28.5 72.999s42.833 29 71.5 29h116v-104h-62c-18.667 0 -28 -10 -28 -30v-70h306z" />
    <glyph glyph-name="f_j.liga" unicode="fj" horiz-adv-x="630" 
d="M574.5 702c17 -16 25.5 -36.667 25.5 -62s-8.5 -46 -25.5 -62s-38.167 -24 -63.5 -24s-46.5 8 -63.5 24s-25.5 36.667 -25.5 62s8.5 46 25.5 62s38.167 24 63.5 24s46.5 -8 63.5 -24zM574 496v-583.999c0 -34 -10 -61.167 -30 -81.5s-46.667 -30.5 -80 -30.5h-130v102h86
c18.667 0 28 10 28 30v458h-180v-390h-126v390h-126v106h126v102c0 29.333 9.5 53.666 28.5 72.999s42.833 29 71.5 29h116v-104h-62c-18.667 0 -28 -10 -28 -30v-70h306z" />
    <glyph glyph-name="f_l.liga" unicode="fl" horiz-adv-x="630" 
d="M142 598c0 29.333 9.5 53.667 28.5 73s42.833 29 71.5 29h120v-108h-66c-18.667 0 -28 -10 -28 -30v-66h116v-108h-116v-388h-126v388h-126v108h126v102zM574 700.001v-700h-126v700h126z" />
    <glyph glyph-name="f_lcaron.liga" unicode="f&#x13e;" horiz-adv-x="732" 
d="M142 598c0 29.333 9.5 53.667 28.5 73s42.833 29 71.5 29h120v-108h-66c-18.667 0 -28 -10 -28 -30v-66h116v-108h-116v-388h-126v388h-126v108h126v102zM448 0.000976562v700h126v-700h-126zM757 700.001l-58 -182h-80l10 182h128z" />
    <glyph glyph-name="t_t.liga" unicode="tt" horiz-adv-x="724" 
d="M560 394v-262c0 -20 9.33301 -30 28 -30h96v-102h-140c-33.333 0 -60 10.167 -80 30.5s-30 47.5 -30 81.5v282h-180v-262c0 -20 9.33301 -30 28 -30h86v-102h-130c-33.333 0 -60 10.167 -80 30.5s-30 47.5 -30 81.5v282h-124v102h124v154h126v-154h180v154h126v-154h136
v-102h-136z" />
    <glyph glyph-name=".notdef" horiz-adv-x="910" 
d="M146.5 768.5c34.333 34.333 81.833 51.5 142.5 51.5h332c60.667 0 108.167 -17.167 142.5 -51.5s51.5 -83.833 51.5 -148.5v-550c0 -64.667 -17.167 -114.167 -51.5 -148.5s-81.833 -51.5 -142.5 -51.5h-332c-60.667 0 -108.167 17.167 -142.5 51.5
s-51.5 83.833 -51.5 148.5v550c0 64.667 17.167 114.167 51.5 148.5zM311 -34h288c76 0 114 41.333 114 124v510c0 82.667 -38 124 -114 124h-288c-76 0 -114 -41.333 -114 -124v-510c0 -82.667 38 -124 114 -124zM335.5 552.5c33 27 74.5 40.502 124.5 40.502
c48.667 0 88.834 -12.833 120.501 -38.5s47.5 -59.167 47.5 -100.5v-3c0 -35.333 -9.16699 -62.833 -27.5 -82.5s-42.5 -35.834 -72.5 -48.501l-12 -5c-7.33301 -2.66699 -12.5 -6.83398 -15.5 -12.501s-4.5 -13.5 -4.5 -23.5v-15h-92v22c0 22.667 4.66699 41.667 14 57
s24.666 27.333 45.999 36l12 5c21.333 9.33301 37 18.833 47 28.5s15 22.167 15 37.5c0 18 -7.16699 32.5 -21.5 43.5s-33.166 16.5 -56.499 16.5c-24.667 0 -44.834 -6 -60.501 -18s-23.5 -29 -23.5 -51v-16h-90v20c0 44.667 16.5 80.5 49.5 107.5zM405.5 216.502
c12.333 11.667 27.833 17.5 46.5 17.5s34.167 -5.83301 46.5 -17.5s18.5 -26.834 18.5 -45.501s-6.16699 -33.834 -18.5 -45.501s-27.833 -17.5 -46.5 -17.5s-34.167 5.83301 -46.5 17.5s-18.5 26.834 -18.5 45.501s6.16699 33.834 18.5 45.501z" />
    <glyph glyph-name="nonmarkingreturn" unicode="&#xd;" horiz-adv-x="600" 
 />
    <glyph glyph-name="space" unicode=" " horiz-adv-x="270" 
 />
    <glyph glyph-name="exclam" unicode="!" horiz-adv-x="282" 
d="M209 700l-14 -482h-108l-14 482h136zM73 149.5c18 17.667 40.667 26.5 68 26.5s50 -8.83301 68 -26.5s27 -40.5 27 -68.5s-9 -50.833 -27 -68.5s-40.667 -26.5 -68 -26.5s-50 8.83301 -68 26.5s-27 40.5 -27 68.5s9 50.833 27 68.5z" />
    <glyph glyph-name="quotedbl" unicode="&#x22;" horiz-adv-x="488" 
d="M72 689.5c17.333 17 39.667 25.5 67 25.5s49.666 -8.66699 66.999 -26s26 -40.666 26 -69.999v-81c0 -40.667 -11.167 -73.167 -33.5 -97.5s-55.833 -36.5 -100.5 -36.5h-37v68h42c16 0 28.5 4.66699 37.5 14s13.5 22 13.5 38v12h-15
c-27.333 0 -49.666 8.16699 -66.999 24.5s-26 37.166 -26 62.499c0 27.333 8.66699 49.5 26 66.5zM282.001 689.5c17.333 17 39.667 25.5 67 25.5s49.666 -8.66699 66.999 -26s26 -40.666 26 -69.999v-81c0 -40.667 -11.167 -73.167 -33.5 -97.5s-55.833 -36.5 -100.5 -36.5
h-37v68h42c16 0 28.5 4.66699 37.5 14s13.5 22 13.5 38v12h-15c-27.333 0 -49.666 8.16699 -66.999 24.5s-26 37.166 -26 62.499c0 27.333 8.66699 49.5 26 66.5z" />
    <glyph glyph-name="numbersign" unicode="#" 
d="M140 516v184h116v-184h108v184h116v-184h108v-112h-108v-108h108v-112h-108v-184h-116v184h-108v-184h-116v184h-108v112h108v108h-108v112h108zM256 296h108v108h-108v-108z" />
    <glyph glyph-name="dollar" unicode="$" horiz-adv-x="590" 
d="M516.5 340.5c33 -31 49.5 -73.833 49.5 -128.5v-10c0 -58 -18.167 -105.333 -54.5 -142s-84.833 -59.667 -145.5 -69v-107h-120v106c-70 9.33301 -124.833 35.833 -164.5 79.5s-59.5 101.167 -59.5 172.5v22h132v-16c0 -33.333 7.66699 -61.166 23 -83.499
s38.333 -37.833 69 -46.5v190c-66.667 16 -116.334 39.5 -149.001 70.5s-49 74.167 -49 129.5v6c0 53.333 18.333 97.5 55 132.5s84.334 56.5 143.001 64.5v105h120v-109c58 -11.333 104.167 -35.833 138.5 -73.5s51.5 -84.834 51.5 -141.501v-30h-132v20
c0 47.333 -19.333 79.333 -58 96v-167c67.333 -16 117.5 -39.5 150.5 -70.5zM198 466c10.667 -11.333 26.667 -20.667 48 -28v146c-20 -6 -35.667 -15.333 -47 -28s-17 -27.334 -17 -44.001c0 -19.333 5.33301 -34.666 16 -45.999zM415 151.499
c11.333 15 17.001 31.833 17.001 50.5c0 19.333 -5.5 35 -16.5 47s-27.5 22 -49.5 30v-161c21.333 7.33301 37.666 18.5 48.999 33.5z" />
    <glyph glyph-name="percent" unicode="%" horiz-adv-x="757" 
d="M574 717l103 -77l-203 -226l-64 48zM79.5 670c29 28 69.167 42 120.5 42c50 0 89.833 -14.167 119.5 -42.5s44.5 -66.833 44.5 -115.5v-19c0 -49.333 -14.5 -87.833 -43.5 -115.5s-69.167 -41.5 -120.5 -41.5s-91.5 13.833 -120.5 41.5s-43.5 66.167 -43.5 115.5v19
c0 49.333 14.5 88 43.5 116zM155.5 482c10.333 -12 25.166 -18 44.499 -18s34.166 6 44.499 18s15.5 28.333 15.5 49v28c0 20.667 -5.16699 37 -15.5 49s-25.166 18 -44.499 18s-34.166 -6 -44.499 -18s-15.5 -28.333 -15.5 -49v-28c0 -20.667 5.16699 -37 15.5 -49z
M436.5 280c29 28 69.167 42 120.5 42c50 0 89.833 -14.167 119.5 -42.5s44.5 -66.833 44.5 -115.5v-19c0 -49.333 -14.5 -87.833 -43.5 -115.5s-69.167 -41.5 -120.5 -41.5s-91.5 13.833 -120.5 41.5s-43.5 66.167 -43.5 115.5v19c0 49.333 14.5 88 43.5 116zM178 -15
l-103 77l203 226l64 -48zM512.5 92c10.333 -12 25.166 -18 44.499 -18s34.166 6 44.499 18s15.5 28.333 15.5 49v28c0 20.667 -5.16699 37 -15.5 49s-25.166 18 -44.499 18s-34.166 -6 -44.499 -18s-15.5 -28.333 -15.5 -49v-28c0 -20.667 5.16699 -37 15.5 -49z" />
    <glyph glyph-name="ampersand" unicode="&#x26;" horiz-adv-x="591" 
d="M262 596c-31.333 0 -56.5 -8.16797 -75.5 -24.501s-28.5 -39.833 -28.5 -70.5c0 -32 9.83301 -55.833 29.5 -71.5s44.5 -23.5 74.5 -23.5h97v90h126v-90h92v-104h-92v-302h-250c-62.667 0 -112.834 16.833 -150.501 50.5s-56.5 79.834 -56.5 138.501
c0 40.667 10.833 74.667 32.5 102s50.167 46.333 85.5 57v14c-35.333 10.667 -63.166 28.5 -83.499 53.5s-30.5 57.167 -30.5 96.5c0 59.333 19 105.5 57 138.5s88 49.5 150 49.5h109v-104h-86zM183 275.999c-19.333 -17.333 -29 -41.667 -29 -73c0 -32 10 -56.5 30 -73.5
s44.667 -25.5 74 -25.5h101v198h-101c-30.667 0 -55.667 -8.66699 -75 -26z" />
    <glyph glyph-name="quotesingle" unicode="'" horiz-adv-x="278" 
d="M72 689.5c17.333 17 39.667 25.5 67 25.5s49.666 -8.66699 66.999 -26s26 -40.666 26 -69.999v-81c0 -40.667 -11.167 -73.167 -33.5 -97.5s-55.833 -36.5 -100.5 -36.5h-37v68h42c16 0 28.5 4.66699 37.5 14s13.5 22 13.5 38v12h-15
c-27.333 0 -49.666 8.16699 -66.999 24.5s-26 37.166 -26 62.499c0 27.333 8.66699 49.5 26 66.5z" />
    <glyph glyph-name="parenleft" unicode="(" horiz-adv-x="422" 
d="M187.5 735c51.667 48.667 123.167 73.002 214.5 73.002v-116c-56 -1.33301 -97.667 -17.833 -125 -49.5s-41 -79.834 -41 -144.501v-436c0 -64.667 13.667 -112.834 41 -144.501s69 -48.167 125 -49.5v-116c-91.333 0 -162.833 24.333 -214.5 73s-77.5 123.667 -77.5 225
v460c0 101.333 25.833 176.333 77.5 225z" />
    <glyph glyph-name="parenright" unicode=")" horiz-adv-x="422" 
d="M234.5 -175c-51.667 -48.667 -123.167 -73.002 -214.5 -73.002v116c56 1.33301 97.667 17.833 125 49.5s41 79.834 41 144.501v436c0 64.667 -13.667 112.834 -41 144.501s-69 48.167 -125 49.5v116c91.333 0 162.833 -24.333 214.5 -73s77.5 -123.667 77.5 -225v-460
c0 -101.333 -25.833 -176.333 -77.5 -225z" />
    <glyph glyph-name="asterisk" unicode="*" horiz-adv-x="516" 
d="M334 450c-0.666992 -4 -2.33398 -8.33301 -5.00098 -13l60 -41l55 -56l-52 -52l-56 55l-41 60c-4.66699 -2 -9 -3.66699 -13 -5l13 -72v-78h-74v78l13 72c-4 1.33301 -8.33301 3 -13 5l-41 -60l-56 -55l-52 52l55 56l60 41c-2 4.66699 -3.66699 9 -5 13l-72 -13h-78v74
h78l72 -13c1.33301 4 3 8.33301 5 13l-60 41l-55 56l52 52l56 -55l41 -60c4.66699 2.66699 9 4.33398 13 5.00098l-13 72v78h74v-78l-13 -72c4 -0.666992 8.33301 -2.33398 13 -5.00098l41 60l56 55l52 -52l-55 -56l-60 -41c2.66699 -4.66699 4.33398 -9 5.00098 -13l72 13
h78v-74h-78z" />
    <glyph glyph-name="plus" unicode="+" 
d="M251 407v152h118v-152h150v-114h-150v-152h-118v152h-150v114h150z" />
    <glyph glyph-name="comma" unicode="," horiz-adv-x="278" 
d="M72 150.5c17.333 17 39.667 25.5 67 25.5s49.666 -8.66699 66.999 -26s26 -40.666 26 -69.999v-81c0 -40.667 -11.167 -73.167 -33.5 -97.5s-55.833 -36.5 -100.5 -36.5h-37v68h42c16 0 28.5 4.66699 37.5 14s13.5 22 13.5 38v12h-15
c-27.333 0 -49.666 8.16699 -66.999 24.5s-26 37.166 -26 62.499c0 27.333 8.66699 49.5 26 66.5z" />
    <glyph glyph-name="hyphen" unicode="-" horiz-adv-x="460" 
d="M82 312h296v-114h-296v114z" />
    <glyph glyph-name="period" unicode="." horiz-adv-x="282" 
d="M73 149.5c18 17.667 40.667 26.5 68 26.5s50 -8.83301 68 -26.5s27 -40.5 27 -68.5s-9 -50.833 -27 -68.5s-40.667 -26.5 -68 -26.5s-50 8.83301 -68 26.5s-27 40.5 -27 68.5s9 50.833 27 68.5z" />
    <glyph glyph-name="slash" unicode="/" horiz-adv-x="504" 
d="M460 700l-294 -900h-126l294 900h126z" />
    <glyph glyph-name="zero" unicode="0" horiz-adv-x="596" 
d="M63.5 583.5c22.333 42.333 53.6699 74.666 94.0029 96.999s87.166 33.5 140.499 33.5s100.166 -11.167 140.499 -33.5s71.666 -54.666 93.999 -96.999s33.5 -92.833 33.5 -151.5v-164c0 -90 -24.167 -159.5 -72.5 -208.5s-113.5 -73.5 -195.5 -73.5
s-147.167 24.5 -195.5 73.5s-72.5 118.5 -72.5 208.5v164c0 58.667 11.167 109.167 33.5 151.5zM196.504 145c23 -27.333 56.833 -41 101.5 -41c45.333 0 79.333 14 102 42s34 66.667 34 116v176c0 48.667 -12.333 87.167 -37 115.5s-57.667 42.5 -99 42.5
c-42 0 -75.167 -14.5 -99.5 -43.5s-36.5 -67.167 -36.5 -114.5v-176c0 -50.667 11.5 -89.667 34.5 -117z" />
    <glyph glyph-name="one" unicode="1" horiz-adv-x="438" 
d="M380 700v-700h-132v560h-12l-98 -176h-138l180 316h200z" />
    <glyph glyph-name="two" unicode="2" horiz-adv-x="568" 
d="M63.5 601c23.667 37.333 55.333 65.498 95 84.498s83.834 28.5 132.501 28.5c46 0 88.167 -9.5 126.5 -28.5s69 -46 92 -81s34.5 -75.833 34.5 -122.5c0 -66 -19 -117.5 -57 -154.5s-95.667 -65.167 -173 -84.5c-54.667 -14 -93.334 -28.333 -116.001 -43
s-34 -37.334 -34 -68.001v-12h376v-120h-508v120c0 60 19.167 107.5 57.5 142.5s92.5 62.167 162.5 81.5c54.667 14.667 95 32.334 121 53.001s39 50.334 39 89.001c0 34 -10.833 60.833 -32.5 80.5s-50.5 29.5 -86.5 29.5c-38.667 0 -70.5 -11.167 -95.5 -33.5
s-37.5 -55.166 -37.5 -98.499v-22h-132v24c0 52.667 11.833 97.667 35.5 135z" />
    <glyph glyph-name="three" unicode="3" horiz-adv-x="572" 
d="M534 584l-194 -158.002v-12h26c33.333 0 64 -7.5 92 -22.5s50.333 -37.167 67 -66.5s25 -64.333 25 -105c0 -46.667 -11.167 -87.667 -33.5 -123s-53.333 -62.666 -93 -81.999s-85.5 -29 -137.5 -29c-54.667 0 -102.167 10.167 -142.5 30.5s-71.333 48.333 -93 84
s-32.5 76.834 -32.5 123.501v28h132v-24c0 -35.333 12 -64.833 36 -88.5s57.333 -35.5 100 -35.5c40.667 0 72.834 10.833 96.501 32.5s35.5 49.5 35.5 83.5c0 32.667 -10.333 57.5 -31 74.5s-48.334 25.5 -83.001 25.5h-122v118l173 142h-317v120h496v-116z" />
    <glyph glyph-name="four" unicode="4" horiz-adv-x="606" 
d="M486 700v-442h114v-120h-114v-138h-132v138h-348v116l274 446h206zM144 258h210v328h-12z" />
    <glyph glyph-name="five" unicode="5" horiz-adv-x="568" 
d="M522 580l-344.004 -0.000976562v-182h12c14.667 20.667 33.167 38.167 55.5 52.5s54.166 21.5 95.499 21.5c36.667 0 70.834 -9 102.501 -27s57 -43.833 76 -77.5s28.5 -73.167 28.5 -118.5c0 -52 -10.833 -97.833 -32.5 -137.5s-52.167 -70.5 -91.5 -92.5
s-84.666 -33 -135.999 -33c-52 0 -98.167 10 -138.5 30s-71.666 48.5 -93.999 85.5s-33.5 79.833 -33.5 128.5v18h132v-10c0 -40.667 11.333 -73.167 34 -97.5s54.667 -36.5 96 -36.5c40.667 0 72.834 12.5 96.501 37.5s35.5 58.833 35.5 101.5
c0 36 -10.167 64.5 -30.5 85.5s-46.5 31.5 -78.5 31.5c-23.333 0 -42.166 -4.66699 -56.499 -14s-24.833 -20.666 -31.5 -33.999h-173v388h476v-120z" />
    <glyph glyph-name="six" unicode="6" horiz-adv-x="566" 
d="M512.5 103c-22.333 -36.667 -53.666 -65.166 -93.999 -85.499s-85.833 -30.5 -136.5 -30.5c-48 0 -91.167 9.83301 -129.5 29.5s-68.333 47.167 -90 82.5s-32.5 75.333 -32.5 120v245c0 53.333 11.333 98.833 34 136.5s53.667 66 93 85s84.333 28.5 135 28.5
c48.667 0 91.667 -8.83301 129 -26.5s66.5 -43.167 87.5 -76.5s31.5 -73 31.5 -119h-134c0 31.333 -9.83301 56.5 -29.5 75.5s-47.834 28.5 -84.501 28.5c-41.333 0 -73.333 -10.667 -96 -32s-34 -52 -34 -92v-80h12c31.333 44 81.333 66 150 66
c42 0 79.833 -9.83301 113.5 -29.5s60.167 -46.834 79.5 -81.501s29 -73.667 29 -117c0 -48 -11.167 -90.333 -33.5 -127zM196.5 321.001c-23 -22.667 -34.5 -53 -34.5 -91c0 -38.667 11.667 -69.167 35 -91.5s53.666 -33.5 90.999 -33.5c36.667 0 66.834 11.5 90.501 34.5
s35.5 53.167 35.5 90.5c0 38 -11.5 68.333 -34.5 91s-53.5 34 -91.5 34s-68.5 -11.333 -91.5 -34z" />
    <glyph glyph-name="seven" unicode="7" horiz-adv-x="528" 
d="M524 700v-116l-272 -584h-146l268 580h-370v120h520z" />
    <glyph glyph-name="eight" unicode="8" horiz-adv-x="568" 
d="M64 621.5c21.333 29 51.002 51.667 89.002 68s81.667 24.5 131 24.5s93 -8.16699 131 -24.5s67.667 -39 89 -68s32 -61.833 32 -98.5c0 -72.667 -37.333 -124.667 -112 -156v-12c32.667 -9.33301 61.167 -28.5 85.5 -57.5s36.5 -65.167 36.5 -108.5
c0 -40 -11.167 -75.333 -33.5 -106s-53.333 -54.5 -93 -71.5s-84.834 -25.5 -135.501 -25.5s-95.834 8.5 -135.501 25.5s-70.667 40.833 -93 71.5s-33.5 66 -33.5 106c0 43.333 12.167 79.5 36.5 108.5s52.833 48.167 85.5 57.5v12c-74.667 31.333 -112 83.333 -112 156
c0 36.667 10.667 69.5 32 98.5zM197.002 442c22 -16 51 -24 87 -24s65 8 87 24s33 37.667 33 65s-11 49 -33 65s-51 24 -87 24s-65 -8 -87 -24s-33 -37.667 -33 -65s11 -49 33 -65zM188.002 131c22.667 -18 54.667 -27 96 -27s73.333 9 96 27s34 41.667 34 71
s-11.333 53 -34 71s-54.667 27 -96 27s-73.333 -9 -96 -27s-34 -41.667 -34 -71s11.333 -53 34 -71z" />
    <glyph glyph-name="nine" unicode="9" horiz-adv-x="568" 
d="M55.5 598c22.333 36.667 53.666 65.166 93.999 85.499s85.833 30.5 136.5 30.5c48 0 91.167 -9.83301 129.5 -29.5s68.333 -47.167 90 -82.5s32.5 -75.333 32.5 -120v-245c0 -53.333 -11.333 -98.833 -34 -136.5s-53.667 -66 -93 -85s-84.333 -28.5 -135 -28.5
c-48.667 0 -91.667 8.83301 -129 26.5s-66.5 43.167 -87.5 76.5s-31.5 73 -31.5 119h134c0 -30.667 9.83301 -55.667 29.5 -75s47.834 -29 84.501 -29c41.333 0 73.333 10.667 96 32s34 52 34 92v80h-12c-31.333 -44 -81.333 -66 -150 -66
c-42 0 -79.833 9.83301 -113.5 29.5s-60.167 46.834 -79.5 81.501s-29 73.667 -29 117c0 48 11.167 90.333 33.5 127zM371.5 379.999c23 22.667 34.5 53 34.5 91c0 38.667 -11.667 69.167 -35 91.5s-53.666 33.5 -90.999 33.5c-36.667 0 -66.834 -11.5 -90.501 -34.5
s-35.5 -53.167 -35.5 -90.5c0 -38 11.5 -68.333 34.5 -91s53.5 -34 91.5 -34s68.5 11.333 91.5 34z" />
    <glyph glyph-name="colon" unicode=":" horiz-adv-x="282" 
d="M73 149.5c18 17.667 40.667 26.5 68 26.5s50 -8.83301 68 -26.5s27 -40.5 27 -68.5s-9 -50.833 -27 -68.5s-40.667 -26.5 -68 -26.5s-50 8.83301 -68 26.5s-27 40.5 -27 68.5s9 50.833 27 68.5zM73 483.5c18 17.667 40.667 26.5 68 26.5s50 -8.83301 68 -26.5
s27 -40.5 27 -68.5s-9 -50.833 -27 -68.5s-40.667 -26.5 -68 -26.5s-50 8.83301 -68 26.5s-27 40.5 -27 68.5s9 50.833 27 68.5z" />
    <glyph glyph-name="semicolon" unicode=";" horiz-adv-x="282" 
d="M73 483.5c18 17.667 40.667 26.5 68 26.5s50 -8.83301 68 -26.5s27 -40.5 27 -68.5s-9 -50.833 -27 -68.5s-40.667 -26.5 -68 -26.5s-50 8.83301 -68 26.5s-27 40.5 -27 68.5s9 50.833 27 68.5zM72 150.5c17.333 17 39.667 25.5 67 25.5s49.666 -8.66699 66.999 -26
s26 -40.666 26 -69.999v-81c0 -40.667 -11.167 -73.167 -33.5 -97.5s-55.833 -36.5 -100.5 -36.5h-37v68h42c16 0 28.5 4.66699 37.5 14s13.5 22 13.5 38v12h-15c-27.333 0 -49.666 8.16699 -66.999 24.5s-26 37.166 -26 62.499c0 27.333 8.66699 49.5 26 66.5z" />
    <glyph glyph-name="less" unicode="&#x3c;" 
d="M100 428l420 142v-120l-298 -91v-18l298 -91v-120l-420 142v156z" />
    <glyph glyph-name="equal" unicode="=" 
d="M101 494h418v-114h-418v114zM101 320h418v-114h-418v114z" />
    <glyph glyph-name="greater" unicode="&#x3e;" 
d="M100 130v120l298 91v18l-298 91v120l420 -142v-156z" />
    <glyph glyph-name="question" unicode="?" horiz-adv-x="592" 
d="M74 609.5c22.667 33.667 53.666 59.5 92.999 77.5s83 27 131 27c47.333 0 89.833 -8.66699 127.5 -26s67.167 -41.833 88.5 -73.5s32 -67.834 32 -108.501v-4c0 -53.333 -13.333 -94.666 -40 -123.999s-62.334 -53.666 -107.001 -72.999l-18 -8
c-12 -5.33301 -20.333 -11.833 -25 -19.5s-7 -18.834 -7 -33.501v-26h-132v36c0 34.667 6.83301 63 20.5 85s35.834 40 66.501 54l18 8c32.667 14.667 56.167 29 70.5 43s21.5 32.667 21.5 56c0 27.333 -10.667 49.166 -32 65.499s-49.333 24.5 -84 24.5
c-37.333 0 -67.666 -9 -90.999 -27s-35 -43.667 -35 -77v-24h-132v30c0 44.667 11.333 83.834 34 117.501zM214.999 149.5c18 17.667 40.667 26.5 68 26.5s50 -8.83301 68 -26.5s27 -40.5 27 -68.5s-9 -50.833 -27 -68.5s-40.667 -26.5 -68 -26.5s-50 8.83301 -68 26.5
s-27 40.5 -27 68.5s9 50.833 27 68.5z" />
    <glyph glyph-name="at" unicode="@" horiz-adv-x="1040" 
d="M137.5 645c37 36.667 87.834 55.0029 152.501 55.0029h480c61.333 0 108 -15.833 140 -47.5s48 -77.834 48 -138.501v-422c0 -27.333 -8.33301 -49.5 -25 -66.5s-39 -25.5 -67 -25.5h-158c-22.667 0 -41.167 6.33301 -55.5 19s-21.5 29.667 -21.5 51v2h-18
c-20.667 -57.333 -62 -86 -124 -86c-40.667 0 -76.334 11.167 -107.001 33.5s-54.334 52.833 -71.001 91.5s-25 81 -25 127v16c0 46.667 8 89.167 24 127.5s38.5 68.666 67.5 90.999s62.833 33.5 101.5 33.5c34 0 60.167 -6.5 78.5 -19.5s33.833 -31.167 46.5 -54.5h18v60
h122v-350c0 -20 9 -30 27 -30h36c18 0 27 10 27 30v372c0 23.333 -6.16699 41.166 -18.5 53.499s-30.166 18.5 -53.499 18.5h-444c-74.667 0 -112 -37.333 -112 -112v-448c0 -74.667 37.333 -112 112 -112h630v-114h-658c-64.667 0 -115.5 18.333 -152.5 55
s-55.5 87.667 -55.5 153v484c0 65.333 18.5 116.333 55.5 153zM438.001 139.503c18.667 -25 44.334 -37.5 77.001 -37.5s58.667 12.5 78 37.5s29 58.5 29 100.5v12c0 42 -9.66699 75.5 -29 100.5s-45.333 37.5 -78 37.5s-58.334 -12.5 -77.001 -37.5s-28 -58.5 -28 -100.5
v-12c0 -42 9.33301 -75.5 28 -100.5z" />
    <glyph glyph-name="A" unicode="A" horiz-adv-x="602" 
d="M404 700l196 -700h-135l-42 156h-244l-42 -156h-135l196 700h206zM391 276l-85 316h-10l-85 -316h180z" />
    <glyph glyph-name="B" unicode="B" horiz-adv-x="614" 
d="M523 649.5c38 -33.667 56.999 -78.834 56.999 -135.501c0 -46 -11.167 -81.167 -33.5 -105.5s-49.166 -41.166 -80.499 -50.499v-10c32 -8.66699 59.667 -25.5 83 -50.5s35 -60.833 35 -107.5c0 -58 -19.167 -104.167 -57.5 -138.5s-87.833 -51.5 -148.5 -51.5h-320v700
h316c61.333 0 111 -16.833 149 -50.5zM359.999 412c28 0 50.667 7.5 68 22.5s26 35.5 26 61.5s-8.66699 46.5 -26 61.5s-40 22.5 -68 22.5h-170v-168h170zM361.999 120c29.333 0 52.666 7.66699 69.999 23s26 36.333 26 63s-8.66699 47.667 -26 63s-40.666 23 -69.999 23
h-172v-172h172z" />
    <glyph glyph-name="C" unicode="C" horiz-adv-x="622" 
d="M107 640.5c51.333 49 121.666 73.502 210.999 73.502c58 0 107.833 -10.333 149.5 -31s73.5 -50 95.5 -88s33 -82.333 33 -133v-18h-132v20c0 37.333 -12.833 68.666 -38.5 93.999s-61.5 38 -107.5 38c-48 0 -86 -14.333 -114 -43s-42 -67.667 -42 -117v-172
c0 -49.333 14 -88.333 42 -117s66 -43 114 -43c46 0 81.833 12.667 107.5 38s38.5 56.666 38.5 93.999v28h132v-26c0 -50.667 -11 -95 -33 -133s-53.833 -67.333 -95.5 -88s-91.5 -31 -149.5 -31c-89.333 0 -159.666 24.5 -210.999 73.5s-77 117.833 -77 206.5v168
c0 88.667 25.667 157.5 77 206.5z" />
    <glyph glyph-name="D" unicode="D" horiz-adv-x="616" 
d="M512.5 628.5c49 -47.667 73.5 -118.5 73.5 -212.5v-132c0 -94 -24.5 -164.833 -73.5 -212.5s-120.5 -71.5 -214.5 -71.5h-240v700h240c94 0 165.5 -23.833 214.5 -71.5zM300 120c102.667 0 154 53.333 154 160v140c0 106.667 -51.333 160 -154 160h-110v-460h110z" />
    <glyph glyph-name="E" unicode="E" horiz-adv-x="552" 
d="M518 700v-120h-328v-167h300v-120h-300v-173h334v-120h-466v700h460z" />
    <glyph glyph-name="F" unicode="F" horiz-adv-x="524" 
d="M504 700v-120h-314v-169h294v-120h-294v-291h-132v700h446z" />
    <glyph glyph-name="G" unicode="G" horiz-adv-x="626" 
d="M108 640.5c52 49 122.666 73.499 211.999 73.499c86.667 0 153.667 -22.5 201 -67.5s71 -105.167 71 -180.5v-12h-132v14c0 38 -11.833 68.833 -35.5 92.5s-58.5 35.5 -104.5 35.5c-48 0 -86.333 -14.5 -115 -43.5s-43 -67.833 -43 -116.5v-172
c0 -48.667 14.333 -87.5 43 -116.5s67 -43.5 115 -43.5c47.333 0 83.5 11.833 108.5 35.5s37.5 55.834 37.5 96.501v6h-170v112h300v-102c0 -83.333 -24.167 -148.5 -72.5 -195.5s-116.166 -70.5 -203.499 -70.5c-89.333 0 -160 24.5 -212 73.5s-78 117.833 -78 206.5v168
c0 88.667 26 157.5 78 206.5z" />
    <glyph glyph-name="H" unicode="H" horiz-adv-x="644" 
d="M190 700v-289h264v289h132v-700h-132v291h-264v-291h-132v700h132z" />
    <glyph glyph-name="I" unicode="I" horiz-adv-x="248" 
d="M190 700v-700h-132v700h132z" />
    <glyph glyph-name="J" unicode="J" horiz-adv-x="536" 
d="M423.5 44c-39 -38.667 -93.165 -58 -162.498 -58c-72.667 0 -130 19.833 -172 59.5s-63 94.5 -63 164.5v66h132v-66c0 -32.667 8.66699 -58.167 26 -76.5s41.666 -27.5 72.999 -27.5c29.333 0 52.166 9.16699 68.499 27.5s24.5 43.833 24.5 76.5v490h132v-490
c0 -72 -19.5 -127.333 -58.5 -166z" />
    <glyph glyph-name="K" unicode="K" horiz-adv-x="649" 
d="M667 700l-309 -293l294 -407h-163l-223 320l-76 -72v-248h-132v700h132v-280h10l281 280h186z" />
    <glyph glyph-name="L" unicode="L" horiz-adv-x="526" 
d="M190 700v-580h324v-120h-456v700h132z" />
    <glyph glyph-name="M" unicode="M" horiz-adv-x="880" 
d="M284 700l151 -566h10l151 566h226v-700h-128v564h-10l-151 -564h-186l-151 564h-10v-564h-128v700h226z" />
    <glyph glyph-name="N" unicode="N" horiz-adv-x="654" 
d="M285 700l169 -566h10v566h132v-700h-227l-169 566h-10v-566h-132v700h227z" />
    <glyph glyph-name="O" unicode="O" horiz-adv-x="636" 
d="M107 640.5c51.333 49 121.666 73.5 210.999 73.5s159.666 -24.5 210.999 -73.5s77 -117.833 77 -206.5v-168c0 -88.667 -25.667 -157.5 -77 -206.5s-121.666 -73.5 -210.999 -73.5s-159.666 24.5 -210.999 73.5s-77 117.833 -77 206.5v168
c0 88.667 25.667 157.5 77 206.5zM203.5 146.5c27.667 -28.333 65.834 -42.5 114.501 -42.5s86.834 14.167 114.501 42.5s41.5 66.833 41.5 115.5v176c0 48.667 -13.833 87.167 -41.5 115.5s-65.834 42.5 -114.501 42.5s-86.834 -14.167 -114.501 -42.5
s-41.5 -66.833 -41.5 -115.5v-176c0 -48.667 13.833 -87.167 41.5 -115.5z" />
    <glyph glyph-name="P" unicode="P" horiz-adv-x="582" 
d="M462.5 672.5c33.667 -18.333 60 -44.333 79 -78s28.5 -72.5 28.5 -116.5s-9.66699 -82.833 -29 -116.5s-46 -59.667 -80 -78s-72.333 -27.5 -115 -27.5h-156v-256h-132v700h288c44 0 82.833 -9.16699 116.5 -27.5zM333 376c31.333 0 56.666 9.33105 75.999 27.998
s29 43.334 29 74.001s-9.66699 55.334 -29 74.001s-44.666 28 -75.999 28h-143v-204h143z" />
    <glyph glyph-name="Q" unicode="Q" horiz-adv-x="636" 
d="M529 640.5c51.333 -49 77.002 -117.833 77.002 -206.5v-168c0 -77.333 -19.667 -139.666 -59 -186.999s-94.333 -76.666 -165 -87.999v-39c0 -20 9.33301 -30 28 -30h59v-102h-105c-33.333 0 -60 10.167 -80 30.5s-30 47.5 -30 81.5v59
c-70.667 11.333 -125.667 40.666 -165 87.999s-59 109.666 -59 186.999v168c0 88.667 25.667 157.5 77 206.5s121.666 73.5 210.999 73.5s159.666 -24.5 210.999 -73.5zM474.002 438c0 48.667 -13.833 87.167 -41.5 115.5s-65.834 42.5 -114.501 42.5
s-86.834 -14.167 -114.501 -42.5s-41.5 -66.833 -41.5 -115.5v-176c0 -48.667 13.833 -87.167 41.5 -115.5s65.834 -42.5 114.501 -42.5s86.834 14.167 114.501 42.5s41.5 66.833 41.5 115.5v176z" />
    <glyph glyph-name="R" unicode="R" horiz-adv-x="616" 
d="M548.5 345.5c-27.667 -37 -64.5 -62.167 -110.5 -75.5l144 -270h-149l-128 260h-115v-260h-132v700h308c44 0 82.833 -9.16699 116.5 -27.5s60 -44 79 -77s28.5 -71.5 28.5 -115.5c0 -52.667 -13.833 -97.5 -41.5 -134.5zM190 379h163
c31.333 0 56.666 9.16699 75.999 27.5s29 42.833 29 73.5s-9.66699 55 -29 73s-44.666 27 -75.999 27h-163v-201z" />
    <glyph glyph-name="S" unicode="S" horiz-adv-x="586" 
d="M477 655c47.333 -39.333 70.999 -95.666 70.999 -168.999v-16h-130v16c0 74.667 -43 112 -129 112c-39.333 0 -68.666 -7.33301 -87.999 -22s-29 -35.334 -29 -62.001c0 -25.333 9.5 -45 28.5 -59s50.5 -26 94.5 -36l23 -5c80.667 -17.333 141.5 -41.833 182.5 -73.5
s61.5 -77.834 61.5 -138.501c0 -42.667 -10.833 -80.334 -32.5 -113.001s-52.5 -58 -92.5 -76s-86.667 -27 -140 -27c-54 0 -101.833 9.66699 -143.5 29s-74 47.166 -97 83.499s-34.5 79.5 -34.5 129.5v10h130v-10c0 -41.333 12.667 -72.666 38 -93.999s61 -32 107 -32
c44 0 77.5 8.83301 100.5 26.5s34.5 40.834 34.5 69.501c0 27.333 -10.5 47.833 -31.5 61.5s-56.167 25.834 -105.5 36.501l-23 5c-78.667 17.333 -136.667 41.333 -174 72s-56 76.334 -56 137.001c0 63.333 22.333 113.166 67 149.499s104.667 54.5 180 54.5
c78 0 140.667 -19.667 188 -59z" />
    <glyph glyph-name="T" unicode="T" horiz-adv-x="572" 
d="M564 700v-120h-212v-580h-132v580h-212v120h556z" />
    <glyph glyph-name="U" unicode="U" horiz-adv-x="656" 
d="M186 242c0 -43.333 12.333 -77.166 37 -101.499s59.667 -36.5 105 -36.5s80.333 12.167 105 36.5s37 58.166 37 101.499v458h132v-454c0 -80.667 -24.333 -144.167 -73 -190.5s-115.667 -69.5 -201 -69.5s-152.333 23.167 -201 69.5s-73 109.833 -73 190.5v454h132v-458z
" />
    <glyph glyph-name="V" unicode="V" horiz-adv-x="602" 
d="M137 700l159 -592h10l159 592h135l-195 -700h-208l-195 700h135z" />
    <glyph glyph-name="W" unicode="W" horiz-adv-x="896" 
d="M142 700l85 -572h10l108 572h206l108 -572h10l85 572h132l-112 -700h-213l-108 572h-10l-108 -572h-213l-112 700h132z" />
    <glyph glyph-name="X" unicode="X" horiz-adv-x="624" 
d="M164 700l143 -260h10l143 260h150l-203 -347l205 -353h-150l-145 266h-10l-145 -266h-150l205 353l-203 347h150z" />
    <glyph glyph-name="Y" unicode="Y" horiz-adv-x="612" 
d="M142 700l159 -310h10l159 310h148l-246 -453v-247h-132v247l-246 453h148z" />
    <glyph glyph-name="Z" unicode="Z" horiz-adv-x="570" 
d="M540 700v-114l-347 -468h349v-118h-514v114l347 468h-337v118h502z" />
    <glyph glyph-name="bracketleft" unicode="[" horiz-adv-x="358" 
d="M138.5 777.5c19 19 43.5 28.5 73.5 28.5h126v-116h-75c-18 0 -27 -10 -27 -30v-760c0 -20 9 -30 27 -30h75v-116h-126c-30 0 -54.5 9.5 -73.5 28.5s-28.5 43.5 -28.5 73.5v848c0 30 9.5 54.5 28.5 73.5z" />
    <glyph glyph-name="backslash" unicode="\" horiz-adv-x="506" 
d="M466 -200h-126l-294 900h126z" />
    <glyph glyph-name="bracketright" unicode="]" horiz-adv-x="358" 
d="M219.5 -217.5c-19 -19 -43.5 -28.5 -73.5 -28.5h-126v116h75c18 0 27 10 27 30v760c0 20 -9 30 -27 30h-75v116h126c30 0 54.5 -9.5 73.5 -28.5s28.5 -43.5 28.5 -73.5v-848c0 -30 -9.5 -54.5 -28.5 -73.5z" />
    <glyph glyph-name="asciicircum" unicode="^" 
d="M550 424h-140l-91 196h-18l-91 -196h-140l146 276h188z" />
    <glyph glyph-name="underscore" unicode="_" 
d="M65 -48h490v-114h-490v114z" />
    <glyph glyph-name="grave" unicode="`" horiz-adv-x="276" 
d="M236 570h-108l-88 130h142z" />
    <glyph glyph-name="a" unicode="a" horiz-adv-x="532" 
d="M124.5 471c36.333 26 84.835 39 145.502 39c66 0 117.833 -16.5 155.5 -49.5s56.5 -80.167 56.5 -141.5v-319h-120v58h-14c-7.33301 -17.333 -21.5 -33.666 -42.5 -48.999s-51.5 -23 -91.5 -23c-52.667 0 -96.167 14.167 -130.5 42.5s-51.5 67.166 -51.5 116.499
s17.5 87.5 52.5 114.5s81.5 40.5 139.5 40.5h136v28c0 24.667 -7.66699 44.5 -23 59.5s-38.333 22.5 -69 22.5c-30 0 -53.333 -7.16699 -70 -21.5s-27.334 -33.5 -32.001 -57.5l-116 39c13.333 41.333 38.166 75 74.499 101zM179.502 104.5
c14.333 -11 34.5 -16.5 60.5 -16.5c35.333 0 64.166 10.167 86.499 30.5s33.5 46.833 33.5 79.5v8h-127c-23.333 0 -41.666 -5.33301 -54.999 -16s-20 -24.667 -20 -42c0 -18 7.16699 -32.5 21.5 -43.5z" />
    <glyph glyph-name="b" unicode="b" horiz-adv-x="604" 
d="M182 432h10c36.667 52 90.667 78 162 78c40 0 77 -10.667 111 -32s61.333 -52 82 -92s31 -86 31 -138s-10.333 -98 -31 -138s-48 -70.667 -82 -92s-71 -32 -111 -32c-71.333 0 -126 27 -164 81h-10v-67h-124v700h126v-268zM218 361c-25.333 -27.333 -38 -65 -38 -113
s12.667 -85.667 38 -113s58 -41 98 -41s72.667 13.667 98 41s38 65 38 113s-12.667 85.667 -38 113s-58 41 -98 41s-72.667 -13.667 -98 -41z" />
    <glyph glyph-name="c" unicode="c" horiz-adv-x="554" 
d="M60 383c22.667 40 53.668 71.167 93.001 93.5s83 33.5 131 33.5c66.667 0 121.167 -17.5 163.5 -52.5s69.166 -81.5 80.499 -139.5l-122 -26c-4 32 -16 58 -36 78s-48 30 -84 30c-39.333 0 -71.5 -13.667 -96.5 -41s-37.5 -64.333 -37.5 -111s12.5 -83.667 37.5 -111
s57.167 -41 96.5 -41c36 0 64.167 9.66699 84.5 29s33.5 46 39.5 80l122 -29c-14.667 -57.333 -43 -103.333 -85 -138s-96.333 -52 -163 -52c-48 0 -91.667 11.167 -131 33.5s-70.333 53.5 -93 93.5s-34 85 -34 135s11.333 95 34 135z" />
    <glyph glyph-name="d" unicode="d" horiz-adv-x="604" 
d="M424 0v67h-10c-38 -54 -92.667 -81 -164 -81c-40 0 -77 10.667 -111 32s-61.333 52 -82 92s-31 86 -31 138s10.333 98 31 138s48 70.667 82 92s71 32 111 32c71.333 0 125.333 -26 162 -78h10v268h126v-700h-124zM190 361c-25.333 -27.333 -38 -65 -38 -113
s12.667 -85.667 38 -113s58 -41 98 -41s72.667 13.667 98 41s38 65 38 113s-12.667 85.667 -38 113s-58 41 -98 41s-72.667 -13.667 -98 -41z" />
    <glyph glyph-name="e" unicode="e" horiz-adv-x="538" 
d="M57.5 385.5c21 39.667 50.332 70.332 87.999 91.999s80.834 32.5 129.501 32.5c48 0 90.167 -10.667 126.5 -32s64.5 -51.5 84.5 -90.5s30 -83.5 30 -133.5v-43h-361c1.33301 -34 13.833 -62 37.5 -84s53.167 -33 88.5 -33c32 0 56.833 7 74.5 21s31.5 32.333 41.5 55
l103 -54c-46 -86.667 -120.333 -130 -223 -130c-48.667 0 -92 10.833 -130 32.5s-67.667 52.334 -89 92.001s-32 85.5 -32 137.5s10.5 97.833 31.5 137.5zM352.499 374.998c-20.333 18 -46.501 27 -78.501 27c-32.667 0 -59.5 -9 -80.5 -27s-33.5 -41.333 -37.5 -70h232
c-3.33301 28.667 -15.166 52 -35.499 70z" />
    <glyph glyph-name="f" unicode="f" horiz-adv-x="416" 
d="M142 588c0 34 10 61.167 30 81.5s46.667 30.5 80 30.5h130v-102h-86c-18.667 0 -28 -10 -28 -30v-72h130v-102h-130v-394h-126v394h-126v102h126v92z" />
    <glyph glyph-name="g" unicode="g" horiz-adv-x="604" 
d="M548 496l-0.00195312 -466.997c0 -78.667 -23.5 -138.834 -70.5 -180.501s-110.833 -62.5 -191.5 -62.5c-70.667 0 -127.167 15.333 -169.5 46s-71.166 68 -86.499 112l113 49c9.33301 -30.667 25.5 -55.167 48.5 -73.5s53.833 -27.5 92.5 -27.5
c42.667 0 76.334 11.667 101.001 35s37 58.333 37 105v48h-10c-37.333 -52 -91.333 -78 -162 -78c-39.333 0 -76.166 10.667 -110.499 32s-61.833 51.166 -82.5 89.499s-31 82.5 -31 132.5s10.333 94.167 31 132.5s48.167 68.166 82.5 89.499s71.166 32 110.499 32
c71.333 0 126 -27 164 -81h10v67h124zM385.998 150.003c25.333 26.667 38 62 38 106s-12.667 79.333 -38 106s-58 40 -98 40s-72.667 -13.333 -98 -40s-38 -62 -38 -106s12.667 -79.333 38 -106s58 -40 98 -40s72.667 13.333 98 40z" />
    <glyph glyph-name="h" unicode="h" horiz-adv-x="586" 
d="M182 426h10c26 52 76.333 78 151 78c38 0 71.667 -8.83301 101 -26.5s52 -42.167 68 -73.5s24 -67.333 24 -108v-296h-126v290c0 37.333 -9 65.333 -27 84s-44.333 28 -79 28c-38.667 0 -68.667 -12.833 -90 -38.5s-32 -61.5 -32 -107.5v-256h-126v700h126v-274z" />
    <glyph glyph-name="i" unicode="i" horiz-adv-x="238" 
d="M182 0h-126v496h126v-496zM55.5 702c17 16 38.167 24 63.5 24s46.5 -8 63.5 -24s25.5 -36.667 25.5 -62s-8.5 -46 -25.5 -62s-38.167 -24 -63.5 -24s-46.5 8 -63.5 24s-25.5 36.667 -25.5 62s8.5 46 25.5 62z" />
    <glyph glyph-name="j" unicode="j" horiz-adv-x="242" 
d="M156 -169.5c-20 -20.333 -46.667 -30.5 -80 -30.5h-130v102h86c18.667 0 28 10 28 30v564h126v-584c0 -34 -10 -61.167 -30 -81.5zM59.5 702c17 16 38.167 24 63.5 24s46.5 -8 63.5 -24s25.5 -36.667 25.5 -62s-8.5 -46 -25.5 -62s-38.167 -24 -63.5 -24
s-46.5 8 -63.5 24s-25.5 36.667 -25.5 62s8.5 46 25.5 62z" />
    <glyph glyph-name="k" unicode="k" horiz-adv-x="580" 
d="M574 496l-233 -199l229 -297h-155l-164 220l-69 -59v-161h-126v700h126v-386l206 182h186z" />
    <glyph glyph-name="l" unicode="l" horiz-adv-x="238" 
d="M182 0h-126v700h126v-700z" />
    <glyph glyph-name="m" unicode="m" horiz-adv-x="824" 
d="M180 434h10.0039c10.667 21.333 26.667 38.333 48 51s48.666 19 81.999 19c65.333 0 110.666 -26 135.999 -78h10c14 24 31.833 43 53.5 57s51.167 21 88.5 21c48.667 0 88.5 -15.333 119.5 -46s46.5 -74.667 46.5 -132v-326h-126v320c0 26.667 -7 47 -21 61
s-33.667 21 -59 21c-28.667 0 -50.834 -9.16699 -66.501 -27.5s-23.5 -44.5 -23.5 -78.5v-296h-126v320c0 26.667 -7 47 -21 61s-33.667 21 -59 21c-28.667 0 -50.834 -9.16699 -66.501 -27.5s-23.5 -44.5 -23.5 -78.5v-296h-126v496h124v-62z" />
    <glyph glyph-name="n" unicode="n" horiz-adv-x="586" 
d="M180 422h10c26 54.667 77 82 153 82c38 0 71.667 -8.83301 101 -26.5s52 -42.167 68 -73.5s24 -67.333 24 -108v-296h-126v290c0 37.333 -9 65.333 -27 84s-44.333 28 -79 28c-38.667 0 -68.667 -12.833 -90 -38.5s-32 -61.5 -32 -107.5v-256h-126v496h124v-74z" />
    <glyph glyph-name="o" unicode="o" horiz-adv-x="572" 
d="M60 386.5c22.667 39.667 53.667 70.167 93 91.5s83.666 32 132.999 32s93.666 -10.667 132.999 -32s70.333 -51.833 93 -91.5s34 -85.834 34 -138.501s-11.333 -98.834 -34 -138.501s-53.667 -70.167 -93 -91.5s-83.666 -32 -132.999 -32s-93.666 10.667 -132.999 32
s-70.333 51.833 -93 91.5s-34 85.834 -34 138.501s11.333 98.834 34 138.501zM189 136.5c24.667 -27 57 -40.5 97 -40.5s72.333 13.5 97 40.5s37 64.167 37 111.5s-12.333 84.5 -37 111.5s-57 40.5 -97 40.5s-72.333 -13.5 -97 -40.5s-37 -64.167 -37 -111.5
s12.333 -84.5 37 -111.5z" />
    <glyph glyph-name="p" unicode="p" horiz-adv-x="604" 
d="M180 496v-67h10c38 54 92.667 81 164 81c40 0 77 -10.667 111 -32s61.333 -52 82 -92s31 -86 31 -138s-10.333 -98 -31 -138s-48 -70.667 -82 -92s-71 -32 -111 -32c-71.333 0 -125.333 26 -162 78h-10v-264h-126v696h124zM414 135c25.333 27.333 38 65 38 113
s-12.667 85.667 -38 113s-58 41 -98 41s-72.667 -13.667 -98 -41s-38 -65 -38 -113s12.667 -85.667 38 -113s58 -41 98 -41s72.667 13.667 98 41z" />
    <glyph glyph-name="q" unicode="q" horiz-adv-x="604" 
d="M422 64h-10c-36.667 -52 -90.667 -78 -162 -78c-40 0 -77 10.667 -111 32s-61.333 52 -82 92s-31 86 -31 138s10.333 98 31 138s48 70.667 82 92s71 32 111 32c71.333 0 126 -27 164 -81h10v67h124v-696h-126v264zM386 135c25.333 27.333 38 65 38 113
s-12.667 85.667 -38 113s-58 41 -98 41s-72.667 -13.667 -98 -41s-38 -65 -38 -113s12.667 -85.667 38 -113s58 -41 98 -41s72.667 13.667 98 41z" />
    <glyph glyph-name="r" unicode="r" horiz-adv-x="374" 
d="M190 426c9.33301 25.333 24.167 43.667 44.5 55s46.833 17 79.5 17h52v-106h-74c-33.333 0 -60 -8.83301 -80 -26.5s-30 -43.5 -30 -77.5v-288h-126v496h124v-70h10z" />
    <glyph glyph-name="s" unicode="s" horiz-adv-x="500" 
d="M101 469.5c35.333 27 83.002 40.498 143.002 40.498c54 0 99 -12.167 135 -36.5s60.333 -57.166 73 -98.499l-114 -35c-10.667 49.333 -42 74 -94 74c-24 0 -42.333 -4.33301 -55 -13s-19 -20.667 -19 -36c0 -16 6.5 -28.167 19.5 -36.5s33.167 -15.166 60.5 -20.499
l26 -5c43.333 -8.66699 78.666 -18.334 105.999 -29.001s49.166 -26 65.499 -46s24.5 -46.333 24.5 -79c0 -51.333 -18.667 -91.333 -56 -120s-88 -43 -152 -43c-65.333 0 -118.5 14 -159.5 42s-65.833 68 -74.5 120l116 30c11.333 -64 50.666 -96 117.999 -96
c28 0 49.333 5.33301 64 16s22 24.334 22 41.001c0 15.333 -7 27.5 -21 36.5s-37 16.5 -69 22.5l-26 5c-59.333 11.333 -105.166 28.5 -137.499 51.5s-48.5 57.167 -48.5 102.5c0 48 17.667 85.5 53 112.5z" />
    <glyph glyph-name="t" unicode="t" horiz-adv-x="418" 
d="M128 496v154h126v-154h136v-102h-136v-262c0 -20 9.33301 -30 28 -30h96v-102h-140c-33.333 0 -60 10.167 -80 30.5s-30 47.5 -30 81.5v282h-124v102h124z" />
    <glyph glyph-name="u" unicode="u" horiz-adv-x="594" 
d="M414 74h-10c-26 -54.667 -77 -82 -153 -82c-38 0 -71.667 8.83301 -101 26.5s-52 42.167 -68 73.5s-24 67.333 -24 108v296h126v-290c0 -37.333 9 -65.333 27 -84s44.333 -28 79 -28c38.667 0 68.667 12.833 90 38.5s32 61.5 32 107.5v256h126v-496h-124v74z" />
    <glyph glyph-name="v" unicode="v" horiz-adv-x="532" 
d="M138 496l123 -390h10l123 390h136l-171 -496h-186l-171 496h136z" />
    <glyph glyph-name="w" unicode="w" horiz-adv-x="744" 
d="M136 496l60 -392h10l79 392h174l79 -392h10l60 392h126l-98 -496h-180l-79 392h-10l-79 -392h-180l-98 496h126z" />
    <glyph glyph-name="x" unicode="x" horiz-adv-x="568" 
d="M162 496l117 -171h10l117 171h146l-174 -246l176 -250h-149l-116 173h-10l-116 -173h-149l176 250l-174 246h146z" />
    <glyph glyph-name="y" unicode="y" horiz-adv-x="548" 
d="M410 496h136l-272 -696h-136l70 168l-206 528h136l131 -358h10z" />
    <glyph glyph-name="z" unicode="z" horiz-adv-x="528" 
d="M484 496v-92l-272 -302h280v-102h-450v92l272 302h-262v102h432z" />
    <glyph glyph-name="braceleft" unicode="{" horiz-adv-x="404" 
d="M156 377v327c0 30 9.5 54.5 28.5 73.5s43.5 28.5 73.5 28.5h126v-116h-75c-18 0 -27 -10 -27 -30v-293c0 -22.667 -7.16699 -41.667 -21.5 -57s-33.166 -23 -56.499 -23h-16v-14h16c23.333 0 42.166 -7.66699 56.499 -23s21.5 -34.333 21.5 -57v-293c0 -20 9 -30 27 -30
h75v-116h-126c-30 0 -54.5 9.5 -73.5 28.5s-28.5 43.5 -28.5 73.5v327c0 19.333 -9 29 -27 29h-69v136h69c18 0 27 9.66699 27 29z" />
    <glyph glyph-name="bar" unicode="|" horiz-adv-x="242" 
d="M184 -246h-126v1052h126v-1052z" />
    <glyph glyph-name="braceright" unicode="}" horiz-adv-x="404" 
d="M275 212c-18 0 -27 -9.66699 -27 -29v-327c0 -30 -9.5 -54.5 -28.5 -73.5s-43.5 -28.5 -73.5 -28.5h-126v116h75c18 0 27 10 27 30v293c0 22.667 7.16699 41.667 21.5 57s33.166 23 56.499 23h16v14h-16c-23.333 0 -42.166 7.66699 -56.499 23s-21.5 34.333 -21.5 57v293
c0 20 -9 30 -27 30h-75v116h126c30 0 54.5 -9.5 73.5 -28.5s28.5 -43.5 28.5 -73.5v-327c0 -19.333 9 -29 27 -29h69v-136h-69z" />
    <glyph glyph-name="asciitilde" unicode="~" 
d="M359.5 348c5 -4.66699 12.167 -7 21.5 -7c11.333 0 24.333 6.33301 39 19l86 63l70 -93l-121 -92c-28 -23.333 -57.667 -35 -89 -35c-41.333 0 -70 13.667 -86 41c-8.66699 14 -15.5 23.333 -20.5 28s-12.167 7 -21.5 7c-11.333 0 -24.333 -6.33301 -39 -19l-86 -63
l-70 93l121 92c28 23.333 57.667 35 89 35c41.333 0 70 -13.667 86 -41c8.66699 -14 15.5 -23.333 20.5 -28z" />
    <glyph glyph-name="uni00A0" unicode="&#xa0;" horiz-adv-x="270" 
 />
    <glyph glyph-name="exclamdown" unicode="&#xa1;" horiz-adv-x="282" 
d="M209 346.5c-18 -17.667 -40.667 -26.5 -68 -26.5s-50 8.83301 -68 26.5s-27 40.5 -27 68.5s9 50.833 27 68.5s40.667 26.5 68 26.5s50 -8.83301 68 -26.5s27 -40.5 27 -68.5s-9 -50.833 -27 -68.5zM73 -200l14 478h108l14 -478h-136z" />
    <glyph glyph-name="cent" unicode="&#xa2;" horiz-adv-x="586" 
d="M428 436v18.002c0 30.667 -5.66699 57 -17 79s-28 38.333 -50 49v-465c44.667 18 67 61 67 129v18h132v-24c0 -69.333 -16.667 -125.833 -50 -169.5s-83 -70.5 -149 -80.5v-106h-120v107c-66.667 10.667 -118.5 40 -155.5 88s-55.5 112.333 -55.5 193v156
c0 77.333 18.333 140.666 55 189.999s88.667 79.666 156 90.999v107h120v-107c63.333 -10.667 112.333 -37.667 147 -81s52 -99.333 52 -168v-24h-132zM241 116.002v467c-26 -12 -45.667 -30.833 -59 -56.5s-20 -55.167 -20 -88.5v-176c0 -77.333 26.333 -126 79 -146z" />
    <glyph glyph-name="sterling" unicode="&#xa3;" horiz-adv-x="638" 
d="M126 490c0 72 19.5 127.333 58.5 166s93.167 58 162.5 58c73.333 0 130.833 -20 172.5 -60s62.5 -94.667 62.5 -164v-58h-126v62c0 31.333 -9.5 55.833 -28.5 73.5s-44.5 26.5 -76.5 26.5c-30 0 -54 -8.83301 -72 -26.5s-27 -42.167 -27 -73.5v-102h100v-110h-100v-162
h334v-120h-534v120h74v162h-70v110h70v98z" />
    <glyph glyph-name="currency" unicode="&#xa4;" 
d="M176 561c42 26 86.6689 38.998 134.002 38.998s92 -13 134 -39l61 61l77 -77l-61 -61c26 -42 39 -86.667 39 -134s-13 -92 -39 -134l61 -61l-77 -77l-61 61c-40.667 -26 -85.334 -39 -134.001 -39s-93.334 13 -134.001 39l-61 -61l-77 77l61 61
c-26 40.667 -39 85.334 -39 134.001s13 93.334 39 134.001l-61 61l77 77zM187.002 278.498c12.667 -21.667 29.834 -38.834 51.501 -51.501s45.5 -19 71.5 -19s49.833 6.33301 71.5 19s38.834 29.834 51.501 51.501s19 45.5 19 71.5s-6.33301 49.833 -19 71.5
s-29.834 38.834 -51.501 51.501s-45.5 19 -71.5 19s-49.833 -6.33301 -71.5 -19s-38.834 -29.834 -51.501 -51.501s-19 -45.5 -19 -71.5s6.33301 -49.833 19 -71.5z" />
    <glyph glyph-name="yen" unicode="&#xa5;" 
d="M622 700l-179 -336h94v-104h-161v-50h161v-104h-161v-106h-132v106h-161v104h161v50h-161v104h94l-179 336h150l153 -298h18l153 298h150z" />
    <glyph glyph-name="brokenbar" unicode="&#xa6;" horiz-adv-x="242" 
d="M58 366v440h126v-440h-126zM184 194v-440h-126v440h126z" />
    <glyph glyph-name="section" unicode="&#xa7;" horiz-adv-x="474" 
d="M102 671.5c33.333 28.333 76.6699 42.501 130.003 42.501c57.333 0 104 -15 140 -45s54 -70.333 54 -121v-22h-108v12c0 22 -6.83301 39.833 -20.5 53.5s-34.5 20.5 -62.5 20.5c-22.667 0 -40.5 -5 -53.5 -15s-19.5 -23.667 -19.5 -41c0 -20 8.66699 -35 26 -45
s42.333 -18 75 -24c59.333 -10.667 102.666 -29.334 129.999 -56.001s41 -62.334 41 -107.001c0 -33.333 -6 -62 -18 -86c12 -20.667 18 -45.334 18 -74.001v-8c0 -51.333 -17.167 -92.5 -51.5 -123.5s-81.833 -46.5 -142.5 -46.5c-64.667 0 -115.834 18 -153.501 54
s-56.5 84 -56.5 144v14h108v-12c0 -30.667 8.5 -54.667 25.5 -72s42.167 -26 75.5 -26c56.667 0 85 21.333 85 64c0 20.667 -6.83301 36.334 -20.5 47.001s-37.834 19.334 -72.501 26.001c-58 10.667 -102.333 29.167 -133 55.5s-46 62.833 -46 109.5c0 30 7 57.333 21 82
c-14 22 -21 48 -21 78v6c0 48.667 16.667 87.167 50 115.5zM320.004 309.001c0.666992 1.33301 1 4.99902 1 10.999c0 18.667 -6.5 33.334 -19.5 44.001s-36.5 19 -70.5 25c-19.333 3.33301 -41 9 -65 17c-2 -4 -3 -9.33301 -3 -16c0 -19.333 8.66699 -33.833 26 -43.5
s42 -17.5 74 -23.5c24 -4 43 -8.66699 57 -14z" />
    <glyph glyph-name="dieresis" unicode="&#xa8;" horiz-adv-x="468" 
d="M65.5 702c17 16 38.167 24 63.5 24s46.5 -8 63.5 -24s25.5 -36.667 25.5 -62s-8.5 -46 -25.5 -62s-38.167 -24 -63.5 -24s-46.5 8 -63.5 24s-25.5 36.667 -25.5 62s8.5 46 25.5 62zM275.5 702c17 16 38.167 24 63.5 24s46.5 -8 63.5 -24s25.5 -36.667 25.5 -62
s-8.5 -46 -25.5 -62s-38.167 -24 -63.5 -24s-46.5 8 -63.5 24s-25.5 36.667 -25.5 62s8.5 46 25.5 62z" />
    <glyph glyph-name="copyright" unicode="&#xa9;" horiz-adv-x="724" 
d="M109.5 648.5c34.333 34.333 81.833 51.5 142.5 51.5h220c60.667 0 108.167 -17.167 142.5 -51.5s51.5 -83.833 51.5 -148.5v-300c0 -64.667 -17.167 -114.167 -51.5 -148.5s-81.833 -51.5 -142.5 -51.5h-220c-60.667 0 -108.167 17.167 -142.5 51.5
s-51.5 83.833 -51.5 148.5v300c0 64.667 17.167 114.167 51.5 148.5zM274 96h176c76 0 114 41.333 114 124v260c0 82.667 -38 124 -114 124h-176c-76 0 -114 -41.333 -114 -124v-260c0 -82.667 38 -124 114 -124zM261.5 508.5c25 26.333 59.167 39.502 102.5 39.502
c46 0 80.5 -12.5 103.5 -37.5s34.5 -59.167 34.5 -102.5v-14h-94v20c0 14 -3.66699 24.833 -11 32.5s-18.333 11.5 -33 11.5s-25.667 -3.83301 -33 -11.5s-11 -18.5 -11 -32.5v-126c0 -14 3.66699 -24.833 11 -32.5s18.333 -11.5 33 -11.5s25.667 3.83301 33 11.5
s11 18.5 11 32.5v20h94v-14c0 -43.333 -11.5 -77.5 -34.5 -102.5s-57.5 -37.5 -103.5 -37.5c-43.333 0 -77.5 13.167 -102.5 39.5s-37.5 63.166 -37.5 110.499v94c0 47.333 12.5 84.166 37.5 110.499z" />
    <glyph glyph-name="ordfeminine" unicode="&#xaa;" horiz-adv-x="377" 
d="M65 532.5c24.667 19 56.999 28.5 96.999 28.5h89v17c0 18 -4.83301 32.167 -14.5 42.5s-24.5 15.5 -44.5 15.5c-19.333 0 -34.666 -4.66699 -45.999 -14s-18.666 -21.333 -21.999 -36l-87 27c9.33301 27.333 27.666 50.333 54.999 69s61.666 28 102.999 28
c45.333 0 81.666 -11.833 108.999 -35.5s41 -57.167 41 -100.5v-224h-88v43h-10c-3.33301 -13.333 -12.666 -25.5 -27.999 -36.5s-38 -16.5 -68 -16.5c-35.333 0 -64.666 9.83301 -87.999 29.5s-35 47.167 -35 82.5c0 34.667 12.333 61.5 37 80.5zM135.999 425
c9.33301 -7.33301 22.333 -11 39 -11c23.333 0 41.833 6.5 55.5 19.5s20.5 30.167 20.5 51.5v6h-80c-15.333 0 -27.333 -3.33301 -36 -10s-13 -15.667 -13 -27c0 -12 4.66699 -21.667 14 -29z" />
    <glyph glyph-name="guillemotleft" unicode="&#xab;" horiz-adv-x="780" 
d="M372 490h6v-136l-192 -97v-18l192 -97v-136h-6l-314 176v132zM712 490h6v-136l-192 -97v-18l192 -97v-136h-6l-314 176v132z" />
    <glyph glyph-name="logicalnot" unicode="&#xac;" 
d="M101 407h418v-245h-114v131h-304v114z" />
    <glyph glyph-name="uni00AD" unicode="&#xad;" horiz-adv-x="460" 
d="M82 312h296v-114h-296v114z" />
    <glyph glyph-name="registered" unicode="&#xae;" 
d="M127.5 613.5c18.333 31.667 43.5 56.334 75.5 74.001s67.667 26.5 107 26.5s75 -8.83301 107 -26.5s57.167 -42.334 75.5 -74.001s27.5 -67.5 27.5 -107.5s-9.16699 -75.833 -27.5 -107.5s-43.5 -56.334 -75.5 -74.001s-67.667 -26.5 -107 -26.5s-75 8.83301 -107 26.5
s-57.167 42.334 -75.5 74.001s-27.5 67.5 -27.5 107.5s9.16699 75.833 27.5 107.5zM189.5 385.5c30.333 -30.333 70.5 -45.5 120.5 -45.5s90.167 15.167 120.5 45.5s45.5 70.5 45.5 120.5s-15.167 90.167 -45.5 120.5s-70.5 45.5 -120.5 45.5s-90.167 -15.167 -120.5 -45.5
s-45.5 -70.5 -45.5 -120.5s15.167 -90.167 45.5 -120.5zM378 601c13.333 -12 20.002 -26.666 20.002 -43.999c0 -28 -13.333 -46.667 -40 -56v-6c10.667 -0.666992 18.667 -4.33398 24 -11.001s8 -14.334 8 -23.001v-64h-42v60c0 6.66699 -1.83301 11.834 -5.5 15.501
s-8.83398 5.5 -15.501 5.5h-47v-81h-42v222h85c23.333 0 41.666 -6 54.999 -18zM323.002 516.001c10.667 0 18.834 3.16797 24.501 9.50098s8.5 14.166 8.5 23.499s-2.83301 17 -8.5 23s-13.834 9 -24.501 9h-43v-65h43z" />
    <glyph glyph-name="macron" unicode="&#xaf;" horiz-adv-x="374" 
d="M334 570h-294v102h294v-102z" />
    <glyph glyph-name="degree" unicode="&#xb0;" horiz-adv-x="398" 
d="M64.5 643c13.667 22.667 32.334 40.5 56.001 53.5s49.834 19.5 78.501 19.5s54.834 -6.5 78.501 -19.5s42.334 -30.833 56.001 -53.5s20.5 -48.334 20.5 -77.001s-6.83301 -54.334 -20.5 -77.001s-32.334 -40.5 -56.001 -53.5s-49.834 -19.5 -78.501 -19.5
s-54.834 6.5 -78.501 19.5s-42.334 30.833 -56.001 53.5s-20.5 48.334 -20.5 77.001s6.83301 54.334 20.5 77.001zM159.5 527c10.333 -10 23.5 -15 39.5 -15s29.167 5 39.5 15s15.5 23 15.5 39s-5.16699 29 -15.5 39s-23.5 15 -39.5 15s-29.167 -5 -39.5 -15
s-15.5 -23 -15.5 -39s5.16699 -29 15.5 -39z" />
    <glyph glyph-name="plusminus" unicode="&#xb1;" 
d="M101 407h152v152h114v-152h152v-114h-152v-131h-114v131h-152v114zM101 114h418v-114h-418v114z" />
    <glyph glyph-name="uni00B2" unicode="&#xb2;" horiz-adv-x="348" 
d="M286 679c28 -22 42 -51.334 42 -88.001c0 -35.333 -11.5 -62 -34.5 -80s-57.833 -32 -104.5 -42c-24 -4.66699 -41.667 -9.83398 -53 -15.501s-17.333 -13.5 -18 -23.5h208v-80h-308v44c0 40 10.5 71.333 31.5 94s54.167 39.334 99.5 50.001c28.667 6.66699 49 14 61 22
s18 18.667 18 32c0 12.667 -4.66699 22.5 -14 29.5s-21.333 10.5 -36 10.5c-16.667 0 -30.5 -4.66699 -41.5 -14s-16.5 -22.666 -16.5 -39.999h-98c0.666992 42.667 15.5 75.667 44.5 99s66.5 35 112.5 35c43.333 0 79 -11 107 -33z" />
    <glyph glyph-name="uni00B3" unicode="&#xb3;" horiz-adv-x="348" 
d="M328 632l-102 -61v-10c30 -1.33301 54.833 -10.333 74.5 -27s29.5 -40.334 29.5 -71.001c0 -36 -14.667 -65.833 -44 -89.5s-66.333 -35.5 -111 -35.5c-47.333 0 -85.5 11.833 -114.5 35.5s-44.5 56.834 -46.5 99.501h98c1.33301 -15.333 7.5 -28 18.5 -38
s24.833 -15 41.5 -15c17.333 0 31.333 4.66699 42 14s16 20.333 16 33c0 28.667 -19.333 43 -58 43h-66v62l82 48h-168v80h308v-68z" />
    <glyph glyph-name="acute" unicode="&#xb4;" horiz-adv-x="276" 
d="M236 700l-88 -130h-108l54 130h142z" />
    <glyph glyph-name="uni00B5" unicode="&#xb5;" horiz-adv-x="594" 
d="M182 496v-288c0 -34.667 9.66699 -61.667 29 -81s47 -29 83 -29c40 0 70.667 12 92 36s32 58 32 102v260h126v-496h-124v74h-14c-8 -25.333 -22 -46.333 -42 -63s-45 -25 -75 -25c-24 0 -42.5 3 -55.5 9s-25.5 14.333 -37.5 25h-14v-220h-126v696h126z" />
    <glyph glyph-name="paragraph" unicode="&#xb6;" horiz-adv-x="606" 
d="M44 603c18.667 30.667 44.5 54.5 77.5 71.5s70.5 25.5 112.5 25.5h314v-700h-108v598h-78v-598h-108v284h-26c-40.667 0 -77.167 8.66699 -109.5 26s-57.5 41.5 -75.5 72.5s-27 65.5 -27 103.5v12c0 39.333 9.33301 74.333 28 105zM152 414.5
c18.667 -19 42 -28.5 70 -28.5h32v212h-32c-28.667 0 -52.167 -9.5 -70.5 -28.5s-27.5 -43.833 -27.5 -74.5v-6c0 -30.667 9.33301 -55.5 28 -74.5z" />
    <glyph glyph-name="periodcentered" unicode="&#xb7;" horiz-adv-x="282" 
d="M73 418.5c18 17.667 40.667 26.5 68 26.5s50 -8.83301 68 -26.5s27 -40.5 27 -68.5s-9 -50.833 -27 -68.5s-40.667 -26.5 -68 -26.5s-50 8.83301 -68 26.5s-27 40.5 -27 68.5s9 50.833 27 68.5z" />
    <glyph glyph-name="cedilla" unicode="&#xb8;" horiz-adv-x="301" 
d="M120 -58h12.001c4.66699 6 11.5 11.167 20.5 15.5s19.5 6.5 31.5 6.5c20.667 0 38.667 -6.83301 54 -20.5s23 -33.5 23 -59.5c0 -30 -10.333 -53.833 -31 -71.5s-47 -26.5 -79 -26.5c-18 0 -33.333 1.66699 -46 5s-25.334 8.33301 -38.001 15l26 68
c15.333 -9.33301 32 -14 50 -14c10 0 18.167 2.33301 24.5 7s9.5 11 9.5 19c0 6 -1.83301 11.167 -5.5 15.5s-8.5 6.5 -14.5 6.5c-11.333 0 -18 -4.66699 -20 -14h-97v12l27 126h70z" />
    <glyph glyph-name="uni00B9" unicode="&#xb9;" horiz-adv-x="250" 
d="M220 700v-350h-100v246h-10l-18 -52h-88v10l65 146h151z" />
    <glyph glyph-name="ordmasculine" unicode="&#xba;" horiz-adv-x="408" 
d="M73.5 661c33 32.667 76.5 49 130.5 49s97.5 -16.333 130.5 -49s49.5 -78 49.5 -136s-16.5 -103.333 -49.5 -136s-76.5 -49 -130.5 -49s-97.5 16.333 -130.5 49s-49.5 78 -49.5 136s16.5 103.333 49.5 136zM141.5 444.5c15.667 -19 36.5 -28.5 62.5 -28.5
s46.833 9.5 62.5 28.5s23.5 45.833 23.5 80.5s-7.83301 61.5 -23.5 80.5s-36.5 28.5 -62.5 28.5s-46.833 -9.5 -62.5 -28.5s-23.5 -45.833 -23.5 -80.5s7.83301 -61.5 23.5 -80.5z" />
    <glyph glyph-name="guillemotright" unicode="&#xbb;" horiz-adv-x="780" 
d="M378 182l-314 -176h-6v136l192 97v18l-192 97v136h6l314 -176v-132zM718 182l-314 -176h-6v136l192 97v18l-192 97v136h6l314 -176v-132z" />
    <glyph glyph-name="onequarter" unicode="&#xbc;" horiz-adv-x="732" 
d="M220 700v-350h-100v246h-10l-18 -52h-88v10l65 146h151zM514 716l103 -77l-203 -226l-64 48zM118 -16l-103 77l203 226l64 -48zM642 350v-203h60v-76h-60v-71h-100v71h-200v70l138 209h162zM446 147h96v131h-9z" />
    <glyph glyph-name="onehalf" unicode="&#xbd;" horiz-adv-x="720" 
d="M220 700v-350h-100v246h-10l-18 -52h-88v10l65 146h151zM514 716l103 -77l-203 -226l-64 48zM118 -16l-103 77l203 226l64 -48zM648 329c28 -22 42 -51.334 42 -88.001c0 -35.333 -11.5 -62 -34.5 -80s-57.833 -32 -104.5 -42c-24 -4.66699 -41.667 -9.83398 -53 -15.501
s-17.333 -13.5 -18 -23.5h208v-80h-308v44c0 40 10.5 71.333 31.5 94s54.167 39.334 99.5 50.001c28.667 6.66699 49 14 61 22s18 18.667 18 32c0 12.667 -4.66699 22.5 -14 29.5s-21.333 10.5 -36 10.5c-16.667 0 -30.5 -4.66699 -41.5 -14s-16.5 -22.666 -16.5 -39.999
h-98c0.666992 42.667 15.5 75.667 44.5 99s66.5 35 112.5 35c43.333 0 79 -11 107 -33z" />
    <glyph glyph-name="threequarters" unicode="&#xbe;" horiz-adv-x="798" 
d="M328 632l-102 -61v-10c30 -1.33301 54.833 -10.333 74.5 -27s29.5 -40.334 29.5 -71.001c0 -36 -14.667 -65.833 -44 -89.5s-66.333 -35.5 -111 -35.5c-47.333 0 -85.5 11.833 -114.5 35.5s-44.5 56.834 -46.5 99.501h98c1.33301 -15.333 7.5 -28 18.5 -38
s24.833 -15 41.5 -15c17.333 0 31.333 4.66699 42 14s16 20.333 16 33c0 28.667 -19.333 43 -58 43h-66v62l82 48h-168v80h308v-68zM592 716l103 -77l-203 -226l-64 48zM196 -16l-103 77l203 226l64 -48zM720 350v-203h60v-76h-60v-71h-100v71h-200v70l138 209h162zM524 147
h96v131h-9z" />
    <glyph glyph-name="questiondown" unicode="&#xbf;" horiz-adv-x="592" 
d="M241 483.5c18 17.667 40.667 26.5 68 26.5s50 -8.83301 68 -26.5s27 -40.5 27 -68.5s-9 -50.833 -27 -68.5s-40.667 -26.5 -68 -26.5s-50 8.83301 -68 26.5s-27 40.5 -27 68.5s9 50.833 27 68.5zM518 -111.5c-22.667 -33.667 -53.666 -59.5 -92.999 -77.5
s-83 -27 -131 -27c-47.333 0 -89.833 8.66699 -127.5 26s-67.167 41.833 -88.5 73.5s-32 67.834 -32 108.501v4c0 53.333 13.333 94.666 40 123.999s62.334 53.666 107.001 72.999l18 8c12 5.33301 20.333 11.833 25 19.5s7 18.834 7 33.501v24h132v-34
c0 -34.667 -6.83301 -63 -20.5 -85s-35.834 -40 -66.501 -54l-18 -8c-32.667 -14.667 -56.167 -29 -70.5 -43s-21.5 -32.667 -21.5 -56c0 -27.333 10.667 -49.166 32 -65.499s49.333 -24.5 84 -24.5c37.333 0 67.666 9 90.999 27s35 43.667 35 77v24h132v-30
c0 -44.667 -11.333 -83.834 -34 -117.501z" />
    <glyph glyph-name="Agrave" unicode="&#xc0;" horiz-adv-x="602" 
d="M404 700l196 -700h-135l-42 156h-244l-42 -156h-135l196 700h206zM391 276l-85 316h-10l-85 -316h180zM375 760h-108l-88 120h142z" />
    <glyph glyph-name="Aacute" unicode="&#xc1;" horiz-adv-x="602" 
d="M404 700l196 -700h-135l-42 156h-244l-42 -156h-135l196 700h206zM391 276l-85 316h-10l-85 -316h180zM419 880l-88 -120h-108l54 120h142z" />
    <glyph glyph-name="Acircumflex" unicode="&#xc2;" horiz-adv-x="602" 
d="M404 700l196 -700h-135l-42 156h-244l-42 -156h-135l196 700h206zM391 276l-85 316h-10l-85 -316h180zM305 820h-12l-43 -60h-123l94 120h156l94 -120h-123z" />
    <glyph glyph-name="Atilde" unicode="&#xc3;" horiz-adv-x="602" 
d="M404 700l196 -700h-135l-42 156h-244l-42 -156h-135l196 700h206zM391 276l-85 316h-10l-85 -316h180zM193 900.5c13.333 7 28 10.5 44 10.5c29.333 0 55.333 -12.667 78 -38c1.33301 -1.33301 4.16602 -4.5 8.49902 -9.5s8.83301 -8.66699 13.5 -11s10 -3.5 16 -3.5
c8.66699 0 15.834 1.83301 21.501 5.5s11.5 9.83398 17.5 18.501l30 38l77 -61l-56 -72c-12 -15.333 -24.5 -26.5 -37.5 -33.5s-27.833 -10.5 -44.5 -10.5c-29.333 0 -55.333 12.667 -78 38c-1.33301 1.33301 -4.16602 4.5 -8.49902 9.5s-8.83301 8.66699 -13.5 11
s-10 3.5 -16 3.5c-8.66699 0 -15.834 -1.83301 -21.501 -5.5s-11.5 -9.83398 -17.5 -18.501l-30 -38l-77 61l56 72c12 15.333 24.667 26.5 38 33.5z" />
    <glyph glyph-name="Adieresis" unicode="&#xc4;" horiz-adv-x="602" 
d="M404 700l196 -700h-135l-42 156h-244l-42 -156h-135l196 700h206zM391 276l-85 316h-10l-85 -316h180zM127.5 884c17 16 38.167 24 63.5 24s46.5 -8 63.5 -24s25.5 -36.667 25.5 -62s-8.5 -46 -25.5 -62s-38.167 -24 -63.5 -24s-46.5 8 -63.5 24s-25.5 36.667 -25.5 62
s8.5 46 25.5 62zM343.5 884c17 16 38.167 24 63.5 24s46.5 -8 63.5 -24s25.5 -36.667 25.5 -62s-8.5 -46 -25.5 -62s-38.167 -24 -63.5 -24s-46.5 8 -63.5 24s-25.5 36.667 -25.5 62s8.5 46 25.5 62z" />
    <glyph glyph-name="Aring" unicode="&#xc5;" horiz-adv-x="602" 
d="M404 700l196 -700h-135l-42 156h-244l-42 -156h-135l196 700h206zM391 276l-85 316h-10l-85 -316h180zM222 914c20.667 20 46.3311 30 76.998 30s56.334 -9.83301 77.001 -29.5s31 -44.5 31 -74.5c0 -30.667 -10.667 -55.667 -32 -75s-46.666 -29 -75.999 -29
c-30 0 -55.5 10 -76.5 30s-31.5 44.667 -31.5 74s10.333 54 31 74zM277.497 818.5c5.66699 -5.66699 12.834 -8.5 21.501 -8.5s15.834 2.83301 21.501 8.5s8.5 12.834 8.5 21.501s-2.83301 15.834 -8.5 21.501s-12.834 8.5 -21.501 8.5s-15.834 -2.83301 -21.501 -8.5
s-8.5 -12.834 -8.5 -21.501s2.83301 -15.834 8.5 -21.501z" />
    <glyph glyph-name="AE" unicode="&#xc6;" horiz-adv-x="547" 
d="M397 124h122v-124h-254v154h-98l-32 -154h-133l158 700h353v-124h-116v-163h90v-124h-90v-165zM265 276v300h-10l-63 -300h73z" />
    <glyph glyph-name="Ccedilla" unicode="&#xc7;" horiz-adv-x="622" 
d="M464 444l0.000976562 20.002c0 37.333 -12.833 68.666 -38.5 93.999s-61.5 38 -107.5 38c-48 0 -86 -14.333 -114 -43s-42 -67.667 -42 -117v-172c0 -49.333 14 -88.333 42 -117s66 -43 114 -43c46 0 81.833 12.667 107.5 38s38.5 56.666 38.5 93.999v28h132v-26
c0 -72 -21.667 -130.5 -65 -175.5s-103.666 -70.167 -180.999 -75.5l-9 -45h12c4.66699 6 11.5 11.167 20.5 15.5s19.5 6.5 31.5 6.5c20.667 0 38.667 -6.83301 54 -20.5s23 -33.5 23 -59.5c0 -30 -10.333 -53.833 -31 -71.5s-47 -26.5 -79 -26.5
c-18 0 -33.333 1.66699 -46 5s-25.334 8.33301 -38.001 15l26 68c15.333 -9.33301 32 -14 50 -14c10 0 18.167 2.33301 24.5 7s9.5 11 9.5 19c0 6 -1.83301 11.167 -5.5 15.5s-8.5 6.5 -14.5 6.5c-11.333 0 -18 -4.66699 -20 -14h-97v12l18 82c-78 7.33301 -139 35 -183 83
s-66 113 -66 195v168c0 88.667 25.667 157.5 77 206.5s121.666 73.5 210.999 73.5c58 0 107.833 -10.333 149.5 -31s73.5 -50 95.5 -88s33 -82.333 33 -133v-18h-132z" />
    <glyph glyph-name="Egrave" unicode="&#xc8;" horiz-adv-x="552" 
d="M518 700v-120h-328v-167h300v-120h-300v-173h334v-120h-466v700h460zM369 760h-108l-88 120h142z" />
    <glyph glyph-name="Eacute" unicode="&#xc9;" horiz-adv-x="552" 
d="M518 700v-120h-328v-167h300v-120h-300v-173h334v-120h-466v700h460zM413 880l-88 -120h-108l54 120h142z" />
    <glyph glyph-name="Ecircumflex" unicode="&#xca;" horiz-adv-x="552" 
d="M518 700v-120h-328v-167h300v-120h-300v-173h334v-120h-466v700h460zM299 820h-12l-43 -60h-123l94 120h156l94 -120h-123z" />
    <glyph glyph-name="Edieresis" unicode="&#xcb;" horiz-adv-x="552" 
d="M518 700v-120h-328v-167h300v-120h-300v-173h334v-120h-466v700h460zM121.5 884c17 16 38.167 24 63.5 24s46.5 -8 63.5 -24s25.5 -36.667 25.5 -62s-8.5 -46 -25.5 -62s-38.167 -24 -63.5 -24s-46.5 8 -63.5 24s-25.5 36.667 -25.5 62s8.5 46 25.5 62zM337.5 884
c17 16 38.167 24 63.5 24s46.5 -8 63.5 -24s25.5 -36.667 25.5 -62s-8.5 -46 -25.5 -62s-38.167 -24 -63.5 -24s-46.5 8 -63.5 24s-25.5 36.667 -25.5 62s8.5 46 25.5 62z" />
    <glyph glyph-name="Igrave" unicode="&#xcc;" horiz-adv-x="248" 
d="M190 700v-700h-132v700h132zM200 760h-108l-88 120h142z" />
    <glyph glyph-name="Iacute" unicode="&#xcd;" horiz-adv-x="248" 
d="M190 700v-700h-132v700h132zM244 880l-88 -120h-108l54 120h142z" />
    <glyph glyph-name="Icircumflex" unicode="&#xce;" horiz-adv-x="248" 
d="M190 700v-700h-132v700h132zM130 820h-12l-43 -60h-123l94 120h156l94 -120h-123z" />
    <glyph glyph-name="Idieresis" unicode="&#xcf;" horiz-adv-x="248" 
d="M190 700v-700h-132v700h132zM-47.5 884c17 16 38.167 24 63.5 24s46.5 -8 63.5 -24s25.5 -36.667 25.5 -62s-8.5 -46 -25.5 -62s-38.167 -24 -63.5 -24s-46.5 8 -63.5 24s-25.5 36.667 -25.5 62s8.5 46 25.5 62zM168.5 884c17 16 38.167 24 63.5 24s46.5 -8 63.5 -24
s25.5 -36.667 25.5 -62s-8.5 -46 -25.5 -62s-38.167 -24 -63.5 -24s-46.5 8 -63.5 24s-25.5 36.667 -25.5 62s8.5 46 25.5 62z" />
    <glyph glyph-name="Eth" unicode="&#xd0;" horiz-adv-x="616" 
d="M512.5 628.5c49 -47.667 73.5 -118.5 73.5 -212.5v-132c0 -94 -24.5 -164.833 -73.5 -212.5s-120.5 -71.5 -214.5 -71.5h-240v296h-82v110h82v294h240c94 0 165.5 -23.833 214.5 -71.5zM454 420c0 106.667 -51.333 160 -154 160h-110v-174h134v-110h-134v-176h110
c102.667 0 154 53.333 154 160v140z" />
    <glyph glyph-name="Ntilde" unicode="&#xd1;" horiz-adv-x="654" 
d="M285 700l169 -566h10v566h132v-700h-227l-169 566h-10v-566h-132v700h227zM220 900.5c13.333 7 28 10.5 44 10.5c29.333 0 55.333 -12.667 78 -38c1.33301 -1.33301 4.16602 -4.5 8.49902 -9.5s8.83301 -8.66699 13.5 -11s10 -3.5 16 -3.5
c8.66699 0 15.834 1.83301 21.501 5.5s11.5 9.83398 17.5 18.501l30 38l77 -61l-56 -72c-12 -15.333 -24.5 -26.5 -37.5 -33.5s-27.833 -10.5 -44.5 -10.5c-29.333 0 -55.333 12.667 -78 38c-1.33301 1.33301 -4.16602 4.5 -8.49902 9.5s-8.83301 8.66699 -13.5 11
s-10 3.5 -16 3.5c-8.66699 0 -15.834 -1.83301 -21.501 -5.5s-11.5 -9.83398 -17.5 -18.501l-30 -38l-77 61l56 72c12 15.333 24.667 26.5 38 33.5z" />
    <glyph glyph-name="Ograve" unicode="&#xd2;" horiz-adv-x="636" 
d="M107 640.5c51.333 49 121.666 73.5 210.999 73.5s159.666 -24.5 210.999 -73.5s77 -117.833 77 -206.5v-168c0 -88.667 -25.667 -157.5 -77 -206.5s-121.666 -73.5 -210.999 -73.5s-159.666 24.5 -210.999 73.5s-77 117.833 -77 206.5v168
c0 88.667 25.667 157.5 77 206.5zM203.5 146.5c27.667 -28.333 65.834 -42.5 114.501 -42.5s86.834 14.167 114.501 42.5s41.5 66.833 41.5 115.5v176c0 48.667 -13.833 87.167 -41.5 115.5s-65.834 42.5 -114.501 42.5s-86.834 -14.167 -114.501 -42.5
s-41.5 -66.833 -41.5 -115.5v-176c0 -48.667 13.833 -87.167 41.5 -115.5zM394 760h-108l-88 120h142z" />
    <glyph glyph-name="Oacute" unicode="&#xd3;" horiz-adv-x="636" 
d="M107 640.5c51.333 49 121.666 73.5 210.999 73.5s159.666 -24.5 210.999 -73.5s77 -117.833 77 -206.5v-168c0 -88.667 -25.667 -157.5 -77 -206.5s-121.666 -73.5 -210.999 -73.5s-159.666 24.5 -210.999 73.5s-77 117.833 -77 206.5v168
c0 88.667 25.667 157.5 77 206.5zM203.5 146.5c27.667 -28.333 65.834 -42.5 114.501 -42.5s86.834 14.167 114.501 42.5s41.5 66.833 41.5 115.5v176c0 48.667 -13.833 87.167 -41.5 115.5s-65.834 42.5 -114.501 42.5s-86.834 -14.167 -114.501 -42.5
s-41.5 -66.833 -41.5 -115.5v-176c0 -48.667 13.833 -87.167 41.5 -115.5zM438 880l-88 -120h-108l54 120h142z" />
    <glyph glyph-name="Ocircumflex" unicode="&#xd4;" horiz-adv-x="636" 
d="M107 640.5c51.333 49 121.666 73.5 210.999 73.5s159.666 -24.5 210.999 -73.5s77 -117.833 77 -206.5v-168c0 -88.667 -25.667 -157.5 -77 -206.5s-121.666 -73.5 -210.999 -73.5s-159.666 24.5 -210.999 73.5s-77 117.833 -77 206.5v168
c0 88.667 25.667 157.5 77 206.5zM203.5 146.5c27.667 -28.333 65.834 -42.5 114.501 -42.5s86.834 14.167 114.501 42.5s41.5 66.833 41.5 115.5v176c0 48.667 -13.833 87.167 -41.5 115.5s-65.834 42.5 -114.501 42.5s-86.834 -14.167 -114.501 -42.5
s-41.5 -66.833 -41.5 -115.5v-176c0 -48.667 13.833 -87.167 41.5 -115.5zM324 820h-12l-43 -60h-123l94 120h156l94 -120h-123z" />
    <glyph glyph-name="Otilde" unicode="&#xd5;" horiz-adv-x="636" 
d="M107 640.5c51.333 49 121.666 73.5 210.999 73.5s159.666 -24.5 210.999 -73.5s77 -117.833 77 -206.5v-168c0 -88.667 -25.667 -157.5 -77 -206.5s-121.666 -73.5 -210.999 -73.5s-159.666 24.5 -210.999 73.5s-77 117.833 -77 206.5v168
c0 88.667 25.667 157.5 77 206.5zM203.5 146.5c27.667 -28.333 65.834 -42.5 114.501 -42.5s86.834 14.167 114.501 42.5s41.5 66.833 41.5 115.5v176c0 48.667 -13.833 87.167 -41.5 115.5s-65.834 42.5 -114.501 42.5s-86.834 -14.167 -114.501 -42.5
s-41.5 -66.833 -41.5 -115.5v-176c0 -48.667 13.833 -87.167 41.5 -115.5zM212 900.5c13.333 7 28 10.5 44 10.5c29.333 0 55.333 -12.667 78 -38c1.33301 -1.33301 4.16602 -4.5 8.49902 -9.5s8.83301 -8.66699 13.5 -11s10 -3.5 16 -3.5
c8.66699 0 15.834 1.83301 21.501 5.5s11.5 9.83398 17.5 18.501l30 38l77 -61l-56 -72c-12 -15.333 -24.5 -26.5 -37.5 -33.5s-27.833 -10.5 -44.5 -10.5c-29.333 0 -55.333 12.667 -78 38c-1.33301 1.33301 -4.16602 4.5 -8.49902 9.5s-8.83301 8.66699 -13.5 11
s-10 3.5 -16 3.5c-8.66699 0 -15.834 -1.83301 -21.501 -5.5s-11.5 -9.83398 -17.5 -18.501l-30 -38l-77 61l56 72c12 15.333 24.667 26.5 38 33.5z" />
    <glyph glyph-name="Odieresis" unicode="&#xd6;" horiz-adv-x="636" 
d="M107 640.5c51.333 49 121.666 73.5 210.999 73.5s159.666 -24.5 210.999 -73.5s77 -117.833 77 -206.5v-168c0 -88.667 -25.667 -157.5 -77 -206.5s-121.666 -73.5 -210.999 -73.5s-159.666 24.5 -210.999 73.5s-77 117.833 -77 206.5v168
c0 88.667 25.667 157.5 77 206.5zM203.5 146.5c27.667 -28.333 65.834 -42.5 114.501 -42.5s86.834 14.167 114.501 42.5s41.5 66.833 41.5 115.5v176c0 48.667 -13.833 87.167 -41.5 115.5s-65.834 42.5 -114.501 42.5s-86.834 -14.167 -114.501 -42.5
s-41.5 -66.833 -41.5 -115.5v-176c0 -48.667 13.833 -87.167 41.5 -115.5zM146.5 884c17 16 38.167 24 63.5 24s46.5 -8 63.5 -24s25.5 -36.667 25.5 -62s-8.5 -46 -25.5 -62s-38.167 -24 -63.5 -24s-46.5 8 -63.5 24s-25.5 36.667 -25.5 62s8.5 46 25.5 62zM362.5 884
c17 16 38.167 24 63.5 24s46.5 -8 63.5 -24s25.5 -36.667 25.5 -62s-8.5 -46 -25.5 -62s-38.167 -24 -63.5 -24s-46.5 8 -63.5 24s-25.5 36.667 -25.5 62s8.5 46 25.5 62z" />
    <glyph glyph-name="multiply" unicode="&#xd7;" 
d="M177 562l133 -131l133 131l81 -81l-132 -131l132 -131l-81 -81l-133 131l-133 -131l-81 81l132 131l-132 131z" />
    <glyph glyph-name="Oslash" unicode="&#xd8;" horiz-adv-x="636" 
d="M575.5 577.5c20.333 -40.333 30.5 -88.168 30.5 -143.501v-168c0 -88.667 -25.667 -157.5 -77 -206.5s-121.666 -73.5 -210.999 -73.5c-22 0 -41 1.33301 -57 4l-27 -83l-110 34l28 85c-39.333 22.667 -69.5 54.334 -90.5 95.001s-31.5 89 -31.5 145v168
c0 88.667 25.667 157.5 77 206.5s121.666 73.5 210.999 73.5c24 0 44.333 -1.33301 61 -4l24 71l109 -34l-25 -75c38.667 -22.667 68.167 -54.167 88.5 -94.5zM195 155.998l146.002 439c-4.66699 0.666992 -12.334 1 -23.001 1c-48.667 0 -86.834 -14.167 -114.501 -42.5
s-41.5 -66.833 -41.5 -115.5v-176c0 -42.667 11 -78 33 -106zM474.002 437.998c0 40.667 -10.001 74.667 -30.001 102l-145 -435c4 -0.666992 10.333 -1 19 -1c48.667 0 86.834 14.167 114.501 42.5s41.5 66.833 41.5 115.5v176z" />
    <glyph glyph-name="Ugrave" unicode="&#xd9;" horiz-adv-x="656" 
d="M186 242c0 -43.333 12.333 -77.166 37 -101.499s59.667 -36.5 105 -36.5s80.333 12.167 105 36.5s37 58.166 37 101.499v458h132v-454c0 -80.667 -24.333 -144.167 -73 -190.5s-115.667 -69.5 -201 -69.5s-152.333 23.167 -201 69.5s-73 109.833 -73 190.5v454h132v-458z
M404 760h-108l-88 120h142z" />
    <glyph glyph-name="Uacute" unicode="&#xda;" horiz-adv-x="656" 
d="M186 242c0 -43.333 12.333 -77.166 37 -101.499s59.667 -36.5 105 -36.5s80.333 12.167 105 36.5s37 58.166 37 101.499v458h132v-454c0 -80.667 -24.333 -144.167 -73 -190.5s-115.667 -69.5 -201 -69.5s-152.333 23.167 -201 69.5s-73 109.833 -73 190.5v454h132v-458z
M448 880l-88 -120h-108l54 120h142z" />
    <glyph glyph-name="Ucircumflex" unicode="&#xdb;" horiz-adv-x="656" 
d="M186 242c0 -43.333 12.333 -77.166 37 -101.499s59.667 -36.5 105 -36.5s80.333 12.167 105 36.5s37 58.166 37 101.499v458h132v-454c0 -80.667 -24.333 -144.167 -73 -190.5s-115.667 -69.5 -201 -69.5s-152.333 23.167 -201 69.5s-73 109.833 -73 190.5v454h132v-458z
M334 820h-12l-43 -60h-123l94 120h156l94 -120h-123z" />
    <glyph glyph-name="Udieresis" unicode="&#xdc;" horiz-adv-x="656" 
d="M186 242c0 -43.333 12.333 -77.166 37 -101.499s59.667 -36.5 105 -36.5s80.333 12.167 105 36.5s37 58.166 37 101.499v458h132v-454c0 -80.667 -24.333 -144.167 -73 -190.5s-115.667 -69.5 -201 -69.5s-152.333 23.167 -201 69.5s-73 109.833 -73 190.5v454h132v-458z
M156.5 884c17 16 38.167 24 63.5 24s46.5 -8 63.5 -24s25.5 -36.667 25.5 -62s-8.5 -46 -25.5 -62s-38.167 -24 -63.5 -24s-46.5 8 -63.5 24s-25.5 36.667 -25.5 62s8.5 46 25.5 62zM372.5 884c17 16 38.167 24 63.5 24s46.5 -8 63.5 -24s25.5 -36.667 25.5 -62
s-8.5 -46 -25.5 -62s-38.167 -24 -63.5 -24s-46.5 8 -63.5 24s-25.5 36.667 -25.5 62s8.5 46 25.5 62z" />
    <glyph glyph-name="Yacute" unicode="&#xdd;" horiz-adv-x="612" 
d="M142 700l159 -310h10l159 310h148l-246 -453v-247h-132v247l-246 453h148zM426 880l-88 -120h-108l54 120h142z" />
    <glyph glyph-name="Thorn" unicode="&#xde;" horiz-adv-x="582" 
d="M190 582h156c44 0 82.833 -9.16699 116.5 -27.5s60 -44.333 79 -78s28.5 -72.5 28.5 -116.5s-9.66699 -82.833 -29 -116.5s-46 -59.667 -80 -78s-72.333 -27.5 -115 -27.5h-156v-138h-132v700h132v-118zM333 262c31.333 0 56.666 8.83301 75.999 26.5s29 41.5 29 71.5
s-9.66699 53.833 -29 71.5s-44.666 26.5 -75.999 26.5h-143v-196h143z" />
    <glyph glyph-name="germandbls" unicode="&#xdf;" horiz-adv-x="621" 
d="M83.5 582.5c22.333 43 53.5029 75.666 93.5029 97.999s86.333 33.5 139 33.5c40.667 0 77.5 -7.16699 110.5 -21.5s58.833 -34.333 77.5 -60s28 -54.167 28 -85.5c0 -39.333 -9.33301 -71.333 -28 -96s-44.667 -47.667 -78 -69c-11.333 -7.33301 -17 -14.666 -17 -21.999
c0 -9.33301 8.66699 -17 26 -23l25 -9c47.333 -16.667 83.666 -37.834 108.999 -63.501s38 -61.167 38 -106.5c0 -32.667 -8 -62 -24 -88s-39.167 -46.5 -69.5 -61.5s-66.166 -22.5 -107.499 -22.5c-58 0 -104.333 13.833 -139 41.5s-57.334 60.834 -68.001 99.501l114 37
c5.33301 -23.333 15.666 -41.833 30.999 -55.5s36 -20.5 62 -20.5c23.333 0 42 6.66699 56 20s21 30.333 21 51c0 18.667 -6.16699 33.334 -18.5 44.001s-31.5 20.667 -57.5 30l-42 15c-56.667 20 -85 53 -85 99c0 22 5.16699 40.5 15.5 55.5s26.833 30.833 49.5 47.5
c19.333 14 34.666 28.167 45.999 42.5s17 31.166 17 50.499s-8.66699 35.333 -26 48s-39.333 19 -66 19c-38 0 -70.833 -14.333 -98.5 -43s-41.5 -73 -41.5 -133v-434h-126v430c0 58.667 11.167 109.5 33.5 152.5z" />
    <glyph glyph-name="agrave" unicode="&#xe0;" horiz-adv-x="532" 
d="M124.5 471c36.333 26 84.835 39 145.502 39c66 0 117.833 -16.5 155.5 -49.5s56.5 -80.167 56.5 -141.5v-319h-120v58h-14c-7.33301 -17.333 -21.5 -33.666 -42.5 -48.999s-51.5 -23 -91.5 -23c-52.667 0 -96.167 14.167 -130.5 42.5s-51.5 67.166 -51.5 116.499
s17.5 87.5 52.5 114.5s81.5 40.5 139.5 40.5h136v28c0 24.667 -7.66699 44.5 -23 59.5s-38.333 22.5 -69 22.5c-30 0 -53.333 -7.16699 -70 -21.5s-27.334 -33.5 -32.001 -57.5l-116 39c13.333 41.333 38.166 75 74.499 101zM179.502 104.5
c14.333 -11 34.5 -16.5 60.5 -16.5c35.333 0 64.166 10.167 86.499 30.5s33.5 46.833 33.5 79.5v8h-127c-23.333 0 -41.666 -5.33301 -54.999 -16s-20 -24.667 -20 -42c0 -18 7.16699 -32.5 21.5 -43.5zM349.002 570h-108l-88 130h142z" />
    <glyph glyph-name="aacute" unicode="&#xe1;" horiz-adv-x="532" 
d="M124.5 471c36.333 26 84.835 39 145.502 39c66 0 117.833 -16.5 155.5 -49.5s56.5 -80.167 56.5 -141.5v-319h-120v58h-14c-7.33301 -17.333 -21.5 -33.666 -42.5 -48.999s-51.5 -23 -91.5 -23c-52.667 0 -96.167 14.167 -130.5 42.5s-51.5 67.166 -51.5 116.499
s17.5 87.5 52.5 114.5s81.5 40.5 139.5 40.5h136v28c0 24.667 -7.66699 44.5 -23 59.5s-38.333 22.5 -69 22.5c-30 0 -53.333 -7.16699 -70 -21.5s-27.334 -33.5 -32.001 -57.5l-116 39c13.333 41.333 38.166 75 74.499 101zM179.502 104.5
c14.333 -11 34.5 -16.5 60.5 -16.5c35.333 0 64.166 10.167 86.499 30.5s33.5 46.833 33.5 79.5v8h-127c-23.333 0 -41.666 -5.33301 -54.999 -16s-20 -24.667 -20 -42c0 -18 7.16699 -32.5 21.5 -43.5zM393.002 700l-88 -130h-108l54 130h142z" />
    <glyph glyph-name="acircumflex" unicode="&#xe2;" horiz-adv-x="532" 
d="M124.5 471c36.333 26 84.835 39 145.502 39c66 0 117.833 -16.5 155.5 -49.5s56.5 -80.167 56.5 -141.5v-319h-120v58h-14c-7.33301 -17.333 -21.5 -33.666 -42.5 -48.999s-51.5 -23 -91.5 -23c-52.667 0 -96.167 14.167 -130.5 42.5s-51.5 67.166 -51.5 116.499
s17.5 87.5 52.5 114.5s81.5 40.5 139.5 40.5h136v28c0 24.667 -7.66699 44.5 -23 59.5s-38.333 22.5 -69 22.5c-30 0 -53.333 -7.16699 -70 -21.5s-27.334 -33.5 -32.001 -57.5l-116 39c13.333 41.333 38.166 75 74.499 101zM179.502 104.5
c14.333 -11 34.5 -16.5 60.5 -16.5c35.333 0 64.166 10.167 86.499 30.5s33.5 46.833 33.5 79.5v8h-127c-23.333 0 -41.666 -5.33301 -54.999 -16s-20 -24.667 -20 -42c0 -18 7.16699 -32.5 21.5 -43.5zM279.002 634h-12l-43 -64h-123l94 130h156l94 -130h-123z" />
    <glyph glyph-name="atilde" unicode="&#xe3;" horiz-adv-x="532" 
d="M124.5 471c36.333 26 84.835 39 145.502 39c66 0 117.833 -16.5 155.5 -49.5s56.5 -80.167 56.5 -141.5v-319h-120v58h-14c-7.33301 -17.333 -21.5 -33.666 -42.5 -48.999s-51.5 -23 -91.5 -23c-52.667 0 -96.167 14.167 -130.5 42.5s-51.5 67.166 -51.5 116.499
s17.5 87.5 52.5 114.5s81.5 40.5 139.5 40.5h136v28c0 24.667 -7.66699 44.5 -23 59.5s-38.333 22.5 -69 22.5c-30 0 -53.333 -7.16699 -70 -21.5s-27.334 -33.5 -32.001 -57.5l-116 39c13.333 41.333 38.166 75 74.499 101zM179.502 104.5
c14.333 -11 34.5 -16.5 60.5 -16.5c35.333 0 64.166 10.167 86.499 30.5s33.5 46.833 33.5 79.5v8h-127c-23.333 0 -41.666 -5.33301 -54.999 -16s-20 -24.667 -20 -42c0 -18 7.16699 -32.5 21.5 -43.5zM215.002 733c26 0 50.667 -12.667 74 -38
c1.33301 -1.33301 4.16602 -4.5 8.49902 -9.5s8.83301 -8.66699 13.5 -11s10 -3.5 16 -3.5c8.66699 0 15.834 1.83301 21.501 5.5s11.5 9.83398 17.5 18.501l30 38l77 -61l-56 -72c-22.667 -29.333 -51.334 -44 -86.001 -44c-26 0 -50.667 12.667 -74 38
c-1.33301 1.33301 -4.16602 4.5 -8.49902 9.5s-8.83301 8.66699 -13.5 11s-10 3.5 -16 3.5c-8.66699 0 -15.834 -1.83301 -21.501 -5.5s-11.5 -9.83398 -17.5 -18.501l-30 -38l-77 61l56 72c22.667 29.333 51.334 44 86.001 44z" />
    <glyph glyph-name="adieresis" unicode="&#xe4;" horiz-adv-x="532" 
d="M124.5 471c36.333 26 84.835 39 145.502 39c66 0 117.833 -16.5 155.5 -49.5s56.5 -80.167 56.5 -141.5v-319h-120v58h-14c-7.33301 -17.333 -21.5 -33.666 -42.5 -48.999s-51.5 -23 -91.5 -23c-52.667 0 -96.167 14.167 -130.5 42.5s-51.5 67.166 -51.5 116.499
s17.5 87.5 52.5 114.5s81.5 40.5 139.5 40.5h136v28c0 24.667 -7.66699 44.5 -23 59.5s-38.333 22.5 -69 22.5c-30 0 -53.333 -7.16699 -70 -21.5s-27.334 -33.5 -32.001 -57.5l-116 39c13.333 41.333 38.166 75 74.499 101zM179.502 104.5
c14.333 -11 34.5 -16.5 60.5 -16.5c35.333 0 64.166 10.167 86.499 30.5s33.5 46.833 33.5 79.5v8h-127c-23.333 0 -41.666 -5.33301 -54.999 -16s-20 -24.667 -20 -42c0 -18 7.16699 -32.5 21.5 -43.5zM104.502 702c17 16 38.167 24 63.5 24s46.5 -8 63.5 -24
s25.5 -36.667 25.5 -62s-8.5 -46 -25.5 -62s-38.167 -24 -63.5 -24s-46.5 8 -63.5 24s-25.5 36.667 -25.5 62s8.5 46 25.5 62zM314.502 702c17 16 38.167 24 63.5 24s46.5 -8 63.5 -24s25.5 -36.667 25.5 -62s-8.5 -46 -25.5 -62s-38.167 -24 -63.5 -24s-46.5 8 -63.5 24
s-25.5 36.667 -25.5 62s8.5 46 25.5 62z" />
    <glyph glyph-name="aring" unicode="&#xe5;" horiz-adv-x="532" 
d="M124.5 471c36.333 26 84.835 39 145.502 39c66 0 117.833 -16.5 155.5 -49.5s56.5 -80.167 56.5 -141.5v-319h-120v58h-14c-7.33301 -17.333 -21.5 -33.666 -42.5 -48.999s-51.5 -23 -91.5 -23c-52.667 0 -96.167 14.167 -130.5 42.5s-51.5 67.166 -51.5 116.499
s17.5 87.5 52.5 114.5s81.5 40.5 139.5 40.5h136v28c0 24.667 -7.66699 44.5 -23 59.5s-38.333 22.5 -69 22.5c-30 0 -53.333 -7.16699 -70 -21.5s-27.334 -33.5 -32.001 -57.5l-116 39c13.333 41.333 38.166 75 74.499 101zM179.502 104.5
c14.333 -11 34.5 -16.5 60.5 -16.5c35.333 0 64.166 10.167 86.499 30.5s33.5 46.833 33.5 79.5v8h-127c-23.333 0 -41.666 -5.33301 -54.999 -16s-20 -24.667 -20 -42c0 -18 7.16699 -32.5 21.5 -43.5zM196.002 713c20.667 20 46.3311 30 76.998 30
s56.334 -9.83301 77.001 -29.5s31 -44.5 31 -74.5c0 -30.667 -10.667 -55.667 -32 -75s-46.666 -29 -75.999 -29c-30 0 -55.5 10 -76.5 30s-31.5 44.667 -31.5 74s10.333 54 31 74zM251.499 617.5c5.66699 -5.66699 12.834 -8.5 21.501 -8.5s15.834 2.83301 21.501 8.5
s8.5 12.834 8.5 21.501s-2.83301 15.834 -8.5 21.501s-12.834 8.5 -21.501 8.5s-15.834 -2.83301 -21.501 -8.5s-8.5 -12.834 -8.5 -21.501s2.83301 -15.834 8.5 -21.501z" />
    <glyph glyph-name="ae" unicode="&#xe6;" horiz-adv-x="848" 
d="M826 205l-341.001 -0.000976562c1.33301 -32 12.833 -58.5 34.5 -79.5s49.5 -31.5 83.5 -31.5c30 0 54 6.33301 72 19s33 28.667 45 48l93 -67c-23.333 -33.333 -50.5 -59.666 -81.5 -78.999s-71.833 -29 -122.5 -29c-38 0 -72.667 8.16699 -104 24.5
s-57.666 38.833 -78.999 67.5h-13c-14 -23.333 -35.167 -44.5 -63.5 -63.5s-68.166 -28.5 -119.499 -28.5c-59.333 0 -107.166 13.833 -143.499 41.5s-54.5 66.5 -54.5 116.5s17.833 88.333 53.5 115s83.167 40 142.5 40h134v29c0 24 -8.66699 43.667 -26 59
s-41.333 23 -72 23c-28.667 0 -51.834 -7.16699 -69.501 -21.5s-29.834 -33.5 -36.501 -57.5l-112 39c14.667 41.333 40 75 76 101s83.333 39 142 39c71.333 0 125.333 -23.333 162 -70h14c20 22.667 43.833 40 71.5 52s57.5 18 89.5 18c46.667 0 87 -10.833 121 -32.5
s59.833 -51 77.5 -88s26.5 -78.167 26.5 -123.5v-61zM701.999 298.999c-1.33301 31.333 -11.502 56.333 -30.502 75s-44.167 28 -75.5 28c-33.333 0 -59.666 -9.5 -78.999 -28.5s-29.666 -43.833 -30.999 -74.5h216zM361.997 204.999h-125.001
c-25.333 0 -45.166 -4.83301 -59.499 -14.5s-21.5 -23.5 -21.5 -41.5c0 -18.667 7.66699 -33.5 23 -44.5s37 -16.5 65 -16.5c35.333 0 63.833 10.167 85.5 30.5s32.5 46.833 32.5 79.5v7z" />
    <glyph glyph-name="ccedilla" unicode="&#xe7;" horiz-adv-x="554" 
d="M459 47.5c-35.333 -33.667 -80.999 -53.501 -136.999 -59.501l-9 -46h12c4.66699 6 11.5 11.167 20.5 15.5s19.5 6.5 31.5 6.5c20.667 0 38.667 -6.83301 54 -20.5s23 -33.5 23 -59.5c0 -30 -10.333 -53.833 -31 -71.5s-47 -26.5 -79 -26.5c-18 0 -33.333 1.66699 -46 5
s-25.334 8.33301 -38.001 15l26 68c15.333 -9.33301 32 -14 50 -14c10 0 18.167 2.33301 24.5 7s9.5 11 9.5 19c0 6 -1.83301 11.167 -5.5 15.5s-8.5 6.5 -14.5 6.5c-11.333 0 -18 -4.66699 -20 -14h-97v12l18 82c-42.667 4.66699 -81 18.667 -115 42
s-60.833 53.833 -80.5 91.5s-29.5 79.834 -29.5 126.501c0 50 11.333 95 34 135s53.667 71.167 93 93.5s83 33.5 131 33.5c66.667 0 121.167 -17.5 163.5 -52.5s69.166 -81.5 80.499 -139.5l-122 -26c-4 32 -16 58 -36 78s-48 30 -84 30c-39.333 0 -71.5 -13.667 -96.5 -41
s-37.5 -64.333 -37.5 -111s12.5 -83.667 37.5 -111s57.167 -41 96.5 -41c36 0 64.167 9.66699 84.5 29s33.5 46 39.5 80l122 -29c-13.333 -52 -37.666 -94.833 -72.999 -128.5z" />
    <glyph glyph-name="egrave" unicode="&#xe8;" horiz-adv-x="538" 
d="M57.5 385.5c21 39.667 50.332 70.332 87.999 91.999s80.834 32.5 129.501 32.5c48 0 90.167 -10.667 126.5 -32s64.5 -51.5 84.5 -90.5s30 -83.5 30 -133.5v-43h-361c1.33301 -34 13.833 -62 37.5 -84s53.167 -33 88.5 -33c32 0 56.833 7 74.5 21s31.5 32.333 41.5 55
l103 -54c-46 -86.667 -120.333 -130 -223 -130c-48.667 0 -92 10.833 -130 32.5s-67.667 52.334 -89 92.001s-32 85.5 -32 137.5s10.5 97.833 31.5 137.5zM352.499 374.998c-20.333 18 -46.501 27 -78.501 27c-32.667 0 -59.5 -9 -80.5 -27s-33.5 -41.333 -37.5 -70h232
c-3.33301 28.667 -15.166 52 -35.499 70zM350.998 569.998h-108l-88 130h142z" />
    <glyph glyph-name="eacute" unicode="&#xe9;" horiz-adv-x="538" 
d="M57.5 385.5c21 39.667 50.332 70.332 87.999 91.999s80.834 32.5 129.501 32.5c48 0 90.167 -10.667 126.5 -32s64.5 -51.5 84.5 -90.5s30 -83.5 30 -133.5v-43h-361c1.33301 -34 13.833 -62 37.5 -84s53.167 -33 88.5 -33c32 0 56.833 7 74.5 21s31.5 32.333 41.5 55
l103 -54c-46 -86.667 -120.333 -130 -223 -130c-48.667 0 -92 10.833 -130 32.5s-67.667 52.334 -89 92.001s-32 85.5 -32 137.5s10.5 97.833 31.5 137.5zM352.499 374.998c-20.333 18 -46.501 27 -78.501 27c-32.667 0 -59.5 -9 -80.5 -27s-33.5 -41.333 -37.5 -70h232
c-3.33301 28.667 -15.166 52 -35.499 70zM394.998 699.998l-88 -130h-108l54 130h142z" />
    <glyph glyph-name="ecircumflex" unicode="&#xea;" horiz-adv-x="538" 
d="M57.5 385.5c21 39.667 50.332 70.332 87.999 91.999s80.834 32.5 129.501 32.5c48 0 90.167 -10.667 126.5 -32s64.5 -51.5 84.5 -90.5s30 -83.5 30 -133.5v-43h-361c1.33301 -34 13.833 -62 37.5 -84s53.167 -33 88.5 -33c32 0 56.833 7 74.5 21s31.5 32.333 41.5 55
l103 -54c-46 -86.667 -120.333 -130 -223 -130c-48.667 0 -92 10.833 -130 32.5s-67.667 52.334 -89 92.001s-32 85.5 -32 137.5s10.5 97.833 31.5 137.5zM352.499 374.998c-20.333 18 -46.501 27 -78.501 27c-32.667 0 -59.5 -9 -80.5 -27s-33.5 -41.333 -37.5 -70h232
c-3.33301 28.667 -15.166 52 -35.499 70zM280.998 633.998h-12l-43 -64h-123l94 130h156l94 -130h-123z" />
    <glyph glyph-name="edieresis" unicode="&#xeb;" horiz-adv-x="538" 
d="M57.5 385.5c21 39.667 50.332 70.332 87.999 91.999s80.834 32.5 129.501 32.5c48 0 90.167 -10.667 126.5 -32s64.5 -51.5 84.5 -90.5s30 -83.5 30 -133.5v-43h-361c1.33301 -34 13.833 -62 37.5 -84s53.167 -33 88.5 -33c32 0 56.833 7 74.5 21s31.5 32.333 41.5 55
l103 -54c-46 -86.667 -120.333 -130 -223 -130c-48.667 0 -92 10.833 -130 32.5s-67.667 52.334 -89 92.001s-32 85.5 -32 137.5s10.5 97.833 31.5 137.5zM352.499 374.998c-20.333 18 -46.501 27 -78.501 27c-32.667 0 -59.5 -9 -80.5 -27s-33.5 -41.333 -37.5 -70h232
c-3.33301 28.667 -15.166 52 -35.499 70zM106.498 701.998c17 16 38.167 24 63.5 24s46.5 -8 63.5 -24s25.5 -36.667 25.5 -62s-8.5 -46 -25.5 -62s-38.167 -24 -63.5 -24s-46.5 8 -63.5 24s-25.5 36.667 -25.5 62s8.5 46 25.5 62zM316.498 701.998c17 16 38.167 24 63.5 24
s46.5 -8 63.5 -24s25.5 -36.667 25.5 -62s-8.5 -46 -25.5 -62s-38.167 -24 -63.5 -24s-46.5 8 -63.5 24s-25.5 36.667 -25.5 62s8.5 46 25.5 62z" />
    <glyph glyph-name="igrave" unicode="&#xec;" horiz-adv-x="238" 
d="M182 0h-126v496h126v-496zM195 570h-108l-88 130h142z" />
    <glyph glyph-name="iacute" unicode="&#xed;" horiz-adv-x="238" 
d="M182 0h-126v496h126v-496zM239 700l-88 -130h-108l54 130h142z" />
    <glyph glyph-name="icircumflex" unicode="&#xee;" horiz-adv-x="238" 
d="M182 0h-126v496h126v-496zM125 634h-12l-43 -64h-123l94 130h156l94 -130h-123z" />
    <glyph glyph-name="idieresis" unicode="&#xef;" horiz-adv-x="238" 
d="M182 0h-126v496h126v-496zM-49.5 702c17 16 38.167 24 63.5 24s46.5 -8 63.5 -24s25.5 -36.667 25.5 -62s-8.5 -46 -25.5 -62s-38.167 -24 -63.5 -24s-46.5 8 -63.5 24s-25.5 36.667 -25.5 62s8.5 46 25.5 62zM160.5 702c17 16 38.167 24 63.5 24s46.5 -8 63.5 -24
s25.5 -36.667 25.5 -62s-8.5 -46 -25.5 -62s-38.167 -24 -63.5 -24s-46.5 8 -63.5 24s-25.5 36.667 -25.5 62s8.5 46 25.5 62z" />
    <glyph glyph-name="eth" unicode="&#xf0;" horiz-adv-x="578" 
d="M490 528.5c38.667 -72.333 57.999 -156.834 57.999 -253.501c0 -60 -11 -111.667 -33 -155s-52.667 -76.5 -92 -99.5s-84.666 -34.5 -135.999 -34.5c-50.667 0 -95.834 11 -135.501 33s-70.5 52.833 -92.5 92.5s-33 85.167 -33 136.5c0 50.667 10.5 95.5 31.5 134.5
s49 69.333 84 91s72.833 32.5 113.5 32.5c59.333 0 106 -18 140 -54h12c-20 62.667 -62.667 110.667 -128 144l-15 -55l-81 20l17 64c-30.667 8 -60.667 13.667 -90 17l19 105c27.333 -4 60 -11 98 -21l15 56l81 -20l-18 -66
c84.667 -39.333 146.334 -95.166 185.001 -167.499zM382.999 141.999c24.667 26.667 37 62 37 106s-12.333 79.333 -37 106s-57 40 -97 40s-72.333 -13.333 -97 -40s-37 -62 -37 -106s12.333 -79.333 37 -106s57 -40 97 -40s72.333 13.333 97 40z" />
    <glyph glyph-name="ntilde" unicode="&#xf1;" horiz-adv-x="586" 
d="M180 422h10c26 54.667 77 82 153 82c38 0 71.667 -8.83301 101 -26.5s52 -42.167 68 -73.5s24 -67.333 24 -108v-296h-126v290c0 37.333 -9 65.333 -27 84s-44.333 28 -79 28c-38.667 0 -68.667 -12.833 -90 -38.5s-32 -61.5 -32 -107.5v-256h-126v496h124v-74zM231 733
c26 0 50.667 -12.667 74 -38c1.33301 -1.33301 4.16602 -4.5 8.49902 -9.5s8.83301 -8.66699 13.5 -11s10 -3.5 16 -3.5c8.66699 0 15.834 1.83301 21.501 5.5s11.5 9.83398 17.5 18.501l30 38l77 -61l-56 -72c-22.667 -29.333 -51.334 -44 -86.001 -44
c-26 0 -50.667 12.667 -74 38c-1.33301 1.33301 -4.16602 4.5 -8.49902 9.5s-8.83301 8.66699 -13.5 11s-10 3.5 -16 3.5c-8.66699 0 -15.834 -1.83301 -21.501 -5.5s-11.5 -9.83398 -17.5 -18.501l-30 -38l-77 61l56 72c22.667 29.333 51.334 44 86.001 44z" />
    <glyph glyph-name="ograve" unicode="&#xf2;" horiz-adv-x="572" 
d="M60 386.5c22.667 39.667 53.667 70.167 93 91.5s83.666 32 132.999 32s93.666 -10.667 132.999 -32s70.333 -51.833 93 -91.5s34 -85.834 34 -138.501s-11.333 -98.834 -34 -138.501s-53.667 -70.167 -93 -91.5s-83.666 -32 -132.999 -32s-93.666 10.667 -132.999 32
s-70.333 51.833 -93 91.5s-34 85.834 -34 138.501s11.333 98.834 34 138.501zM189 136.5c24.667 -27 57 -40.5 97 -40.5s72.333 13.5 97 40.5s37 64.167 37 111.5s-12.333 84.5 -37 111.5s-57 40.5 -97 40.5s-72.333 -13.5 -97 -40.5s-37 -64.167 -37 -111.5
s12.333 -84.5 37 -111.5zM362 570h-108l-88 130h142z" />
    <glyph glyph-name="oacute" unicode="&#xf3;" horiz-adv-x="572" 
d="M60 386.5c22.667 39.667 53.667 70.167 93 91.5s83.666 32 132.999 32s93.666 -10.667 132.999 -32s70.333 -51.833 93 -91.5s34 -85.834 34 -138.501s-11.333 -98.834 -34 -138.501s-53.667 -70.167 -93 -91.5s-83.666 -32 -132.999 -32s-93.666 10.667 -132.999 32
s-70.333 51.833 -93 91.5s-34 85.834 -34 138.501s11.333 98.834 34 138.501zM189 136.5c24.667 -27 57 -40.5 97 -40.5s72.333 13.5 97 40.5s37 64.167 37 111.5s-12.333 84.5 -37 111.5s-57 40.5 -97 40.5s-72.333 -13.5 -97 -40.5s-37 -64.167 -37 -111.5
s12.333 -84.5 37 -111.5zM406 700l-88 -130h-108l54 130h142z" />
    <glyph glyph-name="ocircumflex" unicode="&#xf4;" horiz-adv-x="572" 
d="M60 386.5c22.667 39.667 53.667 70.167 93 91.5s83.666 32 132.999 32s93.666 -10.667 132.999 -32s70.333 -51.833 93 -91.5s34 -85.834 34 -138.501s-11.333 -98.834 -34 -138.501s-53.667 -70.167 -93 -91.5s-83.666 -32 -132.999 -32s-93.666 10.667 -132.999 32
s-70.333 51.833 -93 91.5s-34 85.834 -34 138.501s11.333 98.834 34 138.501zM189 136.5c24.667 -27 57 -40.5 97 -40.5s72.333 13.5 97 40.5s37 64.167 37 111.5s-12.333 84.5 -37 111.5s-57 40.5 -97 40.5s-72.333 -13.5 -97 -40.5s-37 -64.167 -37 -111.5
s12.333 -84.5 37 -111.5zM292 634h-12l-43 -64h-123l94 130h156l94 -130h-123z" />
    <glyph glyph-name="otilde" unicode="&#xf5;" horiz-adv-x="572" 
d="M60 386.5c22.667 39.667 53.667 70.167 93 91.5s83.666 32 132.999 32s93.666 -10.667 132.999 -32s70.333 -51.833 93 -91.5s34 -85.834 34 -138.501s-11.333 -98.834 -34 -138.501s-53.667 -70.167 -93 -91.5s-83.666 -32 -132.999 -32s-93.666 10.667 -132.999 32
s-70.333 51.833 -93 91.5s-34 85.834 -34 138.501s11.333 98.834 34 138.501zM189 136.5c24.667 -27 57 -40.5 97 -40.5s72.333 13.5 97 40.5s37 64.167 37 111.5s-12.333 84.5 -37 111.5s-57 40.5 -97 40.5s-72.333 -13.5 -97 -40.5s-37 -64.167 -37 -111.5
s12.333 -84.5 37 -111.5zM228 733c26 0 50.667 -12.667 74 -38c1.33301 -1.33301 4.16602 -4.5 8.49902 -9.5s8.83301 -8.66699 13.5 -11s10 -3.5 16 -3.5c8.66699 0 15.834 1.83301 21.501 5.5s11.5 9.83398 17.5 18.501l30 38l77 -61l-56 -72
c-22.667 -29.333 -51.334 -44 -86.001 -44c-26 0 -50.667 12.667 -74 38c-1.33301 1.33301 -4.16602 4.5 -8.49902 9.5s-8.83301 8.66699 -13.5 11s-10 3.5 -16 3.5c-8.66699 0 -15.834 -1.83301 -21.501 -5.5s-11.5 -9.83398 -17.5 -18.501l-30 -38l-77 61l56 72
c22.667 29.333 51.334 44 86.001 44z" />
    <glyph glyph-name="odieresis" unicode="&#xf6;" horiz-adv-x="572" 
d="M60 386.5c22.667 39.667 53.667 70.167 93 91.5s83.666 32 132.999 32s93.666 -10.667 132.999 -32s70.333 -51.833 93 -91.5s34 -85.834 34 -138.501s-11.333 -98.834 -34 -138.501s-53.667 -70.167 -93 -91.5s-83.666 -32 -132.999 -32s-93.666 10.667 -132.999 32
s-70.333 51.833 -93 91.5s-34 85.834 -34 138.501s11.333 98.834 34 138.501zM189 136.5c24.667 -27 57 -40.5 97 -40.5s72.333 13.5 97 40.5s37 64.167 37 111.5s-12.333 84.5 -37 111.5s-57 40.5 -97 40.5s-72.333 -13.5 -97 -40.5s-37 -64.167 -37 -111.5
s12.333 -84.5 37 -111.5zM117.5 702c17 16 38.167 24 63.5 24s46.5 -8 63.5 -24s25.5 -36.667 25.5 -62s-8.5 -46 -25.5 -62s-38.167 -24 -63.5 -24s-46.5 8 -63.5 24s-25.5 36.667 -25.5 62s8.5 46 25.5 62zM327.5 702c17 16 38.167 24 63.5 24s46.5 -8 63.5 -24
s25.5 -36.667 25.5 -62s-8.5 -46 -25.5 -62s-38.167 -24 -63.5 -24s-46.5 8 -63.5 24s-25.5 36.667 -25.5 62s8.5 46 25.5 62z" />
    <glyph glyph-name="divide" unicode="&#xf7;" 
d="M249 601.5c16.667 17 37 25.5 61 25.5s44.333 -8.5 61 -25.5s25 -37.167 25 -60.5s-8.33301 -43.5 -25 -60.5s-37 -25.5 -61 -25.5s-44.333 8.5 -61 25.5s-25 37.167 -25 60.5s8.33301 43.5 25 60.5zM519 407v-114h-418v114h418zM249 219.5c16.667 17 37 25.5 61 25.5
s44.333 -8.5 61 -25.5s25 -37.167 25 -60.5s-8.33301 -43.5 -25 -60.5s-37 -25.5 -61 -25.5s-44.333 8.5 -61 25.5s-25 37.167 -25 60.5s8.33301 43.5 25 60.5z" />
    <glyph glyph-name="oslash" unicode="&#xf8;" horiz-adv-x="572" 
d="M526.5 357c13 -32.667 19.5 -68.999 19.5 -108.999c0 -52.667 -11.333 -98.834 -34 -138.501s-53.667 -70.167 -93 -91.5s-83.666 -32 -132.999 -32c-35.333 0 -68.333 5.66699 -99 17l-45 -70l-84 52l45 69c-24.667 22.667 -43.667 50.667 -57 84s-20 70 -20 110
c0 52.667 11.333 98.834 34 138.501s53.667 70.167 93 91.5s83.666 32 132.999 32c37.333 0 71.333 -6 102 -18l43 67l83 -52l-43 -67c24 -22.667 42.5 -50.334 55.5 -83.001zM172 161.001l152 234c-13.333 3.33301 -26 5 -38 5c-40 0 -72.333 -13.5 -97 -40.5
s-37 -64.167 -37 -111.5c0 -34.667 6.66699 -63.667 20 -87zM383 136.501c24.667 27 37 64.167 37 111.5c0 32.667 -6.33301 61 -19 85l-151 -233c10.667 -2.66699 22.667 -4 36 -4c40 0 72.333 13.5 97 40.5z" />
    <glyph glyph-name="ugrave" unicode="&#xf9;" horiz-adv-x="594" 
d="M414 74h-10c-26 -54.667 -77 -82 -153 -82c-38 0 -71.667 8.83301 -101 26.5s-52 42.167 -68 73.5s-24 67.333 -24 108v296h126v-290c0 -37.333 9 -65.333 27 -84s44.333 -28 79 -28c38.667 0 68.667 12.833 90 38.5s32 61.5 32 107.5v256h126v-496h-124v74zM374 570
h-108l-88 130h142z" />
    <glyph glyph-name="uacute" unicode="&#xfa;" horiz-adv-x="594" 
d="M414 74h-10c-26 -54.667 -77 -82 -153 -82c-38 0 -71.667 8.83301 -101 26.5s-52 42.167 -68 73.5s-24 67.333 -24 108v296h126v-290c0 -37.333 9 -65.333 27 -84s44.333 -28 79 -28c38.667 0 68.667 12.833 90 38.5s32 61.5 32 107.5v256h126v-496h-124v74zM418 700
l-88 -130h-108l54 130h142z" />
    <glyph glyph-name="ucircumflex" unicode="&#xfb;" horiz-adv-x="594" 
d="M414 74h-10c-26 -54.667 -77 -82 -153 -82c-38 0 -71.667 8.83301 -101 26.5s-52 42.167 -68 73.5s-24 67.333 -24 108v296h126v-290c0 -37.333 9 -65.333 27 -84s44.333 -28 79 -28c38.667 0 68.667 12.833 90 38.5s32 61.5 32 107.5v256h126v-496h-124v74zM304 634h-12
l-43 -64h-123l94 130h156l94 -130h-123z" />
    <glyph glyph-name="udieresis" unicode="&#xfc;" horiz-adv-x="594" 
d="M414 74h-10c-26 -54.667 -77 -82 -153 -82c-38 0 -71.667 8.83301 -101 26.5s-52 42.167 -68 73.5s-24 67.333 -24 108v296h126v-290c0 -37.333 9 -65.333 27 -84s44.333 -28 79 -28c38.667 0 68.667 12.833 90 38.5s32 61.5 32 107.5v256h126v-496h-124v74zM129.5 702
c17 16 38.167 24 63.5 24s46.5 -8 63.5 -24s25.5 -36.667 25.5 -62s-8.5 -46 -25.5 -62s-38.167 -24 -63.5 -24s-46.5 8 -63.5 24s-25.5 36.667 -25.5 62s8.5 46 25.5 62zM339.5 702c17 16 38.167 24 63.5 24s46.5 -8 63.5 -24s25.5 -36.667 25.5 -62s-8.5 -46 -25.5 -62
s-38.167 -24 -63.5 -24s-46.5 8 -63.5 24s-25.5 36.667 -25.5 62s8.5 46 25.5 62z" />
    <glyph glyph-name="yacute" unicode="&#xfd;" horiz-adv-x="548" 
d="M410 496h136l-272 -696h-136l70 168l-206 528h136l131 -358h10zM394 700l-88 -130h-108l54 130h142z" />
    <glyph glyph-name="thorn" unicode="&#xfe;" horiz-adv-x="606" 
d="M182 700v-274h12c34.667 56 87.334 84 158.001 84c41.333 0 79.333 -11.333 114 -34s62.334 -54 83.001 -94s31 -84.667 31 -134s-10.333 -94 -31 -134s-48.334 -71.333 -83.001 -94s-72.667 -34 -114 -34c-70.667 0 -123.334 28 -158.001 84h-12v-270h-126v900h126z
M415.5 138c25.667 26.667 38.5 63.332 38.5 109.999s-12.833 83.334 -38.5 110.001s-58.167 40 -97.5 40c-40 0 -72.667 -13.5 -98 -40.5s-38 -63.5 -38 -109.5s12.667 -82.5 38 -109.5s58 -40.5 98 -40.5c39.333 0 71.833 13.333 97.5 40z" />
    <glyph glyph-name="ydieresis" unicode="&#xff;" horiz-adv-x="548" 
d="M410 496h136l-272 -696h-136l70 168l-206 528h136l131 -358h10zM105.5 702c17 16 38.167 24 63.5 24s46.5 -8 63.5 -24s25.5 -36.667 25.5 -62s-8.5 -46 -25.5 -62s-38.167 -24 -63.5 -24s-46.5 8 -63.5 24s-25.5 36.667 -25.5 62s8.5 46 25.5 62zM315.5 702
c17 16 38.167 24 63.5 24s46.5 -8 63.5 -24s25.5 -36.667 25.5 -62s-8.5 -46 -25.5 -62s-38.167 -24 -63.5 -24s-46.5 8 -63.5 24s-25.5 36.667 -25.5 62s8.5 46 25.5 62z" />
    <glyph glyph-name="Amacron" unicode="&#x100;" horiz-adv-x="602" 
d="M404 700l196 -700h-135l-42 156h-244l-42 -156h-135l196 700h206zM391 276l-85 316h-10l-85 -316h180zM446 760h-294v102h294v-102z" />
    <glyph glyph-name="amacron" unicode="&#x101;" horiz-adv-x="532" 
d="M124.5 471c36.333 26 84.835 39 145.502 39c66 0 117.833 -16.5 155.5 -49.5s56.5 -80.167 56.5 -141.5v-319h-120v58h-14c-7.33301 -17.333 -21.5 -33.666 -42.5 -48.999s-51.5 -23 -91.5 -23c-52.667 0 -96.167 14.167 -130.5 42.5s-51.5 67.166 -51.5 116.499
s17.5 87.5 52.5 114.5s81.5 40.5 139.5 40.5h136v28c0 24.667 -7.66699 44.5 -23 59.5s-38.333 22.5 -69 22.5c-30 0 -53.333 -7.16699 -70 -21.5s-27.334 -33.5 -32.001 -57.5l-116 39c13.333 41.333 38.166 75 74.499 101zM179.502 104.5
c14.333 -11 34.5 -16.5 60.5 -16.5c35.333 0 64.166 10.167 86.499 30.5s33.5 46.833 33.5 79.5v8h-127c-23.333 0 -41.666 -5.33301 -54.999 -16s-20 -24.667 -20 -42c0 -18 7.16699 -32.5 21.5 -43.5zM420.002 570h-294v102h294v-102z" />
    <glyph glyph-name="Abreve" unicode="&#x102;" horiz-adv-x="602" 
d="M404 700l196 -700h-135l-42 156h-244l-42 -156h-135l196 700h206zM391 276l-85 316h-10l-85 -316h180zM431 872c0 -37.333 -11.999 -67 -35.999 -89s-56 -33 -96 -33s-72 11 -96 33s-36 51.667 -36 89v8h90v-2c0 -12 3.5 -21.667 10.5 -29s17.5 -11 31.5 -11
c13.333 0 23.666 3.66699 30.999 11s11 17 11 29v2h90v-8z" />
    <glyph glyph-name="abreve" unicode="&#x103;" horiz-adv-x="532" 
d="M124.5 471c36.333 26 84.835 39 145.502 39c66 0 117.833 -16.5 155.5 -49.5s56.5 -80.167 56.5 -141.5v-319h-120v58h-14c-7.33301 -17.333 -21.5 -33.666 -42.5 -48.999s-51.5 -23 -91.5 -23c-52.667 0 -96.167 14.167 -130.5 42.5s-51.5 67.166 -51.5 116.499
s17.5 87.5 52.5 114.5s81.5 40.5 139.5 40.5h136v28c0 24.667 -7.66699 44.5 -23 59.5s-38.333 22.5 -69 22.5c-30 0 -53.333 -7.16699 -70 -21.5s-27.334 -33.5 -32.001 -57.5l-116 39c13.333 41.333 38.166 75 74.499 101zM179.502 104.5
c14.333 -11 34.5 -16.5 60.5 -16.5c35.333 0 64.166 10.167 86.499 30.5s33.5 46.833 33.5 79.5v8h-127c-23.333 0 -41.666 -5.33301 -54.999 -16s-20 -24.667 -20 -42c0 -18 7.16699 -32.5 21.5 -43.5zM405.002 680c0 -37.333 -11.998 -67 -35.998 -89s-56 -33 -96 -33
s-72 11 -96 33s-36 51.667 -36 89v20h90v-12c0 -12.667 3.66699 -22.834 11 -30.501s17.666 -11.5 30.999 -11.5s23.666 3.83301 30.999 11.5s11 17.834 11 30.501v12h90v-20z" />
    <glyph glyph-name="Aogonek" unicode="&#x104;" horiz-adv-x="602" 
d="M636 -86v-83.999h-80c-21.333 0 -40 6.66699 -56 20s-24 31.666 -24 54.999c0 6 1 13.667 3 23l16 72h-30l-42 156h-244l-42 -156h-135l196 700h206l196 -700h-19l-13 -56c-0.666992 -2 -1 -4.66699 -1 -8c0 -14.667 7.66699 -22 23 -22h46zM211 276.001h180l-85 316h-10
z" />
    <glyph glyph-name="aogonek" unicode="&#x105;" horiz-adv-x="532" 
d="M516 -86l0.00195312 -83.999h-80c-21.333 0 -40 6.66699 -56 20s-24 31.666 -24 54.999c0 6 1 13.667 3 23l16 72h-13v58h-14c-7.33301 -17.333 -21.5 -33.666 -42.5 -48.999s-51.5 -23 -91.5 -23c-52.667 0 -96.167 14.167 -130.5 42.5s-51.5 67.166 -51.5 116.499
s17.5 87.5 52.5 114.5s81.5 40.5 139.5 40.5h136v28c0 24.667 -7.66699 44.5 -23 59.5s-38.333 22.5 -69 22.5c-30 0 -53.333 -7.16699 -70 -21.5s-27.334 -33.5 -32.001 -57.5l-116 39c13.333 41.333 38.166 75 74.499 101s84.833 39 145.5 39
c66 0 117.833 -16.5 155.5 -49.5s56.5 -80.167 56.5 -141.5v-319h-21l-13 -56c-0.666992 -2 -1 -4.66699 -1 -8c0 -14.667 7.66699 -22 23 -22h46zM360.002 206.001h-127c-23.333 0 -41.666 -5.33301 -54.999 -16s-20 -24.667 -20 -42c0 -18 7.16699 -32.5 21.5 -43.5
s34.5 -16.5 60.5 -16.5c35.333 0 64.166 10.167 86.499 30.5s33.5 46.833 33.5 79.5v8z" />
    <glyph glyph-name="Cacute" unicode="&#x106;" horiz-adv-x="622" 
d="M107 640.5c51.333 49 121.666 73.502 210.999 73.502c58 0 107.833 -10.333 149.5 -31s73.5 -50 95.5 -88s33 -82.333 33 -133v-18h-132v20c0 37.333 -12.833 68.666 -38.5 93.999s-61.5 38 -107.5 38c-48 0 -86 -14.333 -114 -43s-42 -67.667 -42 -117v-172
c0 -49.333 14 -88.333 42 -117s66 -43 114 -43c46 0 81.833 12.667 107.5 38s38.5 56.666 38.5 93.999v28h132v-26c0 -50.667 -11 -95 -33 -133s-53.833 -67.333 -95.5 -88s-91.5 -31 -149.5 -31c-89.333 0 -159.666 24.5 -210.999 73.5s-77 117.833 -77 206.5v168
c0 88.667 25.667 157.5 77 206.5zM438 880.002l-88 -120h-108l54 120h142z" />
    <glyph glyph-name="cacute" unicode="&#x107;" horiz-adv-x="554" 
d="M60 383c22.667 40 53.668 71.167 93.001 93.5s83 33.5 131 33.5c66.667 0 121.167 -17.5 163.5 -52.5s69.166 -81.5 80.499 -139.5l-122 -26c-4 32 -16 58 -36 78s-48 30 -84 30c-39.333 0 -71.5 -13.667 -96.5 -41s-37.5 -64.333 -37.5 -111s12.5 -83.667 37.5 -111
s57.167 -41 96.5 -41c36 0 64.167 9.66699 84.5 29s33.5 46 39.5 80l122 -29c-14.667 -57.333 -43 -103.333 -85 -138s-96.333 -52 -163 -52c-48 0 -91.667 11.167 -131 33.5s-70.333 53.5 -93 93.5s-34 85 -34 135s11.333 95 34 135zM408.001 700l-88 -130h-108l54 130h142
z" />
    <glyph glyph-name="Cdotaccent" unicode="&#x10a;" horiz-adv-x="622" 
d="M107 640.5c51.333 49 121.666 73.502 210.999 73.502c58 0 107.833 -10.333 149.5 -31s73.5 -50 95.5 -88s33 -82.333 33 -133v-18h-132v20c0 37.333 -12.833 68.666 -38.5 93.999s-61.5 38 -107.5 38c-48 0 -86 -14.333 -114 -43s-42 -67.667 -42 -117v-172
c0 -49.333 14 -88.333 42 -117s66 -43 114 -43c46 0 81.833 12.667 107.5 38s38.5 56.666 38.5 93.999v28h132v-26c0 -50.667 -11 -95 -33 -133s-53.833 -67.333 -95.5 -88s-91.5 -31 -149.5 -31c-89.333 0 -159.666 24.5 -210.999 73.5s-77 117.833 -77 206.5v168
c0 88.667 25.667 157.5 77 206.5zM254.5 884.002c17 16 38.167 24 63.5 24s46.5 -8 63.5 -24s25.5 -36.667 25.5 -62s-8.5 -46 -25.5 -62s-38.167 -24 -63.5 -24s-46.5 8 -63.5 24s-25.5 36.667 -25.5 62s8.5 46 25.5 62z" />
    <glyph glyph-name="cdotaccent" unicode="&#x10b;" horiz-adv-x="554" 
d="M60 383c22.667 40 53.668 71.167 93.001 93.5s83 33.5 131 33.5c66.667 0 121.167 -17.5 163.5 -52.5s69.166 -81.5 80.499 -139.5l-122 -26c-4 32 -16 58 -36 78s-48 30 -84 30c-39.333 0 -71.5 -13.667 -96.5 -41s-37.5 -64.333 -37.5 -111s12.5 -83.667 37.5 -111
s57.167 -41 96.5 -41c36 0 64.167 9.66699 84.5 29s33.5 46 39.5 80l122 -29c-14.667 -57.333 -43 -103.333 -85 -138s-96.333 -52 -163 -52c-48 0 -91.667 11.167 -131 33.5s-70.333 53.5 -93 93.5s-34 85 -34 135s11.333 95 34 135zM224.501 702c17 16 38.167 24 63.5 24
s46.5 -8 63.5 -24s25.5 -36.667 25.5 -62s-8.5 -46 -25.5 -62s-38.167 -24 -63.5 -24s-46.5 8 -63.5 24s-25.5 36.667 -25.5 62s8.5 46 25.5 62z" />
    <glyph glyph-name="Ccaron" unicode="&#x10c;" horiz-adv-x="622" 
d="M107 640.5c51.333 49 121.666 73.502 210.999 73.502c58 0 107.833 -10.333 149.5 -31s73.5 -50 95.5 -88s33 -82.333 33 -133v-18h-132v20c0 37.333 -12.833 68.666 -38.5 93.999s-61.5 38 -107.5 38c-48 0 -86 -14.333 -114 -43s-42 -67.667 -42 -117v-172
c0 -49.333 14 -88.333 42 -117s66 -43 114 -43c46 0 81.833 12.667 107.5 38s38.5 56.666 38.5 93.999v28h132v-26c0 -50.667 -11 -95 -33 -133s-53.833 -67.333 -95.5 -88s-91.5 -31 -149.5 -31c-89.333 0 -159.666 24.5 -210.999 73.5s-77 117.833 -77 206.5v168
c0 88.667 25.667 157.5 77 206.5zM490 884.002l-94 -120h-156l-94 120h123l43 -60h12l43 60h123z" />
    <glyph glyph-name="ccaron" unicode="&#x10d;" horiz-adv-x="554" 
d="M60 383c22.667 40 53.668 71.167 93.001 93.5s83 33.5 131 33.5c66.667 0 121.167 -17.5 163.5 -52.5s69.166 -81.5 80.499 -139.5l-122 -26c-4 32 -16 58 -36 78s-48 30 -84 30c-39.333 0 -71.5 -13.667 -96.5 -41s-37.5 -64.333 -37.5 -111s12.5 -83.667 37.5 -111
s57.167 -41 96.5 -41c36 0 64.167 9.66699 84.5 29s33.5 46 39.5 80l122 -29c-14.667 -57.333 -43 -103.333 -85 -138s-96.333 -52 -163 -52c-48 0 -91.667 11.167 -131 33.5s-70.333 53.5 -93 93.5s-34 85 -34 135s11.333 95 34 135zM460.001 700l-94 -130h-156l-94 130
h123l43 -64h12l43 64h123z" />
    <glyph glyph-name="Dcaron" unicode="&#x10e;" horiz-adv-x="616" 
d="M512.5 628.5c49 -47.667 73.5 -118.5 73.5 -212.5v-132c0 -94 -24.5 -164.833 -73.5 -212.5s-120.5 -71.5 -214.5 -71.5h-240v700h240c94 0 165.5 -23.833 214.5 -71.5zM300 120c102.667 0 154 53.333 154 160v140c0 106.667 -51.333 160 -154 160h-110v-460h110z
M475 884l-94 -120h-156l-94 120h123l43 -60h12l43 60h123z" />
    <glyph glyph-name="dcaron" unicode="&#x10f;" horiz-adv-x="709" 
d="M424 67h-10c-38 -54 -92.667 -81 -164 -81c-40 0 -77 10.667 -111 32s-61.333 52 -82 92s-31 86 -31 138s10.333 98 31 138s48 70.667 82 92s71 32 111 32c71.333 0 125.333 -26 162 -78h10v268h126v-700h-124v67zM734 700l-58 -182h-80l10 182h128zM190 361
c-25.333 -27.333 -38 -65 -38 -113s12.667 -85.667 38 -113s58 -41 98 -41s72.667 13.667 98 41s38 65 38 113s-12.667 85.667 -38 113s-58 41 -98 41s-72.667 -13.667 -98 -41z" />
    <glyph glyph-name="Dcroat" unicode="&#x110;" horiz-adv-x="616" 
d="M512.5 628.5c49 -47.667 73.5 -118.5 73.5 -212.5v-132c0 -94 -24.5 -164.833 -73.5 -212.5s-120.5 -71.5 -214.5 -71.5h-240v296h-82v110h82v294h240c94 0 165.5 -23.833 214.5 -71.5zM454 420c0 106.667 -51.333 160 -154 160h-110v-174h134v-110h-134v-176h110
c102.667 0 154 53.333 154 160v140z" />
    <glyph glyph-name="dcroat" unicode="&#x111;" horiz-adv-x="604" 
d="M610 552h-62v-552h-124v67h-10c-38 -54 -92.667 -81 -164 -81c-40 0 -77 10.667 -111 32s-61.333 52 -82 92s-31 86 -31 138s10.333 98 31 138s48 70.667 82 92s71 32 111 32c71.333 0 125.333 -26 162 -78h10v120h-108v84h108v64h126v-64h62v-84zM386 135
c25.333 27.333 38 65 38 113s-12.667 85.667 -38 113s-58 41 -98 41s-72.667 -13.667 -98 -41s-38 -65 -38 -113s12.667 -85.667 38 -113s58 -41 98 -41s72.667 13.667 98 41z" />
    <glyph glyph-name="Emacron" unicode="&#x112;" horiz-adv-x="552" 
d="M518 700v-120h-328v-167h300v-120h-300v-173h334v-120h-466v700h460zM440 760h-294v102h294v-102z" />
    <glyph glyph-name="emacron" unicode="&#x113;" horiz-adv-x="538" 
d="M57.5 385.5c21 39.667 50.332 70.332 87.999 91.999s80.834 32.5 129.501 32.5c48 0 90.167 -10.667 126.5 -32s64.5 -51.5 84.5 -90.5s30 -83.5 30 -133.5v-43h-361c1.33301 -34 13.833 -62 37.5 -84s53.167 -33 88.5 -33c32 0 56.833 7 74.5 21s31.5 32.333 41.5 55
l103 -54c-46 -86.667 -120.333 -130 -223 -130c-48.667 0 -92 10.833 -130 32.5s-67.667 52.334 -89 92.001s-32 85.5 -32 137.5s10.5 97.833 31.5 137.5zM352.499 374.998c-20.333 18 -46.501 27 -78.501 27c-32.667 0 -59.5 -9 -80.5 -27s-33.5 -41.333 -37.5 -70h232
c-3.33301 28.667 -15.166 52 -35.499 70zM421.998 569.998h-294v102h294v-102z" />
    <glyph glyph-name="Edotaccent" unicode="&#x116;" horiz-adv-x="552" 
d="M518 700v-120h-328v-167h300v-120h-300v-173h334v-120h-466v700h460zM229.5 884c17 16 38.167 24 63.5 24s46.5 -8 63.5 -24s25.5 -36.667 25.5 -62s-8.5 -46 -25.5 -62s-38.167 -24 -63.5 -24s-46.5 8 -63.5 24s-25.5 36.667 -25.5 62s8.5 46 25.5 62z" />
    <glyph glyph-name="edotaccent" unicode="&#x117;" horiz-adv-x="538" 
d="M57.5 385.5c21 39.667 50.332 70.332 87.999 91.999s80.834 32.5 129.501 32.5c48 0 90.167 -10.667 126.5 -32s64.5 -51.5 84.5 -90.5s30 -83.5 30 -133.5v-43h-361c1.33301 -34 13.833 -62 37.5 -84s53.167 -33 88.5 -33c32 0 56.833 7 74.5 21s31.5 32.333 41.5 55
l103 -54c-46 -86.667 -120.333 -130 -223 -130c-48.667 0 -92 10.833 -130 32.5s-67.667 52.334 -89 92.001s-32 85.5 -32 137.5s10.5 97.833 31.5 137.5zM352.499 374.998c-20.333 18 -46.501 27 -78.501 27c-32.667 0 -59.5 -9 -80.5 -27s-33.5 -41.333 -37.5 -70h232
c-3.33301 28.667 -15.166 52 -35.499 70zM211.498 701.998c17 16 38.167 24 63.5 24s46.5 -8 63.5 -24s25.5 -36.667 25.5 -62s-8.5 -46 -25.5 -62s-38.167 -24 -63.5 -24s-46.5 8 -63.5 24s-25.5 36.667 -25.5 62s8.5 46 25.5 62z" />
    <glyph glyph-name="Eogonek" unicode="&#x118;" horiz-adv-x="552" 
d="M330 -56c-0.666992 -2 -1 -4.66602 -1 -7.99902c0 -14.667 7.66699 -22 23 -22h46v-84h-80c-21.333 0 -40 6.66699 -56 20s-24 31.666 -24 54.999c0 6 1 13.667 3 23l16 72h-199v700h460v-120h-328v-167h300v-120h-300v-173h334v-120h-181z" />
    <glyph glyph-name="eogonek" unicode="&#x119;" horiz-adv-x="538" 
d="M516 211h-361.001c1.33301 -34 13.833 -62 37.5 -84s53.167 -33 88.5 -33c32 0 56.833 7 74.5 21s31.5 32.333 41.5 55l103 -54c-39.333 -75.333 -101 -118 -185 -128l-10 -44c-0.666992 -2 -1 -4.66699 -1 -8c0 -14.667 7.66699 -22 23 -22h46v-84h-80
c-21.333 0 -40 6.66699 -56 20s-24 31.666 -24 54.999c0 6 1 13.667 3 23l14 62c-62 10 -111.5 38 -148.5 84s-55.5 104 -55.5 174c0 52 10.5 97.833 31.5 137.5s50.333 70.334 88 92.001s80.834 32.5 129.501 32.5c48 0 90.167 -10.667 126.5 -32s64.5 -51.5 84.5 -90.5
s30 -83.5 30 -133.5v-43zM387.999 305c-3.33301 28.667 -15.167 52 -35.5 70s-46.5 27 -78.5 27c-32.667 0 -59.5 -9 -80.5 -27s-33.5 -41.333 -37.5 -70h232z" />
    <glyph glyph-name="Ecaron" unicode="&#x11a;" horiz-adv-x="552" 
d="M518 700v-120h-328v-167h300v-120h-300v-173h334v-120h-466v700h460zM465 884l-94 -120h-156l-94 120h123l43 -60h12l43 60h123z" />
    <glyph glyph-name="ecaron" unicode="&#x11b;" horiz-adv-x="538" 
d="M57.5 385.5c21 39.667 50.332 70.332 87.999 91.999s80.834 32.5 129.501 32.5c48 0 90.167 -10.667 126.5 -32s64.5 -51.5 84.5 -90.5s30 -83.5 30 -133.5v-43h-361c1.33301 -34 13.833 -62 37.5 -84s53.167 -33 88.5 -33c32 0 56.833 7 74.5 21s31.5 32.333 41.5 55
l103 -54c-46 -86.667 -120.333 -130 -223 -130c-48.667 0 -92 10.833 -130 32.5s-67.667 52.334 -89 92.001s-32 85.5 -32 137.5s10.5 97.833 31.5 137.5zM352.499 374.998c-20.333 18 -46.501 27 -78.501 27c-32.667 0 -59.5 -9 -80.5 -27s-33.5 -41.333 -37.5 -70h232
c-3.33301 28.667 -15.166 52 -35.499 70zM446.998 699.998l-94 -130h-156l-94 130h123l43 -64h12l43 64h123z" />
    <glyph glyph-name="Gbreve" unicode="&#x11e;" horiz-adv-x="626" 
d="M108 640.5c52 49 122.666 73.499 211.999 73.499c86.667 0 153.667 -22.5 201 -67.5s71 -105.167 71 -180.5v-12h-132v14c0 38 -11.833 68.833 -35.5 92.5s-58.5 35.5 -104.5 35.5c-48 0 -86.333 -14.5 -115 -43.5s-43 -67.833 -43 -116.5v-172
c0 -48.667 14.333 -87.5 43 -116.5s67 -43.5 115 -43.5c47.333 0 83.5 11.833 108.5 35.5s37.5 55.834 37.5 96.501v6h-170v112h300v-102c0 -83.333 -24.167 -148.5 -72.5 -195.5s-116.166 -70.5 -203.499 -70.5c-89.333 0 -160 24.5 -212 73.5s-78 117.833 -78 206.5v168
c0 88.667 26 157.5 78 206.5zM451.999 871.999c0 -37.333 -11.999 -67 -35.999 -89s-56 -33 -96 -33s-72 11 -96 33s-36 51.667 -36 89v8h90v-2c0 -12 3.5 -21.667 10.5 -29s17.5 -11 31.5 -11c13.333 0 23.666 3.66699 30.999 11s11 17 11 29v2h90v-8z" />
    <glyph glyph-name="gbreve" unicode="&#x11f;" horiz-adv-x="604" 
d="M548 496l-0.00195312 -466.997c0 -78.667 -23.5 -138.834 -70.5 -180.501s-110.833 -62.5 -191.5 -62.5c-70.667 0 -127.167 15.333 -169.5 46s-71.166 68 -86.499 112l113 49c9.33301 -30.667 25.5 -55.167 48.5 -73.5s53.833 -27.5 92.5 -27.5
c42.667 0 76.334 11.667 101.001 35s37 58.333 37 105v48h-10c-37.333 -52 -91.333 -78 -162 -78c-39.333 0 -76.166 10.667 -110.499 32s-61.833 51.166 -82.5 89.499s-31 82.5 -31 132.5s10.333 94.167 31 132.5s48.167 68.166 82.5 89.499s71.166 32 110.499 32
c71.333 0 126 -27 164 -81h10v67h124zM385.998 150.003c25.333 26.667 38 62 38 106s-12.667 79.333 -38 106s-58 40 -98 40s-72.667 -13.333 -98 -40s-38 -62 -38 -106s12.667 -79.333 38 -106s58 -40 98 -40s72.667 13.333 98 40zM435.998 680.003
c0 -37.333 -11.998 -67 -35.998 -89s-56 -33 -96 -33s-72 11 -96 33s-36 51.667 -36 89v20h90v-12c0 -12.667 3.66699 -22.834 11 -30.501s17.666 -11.5 30.999 -11.5s23.666 3.83301 30.999 11.5s11 17.834 11 30.501v12h90v-20z" />
    <glyph glyph-name="Gdotaccent" unicode="&#x120;" horiz-adv-x="626" 
d="M108 640.5c52 49 122.666 73.499 211.999 73.499c86.667 0 153.667 -22.5 201 -67.5s71 -105.167 71 -180.5v-12h-132v14c0 38 -11.833 68.833 -35.5 92.5s-58.5 35.5 -104.5 35.5c-48 0 -86.333 -14.5 -115 -43.5s-43 -67.833 -43 -116.5v-172
c0 -48.667 14.333 -87.5 43 -116.5s67 -43.5 115 -43.5c47.333 0 83.5 11.833 108.5 35.5s37.5 55.834 37.5 96.501v6h-170v112h300v-102c0 -83.333 -24.167 -148.5 -72.5 -195.5s-116.166 -70.5 -203.499 -70.5c-89.333 0 -160 24.5 -212 73.5s-78 117.833 -78 206.5v168
c0 88.667 26 157.5 78 206.5zM256.499 883.999c17 16 38.167 24 63.5 24s46.5 -8 63.5 -24s25.5 -36.667 25.5 -62s-8.5 -46 -25.5 -62s-38.167 -24 -63.5 -24s-46.5 8 -63.5 24s-25.5 36.667 -25.5 62s8.5 46 25.5 62z" />
    <glyph glyph-name="gdotaccent" unicode="&#x121;" horiz-adv-x="604" 
d="M548 496l-0.00195312 -466.997c0 -78.667 -23.5 -138.834 -70.5 -180.501s-110.833 -62.5 -191.5 -62.5c-70.667 0 -127.167 15.333 -169.5 46s-71.166 68 -86.499 112l113 49c9.33301 -30.667 25.5 -55.167 48.5 -73.5s53.833 -27.5 92.5 -27.5
c42.667 0 76.334 11.667 101.001 35s37 58.333 37 105v48h-10c-37.333 -52 -91.333 -78 -162 -78c-39.333 0 -76.166 10.667 -110.499 32s-61.833 51.166 -82.5 89.499s-31 82.5 -31 132.5s10.333 94.167 31 132.5s48.167 68.166 82.5 89.499s71.166 32 110.499 32
c71.333 0 126 -27 164 -81h10v67h124zM385.998 150.003c25.333 26.667 38 62 38 106s-12.667 79.333 -38 106s-58 40 -98 40s-72.667 -13.333 -98 -40s-38 -62 -38 -106s12.667 -79.333 38 -106s58 -40 98 -40s72.667 13.333 98 40zM240.498 702.003
c17 16 38.167 24 63.5 24s46.5 -8 63.5 -24s25.5 -36.667 25.5 -62s-8.5 -46 -25.5 -62s-38.167 -24 -63.5 -24s-46.5 8 -63.5 24s-25.5 36.667 -25.5 62s8.5 46 25.5 62z" />
    <glyph glyph-name="uni0122" unicode="&#x122;" horiz-adv-x="626" 
d="M108 640.5c52 49 122.666 73.499 211.999 73.499c86.667 0 153.667 -22.5 201 -67.5s71 -105.167 71 -180.5v-12h-132v14c0 38 -11.833 68.833 -35.5 92.5s-58.5 35.5 -104.5 35.5c-48 0 -86.333 -14.5 -115 -43.5s-43 -67.833 -43 -116.5v-172
c0 -48.667 14.333 -87.5 43 -116.5s67 -43.5 115 -43.5c47.333 0 83.5 11.833 108.5 35.5s37.5 55.834 37.5 96.501v6h-170v112h300v-102c0 -83.333 -24.167 -148.5 -72.5 -195.5s-116.166 -70.5 -203.499 -70.5c-89.333 0 -160 24.5 -212 73.5s-78 117.833 -78 206.5v168
c0 88.667 26 157.5 78 206.5zM251.999 -77.001c18 18 40.666 26.999 67.999 26.999s50 -8.83301 68 -26.5s27 -40.167 27 -67.5v-116c0 -25.333 -8.5 -46.666 -25.5 -63.999s-38.167 -26 -63.5 -26h-95v68h77c10 0 17.333 2.16699 22 6.5s7 11.5 7 21.5v19
c-5.33301 -1.33301 -11.666 -2 -18.999 -2c-26 0 -48 8.66699 -66 26s-27 39 -27 65c0 28 9 51 27 69z" />
    <glyph glyph-name="uni0123" unicode="&#x123;" horiz-adv-x="604" 
d="M548 496l-0.00195312 -466.997c0 -78.667 -23.5 -138.834 -70.5 -180.501s-110.833 -62.5 -191.5 -62.5c-70.667 0 -127.167 15.333 -169.5 46s-71.166 68 -86.499 112l113 49c9.33301 -30.667 25.5 -55.167 48.5 -73.5s53.833 -27.5 92.5 -27.5
c42.667 0 76.334 11.667 101.001 35s37 58.333 37 105v48h-10c-37.333 -52 -91.333 -78 -162 -78c-39.333 0 -76.166 10.667 -110.499 32s-61.833 51.166 -82.5 89.499s-31 82.5 -31 132.5s10.333 94.167 31 132.5s48.167 68.166 82.5 89.499s71.166 32 110.499 32
c71.333 0 126 -27 164 -81h10v67h124zM385.998 150.003c25.333 26.667 38 62 38 106s-12.667 79.333 -38 106s-58 40 -98 40s-72.667 -13.333 -98 -40s-38 -62 -38 -106s12.667 -79.333 38 -106s58 -40 98 -40s72.667 13.333 98 40zM371.998 572.003
c-18 -18 -40.666 -26.999 -67.999 -26.999s-50 8.83301 -68 26.5s-27 40.167 -27 67.5v117c0 25.333 8.5 46.666 25.5 63.999s38.167 26 63.5 26h95v-68h-77c-10.667 0 -18.167 -2.16699 -22.5 -6.5s-6.5 -11.5 -6.5 -21.5v-20c5.33301 1.33301 11.666 2 18.999 2
c26 0 48 -8.66699 66 -26s27 -39 27 -65c0 -28 -9 -51 -27 -69z" />
    <glyph glyph-name="Hbar" unicode="&#x126;" horiz-adv-x="644" 
d="M642 606v-110h-56v-496h-132v291h-264v-291h-132v496h-56v110h56v94h132v-94h264v94h132v-94h56zM454 411v85h-264v-85h264z" />
    <glyph glyph-name="hbar" unicode="&#x127;" horiz-adv-x="586" 
d="M444 477.5c29.333 -17.667 52 -42.167 68 -73.5s24 -67.333 24 -108v-296h-126v290c0 37.333 -9 65.333 -27 84s-44.333 28 -79 28c-38.667 0 -68.667 -12.833 -90 -38.5s-32 -61.5 -32 -107.5v-256h-126v552h-62v84h62v64h126v-64h108v-84h-108v-126h10
c26 52 76.333 78 151 78c38 0 71.667 -8.83301 101 -26.5z" />
    <glyph glyph-name="Imacron" unicode="&#x12a;" horiz-adv-x="248" 
d="M190 700v-700h-132v700h132zM271 760h-294v102h294v-102z" />
    <glyph glyph-name="imacron" unicode="&#x12b;" horiz-adv-x="238" 
d="M182 0h-126v496h126v-496zM266 570h-294v102h294v-102z" />
    <glyph glyph-name="Iogonek" unicode="&#x12e;" horiz-adv-x="248" 
d="M220 -86v-83.999h-80c-21.333 0 -40 6.66699 -56 20s-24 31.666 -24 54.999c0 6 1 13.667 3 23l16 72h-21v700h132v-700h-25l-13 -56c-0.666992 -2 -1 -4.66699 -1 -8c0 -14.667 7.66699 -22 23 -22h46z" />
    <glyph glyph-name="iogonek" unicode="&#x12f;" horiz-adv-x="238" 
d="M182.5 578c-17 -16 -38.167 -24 -63.5 -24s-46.5 8 -63.5 24s-25.5 36.667 -25.5 62s8.5 46 25.5 62s38.167 24 63.5 24s46.5 -8 63.5 -24s25.5 -36.667 25.5 -62s-8.5 -46 -25.5 -62zM215 -86v-83.999h-80c-21.333 0 -40 6.66699 -56 20s-24 31.666 -24 54.999
c0 6 1 13.667 3 23l16 72h-18v496h126v-496h-22l-13 -56c-0.666992 -2 -1 -4.66699 -1 -8c0 -14.667 7.66699 -22 23 -22h46z" />
    <glyph glyph-name="Idotaccent" unicode="&#x130;" horiz-adv-x="248" 
d="M190 700v-700h-132v700h132zM60.5 884c17 16 38.167 24 63.5 24s46.5 -8 63.5 -24s25.5 -36.667 25.5 -62s-8.5 -46 -25.5 -62s-38.167 -24 -63.5 -24s-46.5 8 -63.5 24s-25.5 36.667 -25.5 62s8.5 46 25.5 62z" />
    <glyph glyph-name="dotlessi" unicode="&#x131;" horiz-adv-x="238" 
d="M182 0h-126v496h126v-496z" />
    <glyph glyph-name="IJ" unicode="&#x132;" horiz-adv-x="568" 
d="M186 700v-358h-132v358h132zM514 210c0 -72 -19.668 -127.333 -59.001 -166s-94 -58 -164 -58c-73.333 0 -131.166 19.833 -173.499 59.5s-63.5 94.5 -63.5 164.5v36h132v-36c0 -31.333 8.83301 -55.833 26.5 -73.5s42.5 -26.5 74.5 -26.5
c30.667 0 54.167 8.66699 70.5 26s24.5 42 24.5 74v490h132v-490z" />
    <glyph glyph-name="ij" unicode="&#x133;" horiz-adv-x="480" 
d="M182 0h-126v496h126v-496zM55.5 702c17 16 38.167 24 63.5 24s46.5 -8 63.5 -24s25.5 -36.667 25.5 -62s-8.5 -46 -25.5 -62s-38.167 -24 -63.5 -24s-46.5 8 -63.5 24s-25.5 36.667 -25.5 62s8.5 46 25.5 62zM394 -169.5c-20 -20.333 -46.667 -30.5 -80 -30.5h-130v102
h86c18.667 0 28 10 28 30v564h126v-584c0 -34 -10 -61.167 -30 -81.5zM297.5 702c17 16 38.167 24 63.5 24s46.5 -8 63.5 -24s25.5 -36.667 25.5 -62s-8.5 -46 -25.5 -62s-38.167 -24 -63.5 -24s-46.5 8 -63.5 24s-25.5 36.667 -25.5 62s8.5 46 25.5 62z" />
    <glyph glyph-name="uni0136" unicode="&#x136;" horiz-adv-x="649" 
d="M667 700l-309 -293l294 -407h-163l-223 320l-76 -72v-248h-132v700h132v-280h10l281 280h186zM259 -77c18 18 40.666 26.999 67.999 26.999s50 -8.83301 68 -26.5s27 -40.167 27 -67.5v-116c0 -25.333 -8.5 -46.666 -25.5 -63.999s-38.167 -26 -63.5 -26h-95v68h77
c10 0 17.333 2.16699 22 6.5s7 11.5 7 21.5v19c-5.33301 -1.33301 -11.666 -2 -18.999 -2c-26 0 -48 8.66699 -66 26s-27 39 -27 65c0 28 9 51 27 69z" />
    <glyph glyph-name="uni0137" unicode="&#x137;" horiz-adv-x="580" 
d="M574 496l-233 -199l229 -297h-155l-164 220l-69 -59v-161h-126v700h126v-386l206 182h186zM229 -77c18 18 40.666 26.999 67.999 26.999s50 -8.83301 68 -26.5s27 -40.167 27 -67.5v-116c0 -25.333 -8.5 -46.666 -25.5 -63.999s-38.167 -26 -63.5 -26h-95v68h77
c10 0 17.333 2.16699 22 6.5s7 11.5 7 21.5v19c-5.33301 -1.33301 -11.666 -2 -18.999 -2c-26 0 -48 8.66699 -66 26s-27 39 -27 65c0 28 9 51 27 69z" />
    <glyph glyph-name="Lacute" unicode="&#x139;" horiz-adv-x="526" 
d="M190 700v-580h324v-120h-456v700h132zM244 880l-88 -120h-108l54 120h142z" />
    <glyph glyph-name="lacute" unicode="&#x13a;" horiz-adv-x="238" 
d="M182 0h-126v700h126v-700zM239 880l-88 -120h-108l54 120h142z" />
    <glyph glyph-name="uni013B" unicode="&#x13b;" horiz-adv-x="526" 
d="M190 700v-580h324v-120h-456v700h132zM218 -77c18 18 40.666 26.999 67.999 26.999s50 -8.83301 68 -26.5s27 -40.167 27 -67.5v-116c0 -25.333 -8.5 -46.666 -25.5 -63.999s-38.167 -26 -63.5 -26h-95v68h77c10 0 17.333 2.16699 22 6.5s7 11.5 7 21.5v19
c-5.33301 -1.33301 -11.666 -2 -18.999 -2c-26 0 -48 8.66699 -66 26s-27 39 -27 65c0 28 9 51 27 69z" />
    <glyph glyph-name="uni013C" unicode="&#x13c;" horiz-adv-x="238" 
d="M182 0h-126v700h126v-700zM51 -77c18 18 40.666 26.999 67.999 26.999s50 -8.83301 68 -26.5s27 -40.167 27 -67.5v-116c0 -25.333 -8.5 -46.666 -25.5 -63.999s-38.167 -26 -63.5 -26h-95v68h77c10 0 17.333 2.16699 22 6.5s7 11.5 7 21.5v19
c-5.33301 -1.33301 -11.666 -2 -18.999 -2c-26 0 -48 8.66699 -66 26s-27 39 -27 65c0 28 9 51 27 69z" />
    <glyph glyph-name="Lcaron" unicode="&#x13d;" horiz-adv-x="526" 
d="M190 120h324v-120h-456v700h132v-580zM383 700l-58 -182h-80l10 182h128z" />
    <glyph glyph-name="lcaron" unicode="&#x13e;" horiz-adv-x="340" 
d="M56 0v700h126v-700h-126zM365 700l-58 -182h-80l10 182h128z" />
    <glyph glyph-name="Ldot" unicode="&#x13f;" horiz-adv-x="526" 
d="M190 700v-580h324v-120h-456v700h132zM326 418.5c18 17.667 40.667 26.5 68 26.5s50 -8.83301 68 -26.5s27 -40.5 27 -68.5s-9 -50.833 -27 -68.5s-40.667 -26.5 -68 -26.5s-50 8.83301 -68 26.5s-27 40.5 -27 68.5s9 50.833 27 68.5z" />
    <glyph glyph-name="ldot" unicode="&#x140;" horiz-adv-x="436" 
d="M182 0h-126v700h126v-700zM273 328.5c18 17.667 40.667 26.5 68 26.5s50 -8.83301 68 -26.5s27 -40.5 27 -68.5s-9 -50.833 -27 -68.5s-40.667 -26.5 -68 -26.5s-50 8.83301 -68 26.5s-27 40.5 -27 68.5s9 50.833 27 68.5z" />
    <glyph glyph-name="Lslash" unicode="&#x141;" 
d="M228 700v-265l53 27l54 -107l-107 -54v-175h318v-126h-450v234l-38 -19l-54 107l92 46v332h132z" />
    <glyph glyph-name="lslash" unicode="&#x142;" horiz-adv-x="348" 
d="M338 365l-101 -44v-321h-126v265l-60 -26l-41 85l101 44v332h126v-276l60 26z" />
    <glyph glyph-name="Nacute" unicode="&#x143;" horiz-adv-x="654" 
d="M285 700l169 -566h10v566h132v-700h-227l-169 566h-10v-566h-132v700h227zM446 880l-88 -120h-108l54 120h142z" />
    <glyph glyph-name="nacute" unicode="&#x144;" horiz-adv-x="586" 
d="M180 422h10c26 54.667 77 82 153 82c38 0 71.667 -8.83301 101 -26.5s52 -42.167 68 -73.5s24 -67.333 24 -108v-296h-126v290c0 37.333 -9 65.333 -27 84s-44.333 28 -79 28c-38.667 0 -68.667 -12.833 -90 -38.5s-32 -61.5 -32 -107.5v-256h-126v496h124v-74zM409 700
l-88 -130h-108l54 130h142z" />
    <glyph glyph-name="uni0145" unicode="&#x145;" horiz-adv-x="654" 
d="M285 700l169 -566h10v566h132v-700h-227l-169 566h-10v-566h-132v700h227zM260 -77c18 18 40.666 26.999 67.999 26.999s50 -8.83301 68 -26.5s27 -40.167 27 -67.5v-116c0 -25.333 -8.5 -46.666 -25.5 -63.999s-38.167 -26 -63.5 -26h-95v68h77
c10 0 17.333 2.16699 22 6.5s7 11.5 7 21.5v19c-5.33301 -1.33301 -11.666 -2 -18.999 -2c-26 0 -48 8.66699 -66 26s-27 39 -27 65c0 28 9 51 27 69z" />
    <glyph glyph-name="uni0146" unicode="&#x146;" horiz-adv-x="586" 
d="M180 422h10c26 54.667 77 82 153 82c38 0 71.667 -8.83301 101 -26.5s52 -42.167 68 -73.5s24 -67.333 24 -108v-296h-126v290c0 37.333 -9 65.333 -27 84s-44.333 28 -79 28c-38.667 0 -68.667 -12.833 -90 -38.5s-32 -61.5 -32 -107.5v-256h-126v496h124v-74zM228 -77
c18 18 40.666 26.999 67.999 26.999s50 -8.83301 68 -26.5s27 -40.167 27 -67.5v-116c0 -25.333 -8.5 -46.666 -25.5 -63.999s-38.167 -26 -63.5 -26h-95v68h77c10 0 17.333 2.16699 22 6.5s7 11.5 7 21.5v19c-5.33301 -1.33301 -11.666 -2 -18.999 -2
c-26 0 -48 8.66699 -66 26s-27 39 -27 65c0 28 9 51 27 69z" />
    <glyph glyph-name="Ncaron" unicode="&#x147;" horiz-adv-x="654" 
d="M285 700l169 -566h10v566h132v-700h-227l-169 566h-10v-566h-132v700h227zM498 884l-94 -120h-156l-94 120h123l43 -60h12l43 60h123z" />
    <glyph glyph-name="ncaron" unicode="&#x148;" horiz-adv-x="586" 
d="M180 422h10c26 54.667 77 82 153 82c38 0 71.667 -8.83301 101 -26.5s52 -42.167 68 -73.5s24 -67.333 24 -108v-296h-126v290c0 37.333 -9 65.333 -27 84s-44.333 28 -79 28c-38.667 0 -68.667 -12.833 -90 -38.5s-32 -61.5 -32 -107.5v-256h-126v496h124v-74zM461 700
l-94 -130h-156l-94 130h123l43 -64h12l43 64h123z" />
    <glyph glyph-name="Eng" unicode="&#x14a;" horiz-adv-x="654" 
d="M596 700v-798.001c0 -33.333 -9 -58.666 -27 -75.999s-42.667 -26 -74 -26h-206v112h145c20 0 30 11 30 33v55h-95l-169 566h-10v-566h-132v700h227l169 -566h10v566h132z" />
    <glyph glyph-name="eng" unicode="&#x14b;" horiz-adv-x="594" 
d="M491 457c35.333 -35.333 53 -84.334 53 -147.001v-414c0 -28 -9.33301 -51 -28 -69s-42 -27 -70 -27h-142v106h86c18.667 0 28 10 28 30v356c0 34.667 -9.66699 61 -29 79s-47 27 -83 27c-40.667 0 -71.5 -12.167 -92.5 -36.5s-31.5 -58.166 -31.5 -101.499v-260h-126
v496h124v-74h14c11.333 26 29.833 47.167 55.5 63.5s59.5 24.5 101.5 24.5c58 0 104.667 -17.667 140 -53z" />
    <glyph glyph-name="Omacron" unicode="&#x14c;" horiz-adv-x="636" 
d="M107 640.5c51.333 49 121.666 73.5 210.999 73.5s159.666 -24.5 210.999 -73.5s77 -117.833 77 -206.5v-168c0 -88.667 -25.667 -157.5 -77 -206.5s-121.666 -73.5 -210.999 -73.5s-159.666 24.5 -210.999 73.5s-77 117.833 -77 206.5v168
c0 88.667 25.667 157.5 77 206.5zM203.5 146.5c27.667 -28.333 65.834 -42.5 114.501 -42.5s86.834 14.167 114.501 42.5s41.5 66.833 41.5 115.5v176c0 48.667 -13.833 87.167 -41.5 115.5s-65.834 42.5 -114.501 42.5s-86.834 -14.167 -114.501 -42.5
s-41.5 -66.833 -41.5 -115.5v-176c0 -48.667 13.833 -87.167 41.5 -115.5zM465 760h-294v102h294v-102z" />
    <glyph glyph-name="omacron" unicode="&#x14d;" horiz-adv-x="572" 
d="M60 386.5c22.667 39.667 53.667 70.167 93 91.5s83.666 32 132.999 32s93.666 -10.667 132.999 -32s70.333 -51.833 93 -91.5s34 -85.834 34 -138.501s-11.333 -98.834 -34 -138.501s-53.667 -70.167 -93 -91.5s-83.666 -32 -132.999 -32s-93.666 10.667 -132.999 32
s-70.333 51.833 -93 91.5s-34 85.834 -34 138.501s11.333 98.834 34 138.501zM189 136.5c24.667 -27 57 -40.5 97 -40.5s72.333 13.5 97 40.5s37 64.167 37 111.5s-12.333 84.5 -37 111.5s-57 40.5 -97 40.5s-72.333 -13.5 -97 -40.5s-37 -64.167 -37 -111.5
s12.333 -84.5 37 -111.5zM433 570h-294v102h294v-102z" />
    <glyph glyph-name="Ohungarumlaut" unicode="&#x150;" horiz-adv-x="636" 
d="M107 640.5c51.333 49 121.666 73.5 210.999 73.5s159.666 -24.5 210.999 -73.5s77 -117.833 77 -206.5v-168c0 -88.667 -25.667 -157.5 -77 -206.5s-121.666 -73.5 -210.999 -73.5s-159.666 24.5 -210.999 73.5s-77 117.833 -77 206.5v168
c0 88.667 25.667 157.5 77 206.5zM203.5 146.5c27.667 -28.333 65.834 -42.5 114.501 -42.5s86.834 14.167 114.501 42.5s41.5 66.833 41.5 115.5v176c0 48.667 -13.833 87.167 -41.5 115.5s-65.834 42.5 -114.501 42.5s-86.834 -14.167 -114.501 -42.5
s-41.5 -66.833 -41.5 -115.5v-176c0 -48.667 13.833 -87.167 41.5 -115.5zM361 880l-88 -120h-104l54 120h138zM527 880l-87 -120h-104l53 120h138z" />
    <glyph glyph-name="ohungarumlaut" unicode="&#x151;" horiz-adv-x="572" 
d="M60 386.5c22.667 39.667 53.667 70.167 93 91.5s83.666 32 132.999 32s93.666 -10.667 132.999 -32s70.333 -51.833 93 -91.5s34 -85.834 34 -138.501s-11.333 -98.834 -34 -138.501s-53.667 -70.167 -93 -91.5s-83.666 -32 -132.999 -32s-93.666 10.667 -132.999 32
s-70.333 51.833 -93 91.5s-34 85.834 -34 138.501s11.333 98.834 34 138.501zM189 136.5c24.667 -27 57 -40.5 97 -40.5s72.333 13.5 97 40.5s37 64.167 37 111.5s-12.333 84.5 -37 111.5s-57 40.5 -97 40.5s-72.333 -13.5 -97 -40.5s-37 -64.167 -37 -111.5
s12.333 -84.5 37 -111.5zM325 700l-88 -130h-104l54 130h138zM492 700l-88 -130h-104l54 130h138z" />
    <glyph glyph-name="OE" unicode="&#x152;" horiz-adv-x="552" 
d="M524 120l0.000976562 -120h-254c-76 0 -135 24.5 -177 73.5s-63 119.833 -63 212.5v128c0 90.667 21.167 161 63.5 211s101.166 75 176.499 75h248v-120h-116v-169h90v-120h-90v-171h122zM270.001 582c-36.667 0 -63.832 -14 -81.499 -42s-26.5 -66.667 -26.5 -116v-148
c0 -52 8.16699 -91.333 24.5 -118s44.166 -40 83.499 -40v464z" />
    <glyph glyph-name="oe" unicode="&#x153;" horiz-adv-x="944" 
d="M60 384c22.667 40 53.499 71.002 92.499 93.002s82.167 33 129.5 33c44.667 0 83.834 -8.83301 117.501 -26.5s60.5 -42.834 80.5 -75.501h12c20.667 32.667 47.334 57.834 80.001 75.501s69 26.5 109 26.5c48 0 90.167 -10.667 126.5 -32s64.5 -51.5 84.5 -90.5
s30 -83.5 30 -133.5v-43h-361c1.33301 -34 13.833 -62 37.5 -84s53.167 -33 88.5 -33c32 0 56.833 7 74.5 21s31.5 32.333 41.5 55l103 -54c-46 -86.667 -119 -130 -219 -130c-44.667 0 -84 9.16699 -118 27.5s-59.667 43.166 -77 74.499h-12
c-20 -32.667 -46.833 -57.834 -80.5 -75.501s-72.834 -26.5 -117.501 -26.5c-47.333 0 -90.5 11 -129.5 33s-69.833 53 -92.5 93s-34 85.333 -34 136s11.333 96 34 136zM758.499 375.002c-20.333 18 -46.501 27 -78.501 27c-32.667 0 -59.5 -9 -80.5 -27
s-33.5 -41.333 -37.5 -70h232c-3.33301 28.667 -15.166 52 -35.499 70zM188.998 139.502c24.667 -27.667 57 -41.5 97 -41.5s72.333 13.833 97 41.5s37 63.834 37 108.501s-12.333 80.834 -37 108.501s-57 41.5 -97 41.5s-72.333 -13.833 -97 -41.5
s-37 -63.834 -37 -108.501s12.333 -80.834 37 -108.501z" />
    <glyph glyph-name="Racute" unicode="&#x154;" horiz-adv-x="616" 
d="M548.5 345.5c-27.667 -37 -64.5 -62.167 -110.5 -75.5l144 -270h-149l-128 260h-115v-260h-132v700h308c44 0 82.833 -9.16699 116.5 -27.5s60 -44 79 -77s28.5 -71.5 28.5 -115.5c0 -52.667 -13.833 -97.5 -41.5 -134.5zM190 379h163
c31.333 0 56.666 9.16699 75.999 27.5s29 42.833 29 73.5s-9.66699 55 -29 73s-44.666 27 -75.999 27h-163v-201zM417 880l-88 -120h-108l54 120h142z" />
    <glyph glyph-name="racute" unicode="&#x155;" horiz-adv-x="374" 
d="M190 426c9.33301 25.333 24.167 43.667 44.5 55s46.833 17 79.5 17h52v-106h-74c-33.333 0 -60 -8.83301 -80 -26.5s-30 -43.5 -30 -77.5v-288h-126v496h124v-70h10zM322.001 700.001l-88 -130h-108l54 130h142z" />
    <glyph glyph-name="uni0156" unicode="&#x156;" horiz-adv-x="616" 
d="M548.5 345.5c-27.667 -37 -64.5 -62.167 -110.5 -75.5l144 -270h-149l-128 260h-115v-260h-132v700h308c44 0 82.833 -9.16699 116.5 -27.5s60 -44 79 -77s28.5 -71.5 28.5 -115.5c0 -52.667 -13.833 -97.5 -41.5 -134.5zM190 379h163
c31.333 0 56.666 9.16699 75.999 27.5s29 42.833 29 73.5s-9.66699 55 -29 73s-44.666 27 -75.999 27h-163v-201zM239 -77c18 18 40.666 26.999 67.999 26.999s50 -8.83301 68 -26.5s27 -40.167 27 -67.5v-116c0 -25.333 -8.5 -46.666 -25.5 -63.999s-38.167 -26 -63.5 -26
h-95v68h77c10 0 17.333 2.16699 22 6.5s7 11.5 7 21.5v19c-5.33301 -1.33301 -11.666 -2 -18.999 -2c-26 0 -48 8.66699 -66 26s-27 39 -27 65c0 28 9 51 27 69z" />
    <glyph glyph-name="uni0157" unicode="&#x157;" horiz-adv-x="374" 
d="M190 426c9.33301 25.333 24.167 43.667 44.5 55s46.833 17 79.5 17h52v-106h-74c-33.333 0 -60 -8.83301 -80 -26.5s-30 -43.5 -30 -77.5v-288h-126v496h124v-70h10zM53.001 -76.999c18 18 40.666 26.999 67.999 26.999s50 -8.83301 68 -26.5s27 -40.167 27 -67.5v-116
c0 -25.333 -8.5 -46.666 -25.5 -63.999s-38.167 -26 -63.5 -26h-95v68h77c10 0 17.333 2.16699 22 6.5s7 11.5 7 21.5v19c-5.33301 -1.33301 -11.666 -2 -18.999 -2c-26 0 -48 8.66699 -66 26s-27 39 -27 65c0 28 9 51 27 69z" />
    <glyph glyph-name="Rcaron" unicode="&#x158;" horiz-adv-x="616" 
d="M548.5 345.5c-27.667 -37 -64.5 -62.167 -110.5 -75.5l144 -270h-149l-128 260h-115v-260h-132v700h308c44 0 82.833 -9.16699 116.5 -27.5s60 -44 79 -77s28.5 -71.5 28.5 -115.5c0 -52.667 -13.833 -97.5 -41.5 -134.5zM190 379h163
c31.333 0 56.666 9.16699 75.999 27.5s29 42.833 29 73.5s-9.66699 55 -29 73s-44.666 27 -75.999 27h-163v-201zM469 884l-94 -120h-156l-94 120h123l43 -60h12l43 60h123z" />
    <glyph glyph-name="rcaron" unicode="&#x159;" horiz-adv-x="374" 
d="M190 426c9.33301 25.333 24.167 43.667 44.5 55s46.833 17 79.5 17h52v-106h-74c-33.333 0 -60 -8.83301 -80 -26.5s-30 -43.5 -30 -77.5v-288h-126v496h124v-70h10zM374.001 700.001l-94 -130h-156l-94 130h123l43 -64h12l43 64h123z" />
    <glyph glyph-name="Sacute" unicode="&#x15a;" horiz-adv-x="586" 
d="M477 655c47.333 -39.333 70.999 -95.666 70.999 -168.999v-16h-130v16c0 74.667 -43 112 -129 112c-39.333 0 -68.666 -7.33301 -87.999 -22s-29 -35.334 -29 -62.001c0 -25.333 9.5 -45 28.5 -59s50.5 -26 94.5 -36l23 -5c80.667 -17.333 141.5 -41.833 182.5 -73.5
s61.5 -77.834 61.5 -138.501c0 -42.667 -10.833 -80.334 -32.5 -113.001s-52.5 -58 -92.5 -76s-86.667 -27 -140 -27c-54 0 -101.833 9.66699 -143.5 29s-74 47.166 -97 83.499s-34.5 79.5 -34.5 129.5v10h130v-10c0 -41.333 12.667 -72.666 38 -93.999s61 -32 107 -32
c44 0 77.5 8.83301 100.5 26.5s34.5 40.834 34.5 69.501c0 27.333 -10.5 47.833 -31.5 61.5s-56.167 25.834 -105.5 36.501l-23 5c-78.667 17.333 -136.667 41.333 -174 72s-56 76.334 -56 137.001c0 63.333 22.333 113.166 67 149.499s104.667 54.5 180 54.5
c78 0 140.667 -19.667 188 -59zM410.999 880l-88 -120h-108l54 120h142z" />
    <glyph glyph-name="sacute" unicode="&#x15b;" horiz-adv-x="500" 
d="M101 469.5c35.333 27 83.002 40.498 143.002 40.498c54 0 99 -12.167 135 -36.5s60.333 -57.166 73 -98.499l-114 -35c-10.667 49.333 -42 74 -94 74c-24 0 -42.333 -4.33301 -55 -13s-19 -20.667 -19 -36c0 -16 6.5 -28.167 19.5 -36.5s33.167 -15.166 60.5 -20.499
l26 -5c43.333 -8.66699 78.666 -18.334 105.999 -29.001s49.166 -26 65.499 -46s24.5 -46.333 24.5 -79c0 -51.333 -18.667 -91.333 -56 -120s-88 -43 -152 -43c-65.333 0 -118.5 14 -159.5 42s-65.833 68 -74.5 120l116 30c11.333 -64 50.666 -96 117.999 -96
c28 0 49.333 5.33301 64 16s22 24.334 22 41.001c0 15.333 -7 27.5 -21 36.5s-37 16.5 -69 22.5l-26 5c-59.333 11.333 -105.166 28.5 -137.499 51.5s-48.5 57.167 -48.5 102.5c0 48 17.667 85.5 53 112.5zM369.002 699.998l-88 -130h-108l54 130h142z" />
    <glyph glyph-name="Scedilla" unicode="&#x15e;" horiz-adv-x="586" 
d="M501.5 56c-40.333 -38.667 -95.167 -61.334 -164.5 -68.001l-9 -46h12c4.66699 6 11.5 11.167 20.5 15.5s19.5 6.5 31.5 6.5c20.667 0 38.667 -6.83301 54 -20.5s23 -33.5 23 -59.5c0 -30 -10.333 -53.833 -31 -71.5s-47 -26.5 -79 -26.5c-18 0 -33.333 1.66699 -46 5
s-25.334 8.33301 -38.001 15l26 68c15.333 -9.33301 32 -14 50 -14c10 0 18.167 2.33301 24.5 7s9.5 11 9.5 19c0 6 -1.83301 11.167 -5.5 15.5s-8.5 6.5 -14.5 6.5c-11.333 0 -18 -4.66699 -20 -14h-97v12l17 81c-74 5.33301 -133 29.333 -177 72s-66 99 -66 169v10h130
v-10c0 -41.333 12.667 -72.666 38 -93.999s61 -32 107 -32c44 0 77.5 8.83301 100.5 26.5s34.5 40.834 34.5 69.501c0 27.333 -10.5 47.833 -31.5 61.5s-56.167 25.834 -105.5 36.501l-23 5c-78.667 17.333 -136.667 41.333 -174 72s-56 76.334 -56 137.001
c0 63.333 22.333 113.166 67 149.499s104.667 54.5 180 54.5c78 0 140.667 -19.667 188 -59s71 -95.666 71 -168.999v-16h-130v16c0 74.667 -43 112 -129 112c-39.333 0 -68.666 -7.33301 -87.999 -22s-29 -35.334 -29 -62.001c0 -25.333 9.5 -45 28.5 -59
s50.5 -26 94.5 -36l23 -5c80.667 -17.333 141.5 -41.833 182.5 -73.5s61.5 -77.834 61.5 -138.501c0 -58.667 -20.167 -107.334 -60.5 -146.001z" />
    <glyph glyph-name="scedilla" unicode="&#x15f;" horiz-adv-x="500" 
d="M420 32.5c-34.667 -28.333 -81.9971 -43.834 -141.997 -46.501l-8 -44h12c4.66699 6 11.5 11.167 20.5 15.5s19.5 6.5 31.5 6.5c20.667 0 38.667 -6.83301 54 -20.5s23 -33.5 23 -59.5c0 -30 -10.333 -53.833 -31 -71.5s-47 -26.5 -79 -26.5c-18 0 -33.333 1.66699 -46 5
s-25.334 8.33301 -38.001 15l26 68c15.333 -9.33301 32 -14 50 -14c10 0 18.167 2.33301 24.5 7s9.5 11 9.5 19c0 6 -1.83301 11.167 -5.5 15.5s-8.5 6.5 -14.5 6.5c-11.333 0 -18 -4.66699 -20 -14h-97v12l18 84c-50 7.33301 -90.5 24.666 -121.5 51.999
s-49.833 62.666 -56.5 105.999l116 30c11.333 -64 50.666 -96 117.999 -96c28 0 49.333 5.33301 64 16s22 24.334 22 41.001c0 15.333 -7 27.5 -21 36.5s-37 16.5 -69 22.5l-26 5c-59.333 11.333 -105.166 28.5 -137.499 51.5s-48.5 57.167 -48.5 102.5
c0 48 17.667 85.5 53 112.5s83 40.5 143 40.5c54 0 99 -12.167 135 -36.5s60.333 -57.166 73 -98.499l-114 -35c-10.667 49.333 -42 74 -94 74c-24 0 -42.333 -4.33301 -55 -13s-19 -20.667 -19 -36c0 -16 6.5 -28.167 19.5 -36.5s33.167 -15.166 60.5 -20.499l26 -5
c43.333 -8.66699 78.666 -18.334 105.999 -29.001s49.166 -26 65.499 -46s24.5 -46.333 24.5 -79c0 -49.333 -17.333 -88.166 -52 -116.499z" />
    <glyph glyph-name="Scaron" unicode="&#x160;" horiz-adv-x="586" 
d="M477 655c47.333 -39.333 70.999 -95.666 70.999 -168.999v-16h-130v16c0 74.667 -43 112 -129 112c-39.333 0 -68.666 -7.33301 -87.999 -22s-29 -35.334 -29 -62.001c0 -25.333 9.5 -45 28.5 -59s50.5 -26 94.5 -36l23 -5c80.667 -17.333 141.5 -41.833 182.5 -73.5
s61.5 -77.834 61.5 -138.501c0 -42.667 -10.833 -80.334 -32.5 -113.001s-52.5 -58 -92.5 -76s-86.667 -27 -140 -27c-54 0 -101.833 9.66699 -143.5 29s-74 47.166 -97 83.499s-34.5 79.5 -34.5 129.5v10h130v-10c0 -41.333 12.667 -72.666 38 -93.999s61 -32 107 -32
c44 0 77.5 8.83301 100.5 26.5s34.5 40.834 34.5 69.501c0 27.333 -10.5 47.833 -31.5 61.5s-56.167 25.834 -105.5 36.501l-23 5c-78.667 17.333 -136.667 41.333 -174 72s-56 76.334 -56 137.001c0 63.333 22.333 113.166 67 149.499s104.667 54.5 180 54.5
c78 0 140.667 -19.667 188 -59zM462.999 884l-94 -120h-156l-94 120h123l43 -60h12l43 60h123z" />
    <glyph glyph-name="scaron" unicode="&#x161;" horiz-adv-x="500" 
d="M101 469.5c35.333 27 83.002 40.498 143.002 40.498c54 0 99 -12.167 135 -36.5s60.333 -57.166 73 -98.499l-114 -35c-10.667 49.333 -42 74 -94 74c-24 0 -42.333 -4.33301 -55 -13s-19 -20.667 -19 -36c0 -16 6.5 -28.167 19.5 -36.5s33.167 -15.166 60.5 -20.499
l26 -5c43.333 -8.66699 78.666 -18.334 105.999 -29.001s49.166 -26 65.499 -46s24.5 -46.333 24.5 -79c0 -51.333 -18.667 -91.333 -56 -120s-88 -43 -152 -43c-65.333 0 -118.5 14 -159.5 42s-65.833 68 -74.5 120l116 30c11.333 -64 50.666 -96 117.999 -96
c28 0 49.333 5.33301 64 16s22 24.334 22 41.001c0 15.333 -7 27.5 -21 36.5s-37 16.5 -69 22.5l-26 5c-59.333 11.333 -105.166 28.5 -137.499 51.5s-48.5 57.167 -48.5 102.5c0 48 17.667 85.5 53 112.5zM421.002 699.998l-94 -130h-156l-94 130h123l43 -64h12l43 64h123z
" />
    <glyph glyph-name="uni0162" unicode="&#x162;" horiz-adv-x="572" 
d="M320 0l-10.999 -58h12c4.66699 6 11.5 11.167 20.5 15.5s19.5 6.5 31.5 6.5c20.667 0 38.667 -6.83301 54 -20.5s23 -33.5 23 -59.5c0 -30 -10.333 -53.833 -31 -71.5s-47 -26.5 -79 -26.5c-18 0 -33.333 1.66699 -46 5s-25.334 8.33301 -38.001 15l26 68
c15.333 -9.33301 32 -14 50 -14c10 0 18.167 2.33301 24.5 7s9.5 11 9.5 19c0 6 -1.83301 11.167 -5.5 15.5s-8.5 6.5 -14.5 6.5c-11.333 0 -18 -4.66699 -20 -14h-97v12l20 94h-29v580h-212v120h556v-120h-212v-580h-32z" />
    <glyph glyph-name="uni0163" unicode="&#x163;" horiz-adv-x="418" 
d="M254 394l0.000976562 -261.999c0 -20 9.33301 -30 28 -30h96v-102h-134l-11 -58h12c4.66699 6 11.5 11.167 20.5 15.5s19.5 6.5 31.5 6.5c20.667 0 38.667 -6.83301 54 -20.5s23 -33.5 23 -59.5c0 -30 -10.333 -53.833 -31 -71.5s-47 -26.5 -79 -26.5
c-18 0 -33.333 1.66699 -46 5s-25.334 8.33301 -38.001 15l26 68c15.333 -9.33301 32 -14 50 -14c10 0 18.167 2.33301 24.5 7s9.5 11 9.5 19c0 6 -1.83301 11.167 -5.5 15.5s-8.5 6.5 -14.5 6.5c-11.333 0 -18 -4.66699 -20 -14h-97v12l24 110
c-16 9.33301 -28.167 22.166 -36.5 38.499s-12.5 35.5 -12.5 57.5v282h-124v102h124v154h126v-154h136v-102h-136z" />
    <glyph glyph-name="Tcaron" unicode="&#x164;" horiz-adv-x="572" 
d="M564 700v-120h-212v-580h-132v580h-212v120h556zM458 884l-94 -120h-156l-94 120h123l43 -60h12l43 60h123z" />
    <glyph glyph-name="tcaron" unicode="&#x165;" horiz-adv-x="418" 
d="M457 745l-58 -182h-80l10 182h128zM128 650h126v-154h136v-102h-136v-262c0 -20 9.33301 -30 28 -30h96v-102h-140c-33.333 0 -60 10.167 -80 30.5s-30 47.5 -30 81.5v282h-124v102h124v154z" />
    <glyph glyph-name="Tbar" unicode="&#x166;" horiz-adv-x="572" 
d="M564 580h-212v-174h108v-110h-108v-296h-132v296h-108v110h108v174h-212v120h556v-120z" />
    <glyph glyph-name="tbar" unicode="&#x167;" horiz-adv-x="420" 
d="M256 390v-84h136v-106h-136v-64c0 -20 9.33301 -30 28 -30h80v-106h-136c-28 0 -51.333 9 -70 27s-28 41 -28 69v104h-126v106h126v84h-126v106h126v154h126v-154h136v-106h-136z" />
    <glyph glyph-name="Umacron" unicode="&#x16a;" horiz-adv-x="656" 
d="M186 242c0 -43.333 12.333 -77.166 37 -101.499s59.667 -36.5 105 -36.5s80.333 12.167 105 36.5s37 58.166 37 101.499v458h132v-454c0 -80.667 -24.333 -144.167 -73 -190.5s-115.667 -69.5 -201 -69.5s-152.333 23.167 -201 69.5s-73 109.833 -73 190.5v454h132v-458z
M475 760h-294v102h294v-102z" />
    <glyph glyph-name="umacron" unicode="&#x16b;" horiz-adv-x="594" 
d="M414 74h-10c-26 -54.667 -77 -82 -153 -82c-38 0 -71.667 8.83301 -101 26.5s-52 42.167 -68 73.5s-24 67.333 -24 108v296h126v-290c0 -37.333 9 -65.333 27 -84s44.333 -28 79 -28c38.667 0 68.667 12.833 90 38.5s32 61.5 32 107.5v256h126v-496h-124v74zM445 570
h-294v102h294v-102z" />
    <glyph glyph-name="Ubreve" unicode="&#x16c;" horiz-adv-x="656" 
d="M186 242c0 -43.333 12.333 -77.166 37 -101.499s59.667 -36.5 105 -36.5s80.333 12.167 105 36.5s37 58.166 37 101.499v458h132v-454c0 -80.667 -24.333 -144.167 -73 -190.5s-115.667 -69.5 -201 -69.5s-152.333 23.167 -201 69.5s-73 109.833 -73 190.5v454h132v-458z
M460 872c0 -37.333 -11.999 -67 -35.999 -89s-56 -33 -96 -33s-72 11 -96 33s-36 51.667 -36 89v8h90v-2c0 -12 3.5 -21.667 10.5 -29s17.5 -11 31.5 -11c13.333 0 23.666 3.66699 30.999 11s11 17 11 29v2h90v-8z" />
    <glyph glyph-name="ubreve" unicode="&#x16d;" horiz-adv-x="594" 
d="M414 74h-10c-26 -54.667 -77 -82 -153 -82c-38 0 -71.667 8.83301 -101 26.5s-52 42.167 -68 73.5s-24 67.333 -24 108v296h126v-290c0 -37.333 9 -65.333 27 -84s44.333 -28 79 -28c38.667 0 68.667 12.833 90 38.5s32 61.5 32 107.5v256h126v-496h-124v74zM430 680
c0 -37.333 -11.998 -67 -35.998 -89s-56 -33 -96 -33s-72 11 -96 33s-36 51.667 -36 89v20h90v-12c0 -12.667 3.66699 -22.834 11 -30.501s17.666 -11.5 30.999 -11.5s23.666 3.83301 30.999 11.5s11 17.834 11 30.501v12h90v-20z" />
    <glyph glyph-name="Uring" unicode="&#x16e;" horiz-adv-x="656" 
d="M186 242c0 -43.333 12.333 -77.166 37 -101.499s59.667 -36.5 105 -36.5s80.333 12.167 105 36.5s37 58.166 37 101.499v458h132v-454c0 -80.667 -24.333 -144.167 -73 -190.5s-115.667 -69.5 -201 -69.5s-152.333 23.167 -201 69.5s-73 109.833 -73 190.5v454h132v-458z
M251 914c20.667 20 46.3311 30 76.998 30s56.334 -9.83301 77.001 -29.5s31 -44.5 31 -74.5c0 -30.667 -10.667 -55.667 -32 -75s-46.666 -29 -75.999 -29c-30 0 -55.5 10 -76.5 30s-31.5 44.667 -31.5 74s10.333 54 31 74zM306.497 818.5
c5.66699 -5.66699 12.834 -8.5 21.501 -8.5s15.834 2.83301 21.501 8.5s8.5 12.834 8.5 21.501s-2.83301 15.834 -8.5 21.501s-12.834 8.5 -21.501 8.5s-15.834 -2.83301 -21.501 -8.5s-8.5 -12.834 -8.5 -21.501s2.83301 -15.834 8.5 -21.501z" />
    <glyph glyph-name="uring" unicode="&#x16f;" horiz-adv-x="594" 
d="M414 74h-10c-26 -54.667 -77 -82 -153 -82c-38 0 -71.667 8.83301 -101 26.5s-52 42.167 -68 73.5s-24 67.333 -24 108v296h126v-290c0 -37.333 9 -65.333 27 -84s44.333 -28 79 -28c38.667 0 68.667 12.833 90 38.5s32 61.5 32 107.5v256h126v-496h-124v74zM221 713
c20.667 20 46.3311 30 76.998 30s56.334 -9.83301 77.001 -29.5s31 -44.5 31 -74.5c0 -30.667 -10.667 -55.667 -32 -75s-46.666 -29 -75.999 -29c-30 0 -55.5 10 -76.5 30s-31.5 44.667 -31.5 74s10.333 54 31 74zM276.497 617.5c5.66699 -5.66699 12.834 -8.5 21.501 -8.5
s15.834 2.83301 21.501 8.5s8.5 12.834 8.5 21.501s-2.83301 15.834 -8.5 21.501s-12.834 8.5 -21.501 8.5s-15.834 -2.83301 -21.501 -8.5s-8.5 -12.834 -8.5 -21.501s2.83301 -15.834 8.5 -21.501z" />
    <glyph glyph-name="Uhungarumlaut" unicode="&#x170;" horiz-adv-x="656" 
d="M186 242c0 -43.333 12.333 -77.166 37 -101.499s59.667 -36.5 105 -36.5s80.333 12.167 105 36.5s37 58.166 37 101.499v458h132v-454c0 -80.667 -24.333 -144.167 -73 -190.5s-115.667 -69.5 -201 -69.5s-152.333 23.167 -201 69.5s-73 109.833 -73 190.5v454h132v-458z
M371 880l-88 -120h-104l54 120h138zM537 880l-87 -120h-104l53 120h138z" />
    <glyph glyph-name="uhungarumlaut" unicode="&#x171;" horiz-adv-x="594" 
d="M414 74h-10c-26 -54.667 -77 -82 -153 -82c-38 0 -71.667 8.83301 -101 26.5s-52 42.167 -68 73.5s-24 67.333 -24 108v296h126v-290c0 -37.333 9 -65.333 27 -84s44.333 -28 79 -28c38.667 0 68.667 12.833 90 38.5s32 61.5 32 107.5v256h126v-496h-124v74zM337 700
l-88 -130h-104l54 130h138zM504 700l-88 -130h-104l54 130h138z" />
    <glyph glyph-name="Uogonek" unicode="&#x172;" horiz-adv-x="656" 
d="M602 700v-453.998c0 -74 -20.667 -133.833 -62 -179.5s-99.333 -71.834 -174 -78.501l-10 -44c-0.666992 -2 -1 -4.66699 -1 -8c0 -14.667 7.66699 -22 23 -22h46v-84h-80c-21.333 0 -40 6.66699 -56 20s-24 31.666 -24 54.999c0 6 1 13.667 3 23l14 61
c-72 8.66699 -127.833 35.5 -167.5 80.5s-59.5 103.833 -59.5 176.5v454h132v-458c0 -43.333 12.333 -77.166 37 -101.499s59.667 -36.5 105 -36.5s80.333 12.167 105 36.5s37 58.166 37 101.499v458h132z" />
    <glyph glyph-name="uogonek" unicode="&#x173;" horiz-adv-x="594" 
d="M572 -86v-83.999h-80c-21.333 0 -40 6.66699 -56 20s-24 31.666 -24 54.999c0 6 1 13.667 3 23l16 72h-17v74h-10c-26 -54.667 -77 -82 -153 -82c-38 0 -71.667 8.83301 -101 26.5s-52 42.167 -68 73.5s-24 67.333 -24 108v296h126v-290c0 -37.333 9 -65.333 27 -84
s44.333 -28 79 -28c38.667 0 68.667 12.833 90 38.5s32 61.5 32 107.5v256h126v-496h-21l-13 -56c-0.666992 -2 -1 -4.66699 -1 -8c0 -14.667 7.66699 -22 23 -22h46z" />
    <glyph glyph-name="Wcircumflex" unicode="&#x174;" horiz-adv-x="896" 
d="M142 700l85 -572h10l108 572h206l108 -572h10l85 572h132l-112 -700h-213l-108 572h-10l-108 -572h-213l-112 700h132zM454 820h-12l-43 -60h-123l94 120h156l94 -120h-123z" />
    <glyph glyph-name="wcircumflex" unicode="&#x175;" horiz-adv-x="744" 
d="M136 496l60 -392h10l79 392h174l79 -392h10l60 392h126l-98 -496h-180l-79 392h-10l-79 -392h-180l-98 496h126zM378 634h-12l-43 -64h-123l94 130h156l94 -130h-123z" />
    <glyph glyph-name="Ycircumflex" unicode="&#x176;" horiz-adv-x="612" 
d="M142 700l159 -310h10l159 310h148l-246 -453v-247h-132v247l-246 453h148zM312 820h-12l-43 -60h-123l94 120h156l94 -120h-123z" />
    <glyph glyph-name="ycircumflex" unicode="&#x177;" horiz-adv-x="548" 
d="M410 496h136l-272 -696h-136l70 168l-206 528h136l131 -358h10zM280 634h-12l-43 -64h-123l94 130h156l94 -130h-123z" />
    <glyph glyph-name="Ydieresis" unicode="&#x178;" horiz-adv-x="612" 
d="M142 700l159 -310h10l159 310h148l-246 -453v-247h-132v247l-246 453h148zM134.5 884c17 16 38.167 24 63.5 24s46.5 -8 63.5 -24s25.5 -36.667 25.5 -62s-8.5 -46 -25.5 -62s-38.167 -24 -63.5 -24s-46.5 8 -63.5 24s-25.5 36.667 -25.5 62s8.5 46 25.5 62zM350.5 884
c17 16 38.167 24 63.5 24s46.5 -8 63.5 -24s25.5 -36.667 25.5 -62s-8.5 -46 -25.5 -62s-38.167 -24 -63.5 -24s-46.5 8 -63.5 24s-25.5 36.667 -25.5 62s8.5 46 25.5 62z" />
    <glyph glyph-name="Zacute" unicode="&#x179;" horiz-adv-x="570" 
d="M540 700v-114l-347 -468h349v-118h-514v114l347 468h-337v118h502zM416 880l-88 -120h-108l54 120h142z" />
    <glyph glyph-name="zacute" unicode="&#x17a;" horiz-adv-x="528" 
d="M484 496v-92l-272 -302h280v-102h-450v92l272 302h-262v102h432zM385 700l-88 -130h-108l54 130h142z" />
    <glyph glyph-name="Zdotaccent" unicode="&#x17b;" horiz-adv-x="570" 
d="M540 700v-114l-347 -468h349v-118h-514v114l347 468h-337v118h502zM232.5 884c17 16 38.167 24 63.5 24s46.5 -8 63.5 -24s25.5 -36.667 25.5 -62s-8.5 -46 -25.5 -62s-38.167 -24 -63.5 -24s-46.5 8 -63.5 24s-25.5 36.667 -25.5 62s8.5 46 25.5 62z" />
    <glyph glyph-name="zdotaccent" unicode="&#x17c;" horiz-adv-x="528" 
d="M484 496v-92l-272 -302h280v-102h-450v92l272 302h-262v102h432zM201.5 702c17 16 38.167 24 63.5 24s46.5 -8 63.5 -24s25.5 -36.667 25.5 -62s-8.5 -46 -25.5 -62s-38.167 -24 -63.5 -24s-46.5 8 -63.5 24s-25.5 36.667 -25.5 62s8.5 46 25.5 62z" />
    <glyph glyph-name="Zcaron" unicode="&#x17d;" horiz-adv-x="570" 
d="M540 700v-114l-347 -468h349v-118h-514v114l347 468h-337v118h502zM468 884l-94 -120h-156l-94 120h123l43 -60h12l43 60h123z" />
    <glyph glyph-name="zcaron" unicode="&#x17e;" horiz-adv-x="528" 
d="M484 496v-92l-272 -302h280v-102h-450v92l272 302h-262v102h432zM437 700l-94 -130h-156l-94 130h123l43 -64h12l43 64h123z" />
    <glyph glyph-name="florin" unicode="&#x192;" 
d="M246 598c0 28.667 9.66699 52.834 29 72.501s43.333 29.5 72 29.5h222v-120h-170c-18 0 -27 -10 -27 -30v-88h145v-120h-145v-240c0 -28.667 -9.66699 -52.834 -29 -72.501s-43.333 -29.5 -72 -29.5h-207v120h155c18 0 27 10 27 30v192h-141v120h141v136z" />
    <glyph glyph-name="Aringacute" unicode="&#x1fa;" horiz-adv-x="602" 
d="M222.5 766c-21 20 -31.501 44.667 -31.501 74c0 28.667 9.5 52.667 28.5 72s43.167 30 72.5 32l25 56h142l-72 -98c13.333 -17.333 20 -38 20 -62c0 -30.667 -10.667 -55.667 -32 -75s-46.666 -29 -75.999 -29c-30 0 -55.5 10 -76.5 30zM320.499 818.5
c5.66699 5.66699 8.5 12.834 8.5 21.501s-2.83301 15.834 -8.5 21.501s-12.834 8.5 -21.501 8.5s-15.834 -2.83301 -21.501 -8.5s-8.5 -12.834 -8.5 -21.501s2.83301 -15.834 8.5 -21.501s12.834 -8.5 21.501 -8.5s15.834 2.83301 21.501 8.5zM403.999 700l196 -700h-135
l-42 156h-244l-42 -156h-135l196 700h206zM210.999 276h180l-85 316h-10z" />
    <glyph glyph-name="aringacute" unicode="&#x1fb;" horiz-adv-x="532" 
d="M124.5 471c36.333 26 84.835 39 145.502 39c66 0 117.833 -16.5 155.5 -49.5s56.5 -80.167 56.5 -141.5v-319h-120v58h-14c-7.33301 -17.333 -21.5 -33.666 -42.5 -48.999s-51.5 -23 -91.5 -23c-52.667 0 -96.167 14.167 -130.5 42.5s-51.5 67.166 -51.5 116.499
s17.5 87.5 52.5 114.5s81.5 40.5 139.5 40.5h136v28c0 24.667 -7.66699 44.5 -23 59.5s-38.333 22.5 -69 22.5c-30 0 -53.333 -7.16699 -70 -21.5s-27.334 -33.5 -32.001 -57.5l-116 39c13.333 41.333 38.166 75 74.499 101zM179.502 104.5
c14.333 -11 34.5 -16.5 60.5 -16.5c35.333 0 64.166 10.167 86.499 30.5s33.5 46.833 33.5 79.5v8h-127c-23.333 0 -41.666 -5.33301 -54.999 -16s-20 -24.667 -20 -42c0 -18 7.16699 -32.5 21.5 -43.5zM356.002 707c16.667 -18 25 -40.666 25 -67.999
c0 -30.667 -10.667 -55.667 -32 -75s-46.666 -29 -75.999 -29c-30 0 -55.5 10 -76.5 30s-31.5 44.667 -31.5 74c0 27.333 9.16699 50.666 27.5 69.999s41.166 30.333 68.499 33l36 88h142zM294.502 617.501c5.66699 5.66699 8.5 12.834 8.5 21.501
s-2.83301 15.834 -8.5 21.501s-12.834 8.5 -21.501 8.5s-15.834 -2.83301 -21.501 -8.5s-8.5 -12.834 -8.5 -21.501s2.83301 -15.834 8.5 -21.501s12.834 -8.5 21.501 -8.5s15.834 2.83301 21.501 8.5z" />
    <glyph glyph-name="AEacute" unicode="&#x1fc;" horiz-adv-x="547" 
d="M397 124h122v-124h-254v154h-98l-32 -154h-133l158 700h353v-124h-116v-163h90v-124h-90v-165zM265 276v300h-10l-63 -300h73zM435 880l-88 -120h-108l54 120h142z" />
    <glyph glyph-name="aeacute" unicode="&#x1fd;" horiz-adv-x="848" 
d="M826 205l-341.001 -0.000976562c1.33301 -32 12.833 -58.5 34.5 -79.5s49.5 -31.5 83.5 -31.5c30 0 54 6.33301 72 19s33 28.667 45 48l93 -67c-23.333 -33.333 -50.5 -59.666 -81.5 -78.999s-71.833 -29 -122.5 -29c-38 0 -72.667 8.16699 -104 24.5
s-57.666 38.833 -78.999 67.5h-13c-14 -23.333 -35.167 -44.5 -63.5 -63.5s-68.166 -28.5 -119.499 -28.5c-59.333 0 -107.166 13.833 -143.499 41.5s-54.5 66.5 -54.5 116.5s17.833 88.333 53.5 115s83.167 40 142.5 40h134v29c0 24 -8.66699 43.667 -26 59
s-41.333 23 -72 23c-28.667 0 -51.834 -7.16699 -69.501 -21.5s-29.834 -33.5 -36.501 -57.5l-112 39c14.667 41.333 40 75 76 101s83.333 39 142 39c71.333 0 125.333 -23.333 162 -70h14c20 22.667 43.833 40 71.5 52s57.5 18 89.5 18c46.667 0 87 -10.833 121 -32.5
s59.833 -51 77.5 -88s26.5 -78.167 26.5 -123.5v-61zM701.999 298.999c-1.33301 31.333 -11.502 56.333 -30.502 75s-44.167 28 -75.5 28c-33.333 0 -59.666 -9.5 -78.999 -28.5s-29.666 -43.833 -30.999 -74.5h216zM361.997 204.999h-125.001
c-25.333 0 -45.166 -4.83301 -59.499 -14.5s-21.5 -23.5 -21.5 -41.5c0 -18.667 7.66699 -33.5 23 -44.5s37 -16.5 65 -16.5c35.333 0 63.833 10.167 85.5 30.5s32.5 46.833 32.5 79.5v7zM557.996 699.999l-88 -130h-108l54 130h142z" />
    <glyph glyph-name="Oslashacute" unicode="&#x1fe;" horiz-adv-x="636" 
d="M575.5 577.5c20.333 -40.333 30.5 -88.168 30.5 -143.501v-168c0 -88.667 -25.667 -157.5 -77 -206.5s-121.666 -73.5 -210.999 -73.5c-22 0 -41 1.33301 -57 4l-27 -83l-110 34l28 85c-39.333 22.667 -69.5 54.334 -90.5 95.001s-31.5 89 -31.5 145v168
c0 88.667 25.667 157.5 77 206.5s121.666 73.5 210.999 73.5c24 0 44.333 -1.33301 61 -4l24 71l109 -34l-25 -75c38.667 -22.667 68.167 -54.167 88.5 -94.5zM195 155.998l146.002 439c-4.66699 0.666992 -12.334 1 -23.001 1c-48.667 0 -86.834 -14.167 -114.501 -42.5
s-41.5 -66.833 -41.5 -115.5v-176c0 -42.667 11 -78 33 -106zM474.002 437.998c0 40.667 -10.001 74.667 -30.001 102l-145 -435c4 -0.666992 10.333 -1 19 -1c48.667 0 86.834 14.167 114.501 42.5s41.5 66.833 41.5 115.5v176zM438.001 879.998l-88 -120h-108l54 120h142z
" />
    <glyph glyph-name="oslashacute" unicode="&#x1ff;" horiz-adv-x="572" 
d="M526.5 357c13 -32.667 19.5 -68.999 19.5 -108.999c0 -52.667 -11.333 -98.834 -34 -138.501s-53.667 -70.167 -93 -91.5s-83.666 -32 -132.999 -32c-35.333 0 -68.333 5.66699 -99 17l-45 -70l-84 52l45 69c-24.667 22.667 -43.667 50.667 -57 84s-20 70 -20 110
c0 52.667 11.333 98.834 34 138.501s53.667 70.167 93 91.5s83.666 32 132.999 32c37.333 0 71.333 -6 102 -18l43 67l83 -52l-43 -67c24 -22.667 42.5 -50.334 55.5 -83.001zM172 161.001l152 234c-13.333 3.33301 -26 5 -38 5c-40 0 -72.333 -13.5 -97 -40.5
s-37 -64.167 -37 -111.5c0 -34.667 6.66699 -63.667 20 -87zM383 136.501c24.667 27 37 64.167 37 111.5c0 32.667 -6.33301 61 -19 85l-151 -233c10.667 -2.66699 22.667 -4 36 -4c40 0 72.333 13.5 97 40.5zM406 700.001l-88 -130h-108l54 130h142z" />
    <glyph glyph-name="uni0218" unicode="&#x218;" horiz-adv-x="586" 
d="M477 655c47.333 -39.333 70.999 -95.666 70.999 -168.999v-16h-130v16c0 74.667 -43 112 -129 112c-39.333 0 -68.666 -7.33301 -87.999 -22s-29 -35.334 -29 -62.001c0 -25.333 9.5 -45 28.5 -59s50.5 -26 94.5 -36l23 -5c80.667 -17.333 141.5 -41.833 182.5 -73.5
s61.5 -77.834 61.5 -138.501c0 -42.667 -10.833 -80.334 -32.5 -113.001s-52.5 -58 -92.5 -76s-86.667 -27 -140 -27c-54 0 -101.833 9.66699 -143.5 29s-74 47.166 -97 83.499s-34.5 79.5 -34.5 129.5v10h130v-10c0 -41.333 12.667 -72.666 38 -93.999s61 -32 107 -32
c44 0 77.5 8.83301 100.5 26.5s34.5 40.834 34.5 69.501c0 27.333 -10.5 47.833 -31.5 61.5s-56.167 25.834 -105.5 36.501l-23 5c-78.667 17.333 -136.667 41.333 -174 72s-56 76.334 -56 137.001c0 63.333 22.333 113.166 67 149.499s104.667 54.5 180 54.5
c78 0 140.667 -19.667 188 -59zM236.999 -77c18 18 40.666 26.999 67.999 26.999s50 -8.83301 68 -26.5s27 -40.167 27 -67.5v-116c0 -25.333 -8.5 -46.666 -25.5 -63.999s-38.167 -26 -63.5 -26h-95v68h77c10 0 17.333 2.16699 22 6.5s7 11.5 7 21.5v19
c-5.33301 -1.33301 -11.666 -2 -18.999 -2c-26 0 -48 8.66699 -66 26s-27 39 -27 65c0 28 9 51 27 69z" />
    <glyph glyph-name="uni0219" unicode="&#x219;" horiz-adv-x="500" 
d="M101 469.5c35.333 27 83.002 40.498 143.002 40.498c54 0 99 -12.167 135 -36.5s60.333 -57.166 73 -98.499l-114 -35c-10.667 49.333 -42 74 -94 74c-24 0 -42.333 -4.33301 -55 -13s-19 -20.667 -19 -36c0 -16 6.5 -28.167 19.5 -36.5s33.167 -15.166 60.5 -20.499
l26 -5c43.333 -8.66699 78.666 -18.334 105.999 -29.001s49.166 -26 65.499 -46s24.5 -46.333 24.5 -79c0 -51.333 -18.667 -91.333 -56 -120s-88 -43 -152 -43c-65.333 0 -118.5 14 -159.5 42s-65.833 68 -74.5 120l116 30c11.333 -64 50.666 -96 117.999 -96
c28 0 49.333 5.33301 64 16s22 24.334 22 41.001c0 15.333 -7 27.5 -21 36.5s-37 16.5 -69 22.5l-26 5c-59.333 11.333 -105.166 28.5 -137.499 51.5s-48.5 57.167 -48.5 102.5c0 48 17.667 85.5 53 112.5zM179.002 -77.002c18 18 40.666 26.999 67.999 26.999
s50 -8.83301 68 -26.5s27 -40.167 27 -67.5v-116c0 -25.333 -8.5 -46.666 -25.5 -63.999s-38.167 -26 -63.5 -26h-95v68h77c10 0 17.333 2.16699 22 6.5s7 11.5 7 21.5v19c-5.33301 -1.33301 -11.666 -2 -18.999 -2c-26 0 -48 8.66699 -66 26s-27 39 -27 65c0 28 9 51 27 69
z" />
    <glyph glyph-name="uni021A" unicode="&#x21a;" horiz-adv-x="572" 
d="M564 700v-120h-212v-580h-132v580h-212v120h556zM218 -77c18 18 40.666 26.999 67.999 26.999s50 -8.83301 68 -26.5s27 -40.167 27 -67.5v-116c0 -25.333 -8.5 -46.666 -25.5 -63.999s-38.167 -26 -63.5 -26h-95v68h77c10 0 17.333 2.16699 22 6.5s7 11.5 7 21.5v19
c-5.33301 -1.33301 -11.666 -2 -18.999 -2c-26 0 -48 8.66699 -66 26s-27 39 -27 65c0 28 9 51 27 69z" />
    <glyph glyph-name="uni021B" unicode="&#x21b;" horiz-adv-x="418" 
d="M128 496v154h126v-154h136v-102h-136v-262c0 -20 9.33301 -30 28 -30h96v-102h-140c-33.333 0 -60 10.167 -80 30.5s-30 47.5 -30 81.5v282h-124v102h124zM142 -77c18 18 40.666 26.999 67.999 26.999s50 -8.83301 68 -26.5s27 -40.167 27 -67.5v-116
c0 -25.333 -8.5 -46.666 -25.5 -63.999s-38.167 -26 -63.5 -26h-95v68h77c10 0 17.333 2.16699 22 6.5s7 11.5 7 21.5v19c-5.33301 -1.33301 -11.666 -2 -18.999 -2c-26 0 -48 8.66699 -66 26s-27 39 -27 65c0 28 9 51 27 69z" />
    <glyph glyph-name="uni0237" unicode="&#x237;" horiz-adv-x="242" 
d="M156 -169.5c-20 -20.333 -46.667 -30.5 -80 -30.5h-130v102h86c18.667 0 28 10 28 30v564h126v-584c0 -34 -10 -61.167 -30 -81.5z" />
    <glyph glyph-name="circumflex" unicode="&#x2c6;" horiz-adv-x="424" 
d="M218 634h-12l-43 -64h-123l94 130h156l94 -130h-123z" />
    <glyph glyph-name="caron" unicode="&#x2c7;" horiz-adv-x="424" 
d="M384 700l-94 -130h-156l-94 130h123l43 -64h12l43 64h123z" />
    <glyph glyph-name="breve" unicode="&#x2d8;" horiz-adv-x="344" 
d="M304 680c0 -37.333 -11.998 -67 -35.998 -89s-56 -33 -96 -33s-72 11 -96 33s-36 51.667 -36 89v20h90v-12c0 -12.667 3.66699 -22.834 11 -30.501s17.666 -11.5 30.999 -11.5s23.666 3.83301 30.999 11.5s11 17.834 11 30.501v12h90v-20z" />
    <glyph glyph-name="dotaccent" unicode="&#x2d9;" horiz-adv-x="258" 
d="M65.5 702c17 16 38.167 24 63.5 24s46.5 -8 63.5 -24s25.5 -36.667 25.5 -62s-8.5 -46 -25.5 -62s-38.167 -24 -63.5 -24s-46.5 8 -63.5 24s-25.5 36.667 -25.5 62s8.5 46 25.5 62z" />
    <glyph glyph-name="ring" unicode="&#x2da;" horiz-adv-x="296" 
d="M71 713c20.667 20 46.3311 30 76.998 30s56.334 -9.83301 77.001 -29.5s31 -44.5 31 -74.5c0 -30.667 -10.667 -55.667 -32 -75s-46.666 -29 -75.999 -29c-30 0 -55.5 10 -76.5 30s-31.5 44.667 -31.5 74s10.333 54 31 74zM126.497 617.5
c5.66699 -5.66699 12.834 -8.5 21.501 -8.5s15.834 2.83301 21.501 8.5s8.5 12.834 8.5 21.501s-2.83301 15.834 -8.5 21.501s-12.834 8.5 -21.501 8.5s-15.834 -2.83301 -21.501 -8.5s-8.5 -12.834 -8.5 -21.501s2.83301 -15.834 8.5 -21.501z" />
    <glyph glyph-name="ogonek" unicode="&#x2db;" horiz-adv-x="240" 
d="M132 -56c-0.666992 -2 -1 -4.66602 -1 -7.99902c0 -14.667 7.66699 -22 23 -22h46v-84h-80c-21.333 0 -40 6.66699 -56 20s-24 31.666 -24 54.999c0 6 1 13.667 3 23l23 102h86z" />
    <glyph glyph-name="tilde" unicode="&#x2dc;" horiz-adv-x="480" 
d="M182 733c26 0 50.667 -12.667 74 -38c1.33301 -1.33301 4.16602 -4.5 8.49902 -9.5s8.83301 -8.66699 13.5 -11s10 -3.5 16 -3.5c8.66699 0 15.834 1.83301 21.501 5.5s11.5 9.83398 17.5 18.501l30 38l77 -61l-56 -72c-22.667 -29.333 -51.334 -44 -86.001 -44
c-26 0 -50.667 12.667 -74 38c-1.33301 1.33301 -4.16602 4.5 -8.49902 9.5s-8.83301 8.66699 -13.5 11s-10 3.5 -16 3.5c-8.66699 0 -15.834 -1.83301 -21.501 -5.5s-11.5 -9.83398 -17.5 -18.501l-30 -38l-77 61l56 72c22.667 29.333 51.334 44 86.001 44z" />
    <glyph glyph-name="hungarumlaut" unicode="&#x2dd;" horiz-adv-x="439" 
d="M232 700l-88 -130h-104l54 130h138zM399 700l-88 -130h-104l54 130h138z" />
    <glyph glyph-name="gravecomb" unicode="&#x300;" horiz-adv-x="0" 
d="M-40 570h-108l-88 130h142z" />
    <glyph glyph-name="acutecomb" unicode="&#x301;" horiz-adv-x="0" 
d="M-40 700l-88 -130h-108l54 130h142z" />
    <glyph glyph-name="uni0302" unicode="&#x302;" horiz-adv-x="0" 
d="M-206 634h-12l-43 -64h-123l94 130h156l94 -130h-123z" />
    <glyph glyph-name="tildecomb" unicode="&#x303;" horiz-adv-x="0" 
d="M-298 733c26 0 50.667 -12.667 74 -38c1.33301 -1.33301 4.16602 -4.5 8.49902 -9.5s8.83301 -8.66699 13.5 -11s10 -3.5 16 -3.5c8.66699 0 15.834 1.83301 21.501 5.5s11.5 9.83398 17.5 18.501l30 38l77 -61l-56 -72c-22.667 -29.333 -51.334 -44 -86.001 -44
c-26 0 -50.667 12.667 -74 38c-1.33301 1.33301 -4.16602 4.5 -8.49902 9.5s-8.83301 8.66699 -13.5 11s-10 3.5 -16 3.5c-8.66699 0 -15.834 -1.83301 -21.501 -5.5s-11.5 -9.83398 -17.5 -18.501l-30 -38l-77 61l56 72c22.667 29.333 51.334 44 86.001 44z" />
    <glyph glyph-name="uni0304" unicode="&#x304;" horiz-adv-x="0" 
d="M-40 570h-294v102h294v-102z" />
    <glyph glyph-name="uni0306" unicode="&#x306;" horiz-adv-x="0" 
d="M-40 680c0 -37.333 -11.998 -67 -35.998 -89s-56 -33 -96 -33s-72 11 -96 33s-36 51.667 -36 89v20h90v-12c0 -12.667 3.66699 -22.834 11 -30.501s17.666 -11.5 30.999 -11.5s23.666 3.83301 30.999 11.5s11 17.834 11 30.501v12h90v-20z" />
    <glyph glyph-name="uni0307" unicode="&#x307;" horiz-adv-x="0" 
d="M-192.5 702c17 16 38.167 24 63.5 24s46.5 -8 63.5 -24s25.5 -36.667 25.5 -62s-8.5 -46 -25.5 -62s-38.167 -24 -63.5 -24s-46.5 8 -63.5 24s-25.5 36.667 -25.5 62s8.5 46 25.5 62z" />
    <glyph glyph-name="uni0308" unicode="&#x308;" horiz-adv-x="0" 
d="M-402.5 702c17 16 38.167 24 63.5 24s46.5 -8 63.5 -24s25.5 -36.667 25.5 -62s-8.5 -46 -25.5 -62s-38.167 -24 -63.5 -24s-46.5 8 -63.5 24s-25.5 36.667 -25.5 62s8.5 46 25.5 62zM-192.5 702c17 16 38.167 24 63.5 24s46.5 -8 63.5 -24s25.5 -36.667 25.5 -62
s-8.5 -46 -25.5 -62s-38.167 -24 -63.5 -24s-46.5 8 -63.5 24s-25.5 36.667 -25.5 62s8.5 46 25.5 62z" />
    <glyph glyph-name="uni030A" unicode="&#x30a;" horiz-adv-x="0" 
d="M-225 713c20.667 20 46.3311 30 76.998 30s56.334 -9.83301 77.001 -29.5s31 -44.5 31 -74.5c0 -30.667 -10.667 -55.667 -32 -75s-46.666 -29 -75.999 -29c-30 0 -55.5 10 -76.5 30s-31.5 44.667 -31.5 74s10.333 54 31 74zM-169.503 617.5
c5.66699 -5.66699 12.834 -8.5 21.501 -8.5s15.834 2.83301 21.501 8.5s8.5 12.834 8.5 21.501s-2.83301 15.834 -8.5 21.501s-12.834 8.5 -21.501 8.5s-15.834 -2.83301 -21.501 -8.5s-8.5 -12.834 -8.5 -21.501s2.83301 -15.834 8.5 -21.501z" />
    <glyph glyph-name="uni030B" unicode="&#x30b;" horiz-adv-x="0" 
d="M-207 700l-88 -130h-104l54 130h138zM-40 700l-88 -130h-104l54 130h138z" />
    <glyph glyph-name="uni030C" unicode="&#x30c;" horiz-adv-x="0" 
d="M-40 700l-94 -130h-156l-94 130h123l43 -64h12l43 64h123z" />
    <glyph glyph-name="uni0312" unicode="&#x312;" horiz-adv-x="0" 
d="M-67 572c-18 -18 -40.666 -26.999 -67.999 -26.999s-50 8.83301 -68 26.5s-27 40.167 -27 67.5v117c0 25.333 8.5 46.666 25.5 63.999s38.167 26 63.5 26h95v-68h-77c-10.667 0 -18.167 -2.16699 -22.5 -6.5s-6.5 -11.5 -6.5 -21.5v-20
c5.33301 1.33301 11.666 2 18.999 2c26 0 48 -8.66699 66 -26s27 -39 27 -65c0 -28 -9 -51 -27 -69z" />
    <glyph glyph-name="uni0326" unicode="&#x326;" horiz-adv-x="0" 
d="M-203 -77c18 18 40.666 26.999 67.999 26.999s50 -8.83301 68 -26.5s27 -40.167 27 -67.5v-116c0 -25.333 -8.5 -46.666 -25.5 -63.999s-38.167 -26 -63.5 -26h-95v68h77c10 0 17.333 2.16699 22 6.5s7 11.5 7 21.5v19c-5.33301 -1.33301 -11.666 -2 -18.999 -2
c-26 0 -48 8.66699 -66 26s-27 39 -27 65c0 28 9 51 27 69z" />
    <glyph glyph-name="uni0327" unicode="&#x327;" horiz-adv-x="0" 
d="M-181 -58h12.001c4.66699 6 11.5 11.167 20.5 15.5s19.5 6.5 31.5 6.5c20.667 0 38.667 -6.83301 54 -20.5s23 -33.5 23 -59.5c0 -30 -10.333 -53.833 -31 -71.5s-47 -26.5 -79 -26.5c-18 0 -33.333 1.66699 -46 5s-25.334 8.33301 -38.001 15l26 68
c15.333 -9.33301 32 -14 50 -14c10 0 18.167 2.33301 24.5 7s9.5 11 9.5 19c0 6 -1.83301 11.167 -5.5 15.5s-8.5 6.5 -14.5 6.5c-11.333 0 -18 -4.66699 -20 -14h-97v12l27 126h70z" />
    <glyph glyph-name="uni0328" unicode="&#x328;" horiz-adv-x="0" 
d="M-108 -56c-0.666992 -2 -1 -4.66602 -1 -7.99902c0 -14.667 7.66699 -22 23 -22h46v-84h-80c-21.333 0 -40 6.66699 -56 20s-24 31.666 -24 54.999c0 6 1 13.667 3 23l23 102h86z" />
    <glyph glyph-name="uni0335" unicode="&#x335;" horiz-adv-x="0" 
d="M-40 636v-84h-296v84h296z" />
    <glyph glyph-name="uni0336" unicode="&#x336;" horiz-adv-x="0" 
d="M-40 496h-640v110h640v-110z" />
    <glyph glyph-name="uni0337" unicode="&#x337;" horiz-adv-x="0" 
d="M9 507l-372 -574l-84 52l373 574z" />
    <glyph glyph-name="uni0338" unicode="&#x338;" horiz-adv-x="0" 
d="M-40 747l-278 -840l-110 34l279 840z" />
    <glyph glyph-name="pi" unicode="&#x3c0;" 
d="M132 376h-78v120h514v-120h-78v-226c0 -20 9 -30 27 -30h51v-120h-108c-28 0 -51 9 -69 27s-27 41 -27 69v280h-106v-376h-126v376z" />
    <glyph glyph-name="Wgrave" unicode="&#x1e80;" horiz-adv-x="896" 
d="M142 700l85 -572h10l108 572h206l108 -572h10l85 572h132l-112 -700h-213l-108 572h-10l-108 -572h-213l-112 700h132zM524 760h-108l-88 120h142z" />
    <glyph glyph-name="wgrave" unicode="&#x1e81;" horiz-adv-x="744" 
d="M136 496l60 -392h10l79 392h174l79 -392h10l60 392h126l-98 -496h-180l-79 392h-10l-79 -392h-180l-98 496h126zM448 570h-108l-88 130h142z" />
    <glyph glyph-name="Wacute" unicode="&#x1e82;" horiz-adv-x="896" 
d="M142 700l85 -572h10l108 572h206l108 -572h10l85 572h132l-112 -700h-213l-108 572h-10l-108 -572h-213l-112 700h132zM568 880l-88 -120h-108l54 120h142z" />
    <glyph glyph-name="wacute" unicode="&#x1e83;" horiz-adv-x="744" 
d="M136 496l60 -392h10l79 392h174l79 -392h10l60 392h126l-98 -496h-180l-79 392h-10l-79 -392h-180l-98 496h126zM492 700l-88 -130h-108l54 130h142z" />
    <glyph glyph-name="Wdieresis" unicode="&#x1e84;" horiz-adv-x="896" 
d="M142 700l85 -572h10l108 572h206l108 -572h10l85 572h132l-112 -700h-213l-108 572h-10l-108 -572h-213l-112 700h132zM276.5 884c17 16 38.167 24 63.5 24s46.5 -8 63.5 -24s25.5 -36.667 25.5 -62s-8.5 -46 -25.5 -62s-38.167 -24 -63.5 -24s-46.5 8 -63.5 24
s-25.5 36.667 -25.5 62s8.5 46 25.5 62zM492.5 884c17 16 38.167 24 63.5 24s46.5 -8 63.5 -24s25.5 -36.667 25.5 -62s-8.5 -46 -25.5 -62s-38.167 -24 -63.5 -24s-46.5 8 -63.5 24s-25.5 36.667 -25.5 62s8.5 46 25.5 62z" />
    <glyph glyph-name="wdieresis" unicode="&#x1e85;" horiz-adv-x="744" 
d="M136 496l60 -392h10l79 392h174l79 -392h10l60 392h126l-98 -496h-180l-79 392h-10l-79 -392h-180l-98 496h126zM203.5 702c17 16 38.167 24 63.5 24s46.5 -8 63.5 -24s25.5 -36.667 25.5 -62s-8.5 -46 -25.5 -62s-38.167 -24 -63.5 -24s-46.5 8 -63.5 24
s-25.5 36.667 -25.5 62s8.5 46 25.5 62zM413.5 702c17 16 38.167 24 63.5 24s46.5 -8 63.5 -24s25.5 -36.667 25.5 -62s-8.5 -46 -25.5 -62s-38.167 -24 -63.5 -24s-46.5 8 -63.5 24s-25.5 36.667 -25.5 62s8.5 46 25.5 62z" />
    <glyph glyph-name="uni1E9E" unicode="&#x1e9e;" horiz-adv-x="637" 
d="M88 568.5c22.667 43 54.499 75.6689 95.499 98.002s88.5 33.5 142.5 33.5h260v-104l-150 -202c-3.33301 -4 -6 -7.83301 -8 -11.5s-3 -7.5 -3 -11.5c0 -4.66699 2 -8.83398 6 -12.501s10.667 -7.5 20 -11.5l37 -16c40.667 -18 72 -39.833 94 -65.5s33 -60.5 33 -104.5
c0 -51.333 -17 -93.333 -51 -126s-82 -49 -144 -49c-42 0 -78.333 7.83301 -109 23.5s-54.167 37.167 -70.5 64.5s-24.5 58.666 -24.5 93.999h134c0 -19.333 6.66699 -34.833 20 -46.5s30 -17.5 50 -17.5s35.833 5.16699 47.5 15.5s17.5 23.5 17.5 39.5
s-5.5 28.667 -16.5 38s-26.833 18.333 -47.5 27l-48 20c-27.333 11.333 -47.5 26.5 -60.5 45.5s-19.5 40.833 -19.5 65.5c0 20.667 4.83301 40 14.5 58s24.834 40 45.501 66l80 101h-107c-38.667 0 -71.667 -12.5 -99 -37.5s-41 -65.833 -41 -122.5v-420h-132v416
c0 58.667 11.333 109.5 34 152.5z" />
    <glyph glyph-name="Ygrave" unicode="&#x1ef2;" horiz-adv-x="612" 
d="M142 700l159 -310h10l159 310h148l-246 -453v-247h-132v247l-246 453h148zM382 760h-108l-88 120h142z" />
    <glyph glyph-name="ygrave" unicode="&#x1ef3;" horiz-adv-x="548" 
d="M410 496h136l-272 -696h-136l70 168l-206 528h136l131 -358h10zM350 570h-108l-88 130h142z" />
    <glyph glyph-name="endash" unicode="&#x2013;" horiz-adv-x="612" 
d="M82 312h448v-114h-448v114z" />
    <glyph glyph-name="emdash" unicode="&#x2014;" horiz-adv-x="916" 
d="M82 312h752v-114h-752v114z" />
    <glyph glyph-name="quoteleft" unicode="&#x2018;" horiz-adv-x="278" 
d="M206 429.5c-17.333 -17 -39.667 -25.5 -67 -25.5s-49.666 8.66699 -66.999 26s-26 40.666 -26 69.999v81c0 40.667 11.167 73.167 33.5 97.5s55.833 36.5 100.5 36.5h37v-68h-42c-16 0 -28.5 -4.66699 -37.5 -14s-13.5 -22 -13.5 -38v-12h15
c27.333 0 49.666 -8.16699 66.999 -24.5s26 -37.166 26 -62.499c0 -27.333 -8.66699 -49.5 -26 -66.5z" />
    <glyph glyph-name="quoteright" unicode="&#x2019;" horiz-adv-x="278" 
d="M72 689.5c17.333 17 39.667 25.5 67 25.5s49.666 -8.66699 66.999 -26s26 -40.666 26 -69.999v-81c0 -40.667 -11.167 -73.167 -33.5 -97.5s-55.833 -36.5 -100.5 -36.5h-37v68h42c16 0 28.5 4.66699 37.5 14s13.5 22 13.5 38v12h-15
c-27.333 0 -49.666 8.16699 -66.999 24.5s-26 37.166 -26 62.499c0 27.333 8.66699 49.5 26 66.5z" />
    <glyph glyph-name="quotesinglbase" unicode="&#x201a;" horiz-adv-x="278" 
d="M72 150.5c17.333 17 39.667 25.5 67 25.5s49.666 -8.66699 66.999 -26s26 -40.666 26 -69.999v-81c0 -40.667 -11.167 -73.167 -33.5 -97.5s-55.833 -36.5 -100.5 -36.5h-37v68h42c16 0 28.5 4.66699 37.5 14s13.5 22 13.5 38v12h-15
c-27.333 0 -49.666 8.16699 -66.999 24.5s-26 37.166 -26 62.499c0 27.333 8.66699 49.5 26 66.5z" />
    <glyph glyph-name="quotedblleft" unicode="&#x201c;" horiz-adv-x="488" 
d="M206 429.5c-17.333 -17 -39.667 -25.5 -67 -25.5s-49.666 8.66699 -66.999 26s-26 40.666 -26 69.999v81c0 40.667 11.167 73.167 33.5 97.5s55.833 36.5 100.5 36.5h37v-68h-42c-16 0 -28.5 -4.66699 -37.5 -14s-13.5 -22 -13.5 -38v-12h15
c27.333 0 49.666 -8.16699 66.999 -24.5s26 -37.166 26 -62.499c0 -27.333 -8.66699 -49.5 -26 -66.5zM415.999 429.5c-17.333 -17 -39.667 -25.5 -67 -25.5s-49.666 8.66699 -66.999 26s-26 40.666 -26 69.999v81c0 40.667 11.167 73.167 33.5 97.5s55.833 36.5 100.5 36.5
h37v-68h-42c-16 0 -28.5 -4.66699 -37.5 -14s-13.5 -22 -13.5 -38v-12h15c27.333 0 49.666 -8.16699 66.999 -24.5s26 -37.166 26 -62.499c0 -27.333 -8.66699 -49.5 -26 -66.5z" />
    <glyph glyph-name="quotedblright" unicode="&#x201d;" horiz-adv-x="488" 
d="M72 689.5c17.333 17 39.667 25.5 67 25.5s49.666 -8.66699 66.999 -26s26 -40.666 26 -69.999v-81c0 -40.667 -11.167 -73.167 -33.5 -97.5s-55.833 -36.5 -100.5 -36.5h-37v68h42c16 0 28.5 4.66699 37.5 14s13.5 22 13.5 38v12h-15
c-27.333 0 -49.666 8.16699 -66.999 24.5s-26 37.166 -26 62.499c0 27.333 8.66699 49.5 26 66.5zM282.001 689.5c17.333 17 39.667 25.5 67 25.5s49.666 -8.66699 66.999 -26s26 -40.666 26 -69.999v-81c0 -40.667 -11.167 -73.167 -33.5 -97.5s-55.833 -36.5 -100.5 -36.5
h-37v68h42c16 0 28.5 4.66699 37.5 14s13.5 22 13.5 38v12h-15c-27.333 0 -49.666 8.16699 -66.999 24.5s-26 37.166 -26 62.499c0 27.333 8.66699 49.5 26 66.5z" />
    <glyph glyph-name="quotedblbase" unicode="&#x201e;" horiz-adv-x="488" 
d="M72 150.5c17.333 17 39.667 25.5 67 25.5s49.666 -8.66699 66.999 -26s26 -40.666 26 -69.999v-81c0 -40.667 -11.167 -73.167 -33.5 -97.5s-55.833 -36.5 -100.5 -36.5h-37v68h42c16 0 28.5 4.66699 37.5 14s13.5 22 13.5 38v12h-15
c-27.333 0 -49.666 8.16699 -66.999 24.5s-26 37.166 -26 62.499c0 27.333 8.66699 49.5 26 66.5zM282.001 150.5c17.333 17 39.667 25.5 67 25.5s49.666 -8.66699 66.999 -26s26 -40.666 26 -69.999v-81c0 -40.667 -11.167 -73.167 -33.5 -97.5s-55.833 -36.5 -100.5 -36.5
h-37v68h42c16 0 28.5 4.66699 37.5 14s13.5 22 13.5 38v12h-15c-27.333 0 -49.666 8.16699 -66.999 24.5s-26 37.166 -26 62.499c0 27.333 8.66699 49.5 26 66.5z" />
    <glyph glyph-name="dagger" unicode="&#x2020;" 
d="M84 532h160v168h132v-168h160v-124h-160v-408h-132v408h-160v124z" />
    <glyph glyph-name="daggerdbl" unicode="&#x2021;" 
d="M84 292h160v116h-160v124h160v168h132v-168h160v-124h-160v-116h160v-124h-160v-168h-132v168h-160v124z" />
    <glyph glyph-name="bullet" unicode="&#x2022;" horiz-adv-x="310" 
d="M30.5 421.5c13 22.333 30.499 40.002 52.499 53.002s46 19.5 72 19.5s50 -6.5 72 -19.5s39.5 -30.5 52.5 -52.5s19.5 -46 19.5 -72c0 -26.667 -6.66699 -51 -20 -73s-31.166 -39.333 -53.499 -52s-45.833 -19 -70.5 -19c-25.333 0 -49 6.5 -71 19.5
s-39.667 30.667 -53 53s-20 46.166 -20 71.499s6.5 49.166 19.5 71.499z" />
    <glyph glyph-name="ellipsis" unicode="&#x2026;" horiz-adv-x="682" 
d="M73 149.5c18 17.667 40.667 26.5 68 26.5s50 -8.83301 68 -26.5s27 -40.5 27 -68.5s-9 -50.833 -27 -68.5s-40.667 -26.5 -68 -26.5s-50 8.83301 -68 26.5s-27 40.5 -27 68.5s9 50.833 27 68.5zM273 149.5c18 17.667 40.667 26.5 68 26.5s50 -8.83301 68 -26.5
s27 -40.5 27 -68.5s-9 -50.833 -27 -68.5s-40.667 -26.5 -68 -26.5s-50 8.83301 -68 26.5s-27 40.5 -27 68.5s9 50.833 27 68.5zM473 149.5c18 17.667 40.667 26.5 68 26.5s50 -8.83301 68 -26.5s27 -40.5 27 -68.5s-9 -50.833 -27 -68.5s-40.667 -26.5 -68 -26.5
s-50 8.83301 -68 26.5s-27 40.5 -27 68.5s9 50.833 27 68.5z" />
    <glyph glyph-name="perthousand" unicode="&#x2030;" horiz-adv-x="981" 
d="M677 640l-203 -226l-64 48l164 255zM319.5 669.5c29.667 -28.333 44.5 -66.833 44.5 -115.5v-19c0 -49.333 -14.5 -87.833 -43.5 -115.5s-69.167 -41.5 -120.5 -41.5s-91.5 13.833 -120.5 41.5s-43.5 66.167 -43.5 115.5v19c0 49.333 14.5 88 43.5 116
s69.167 42 120.5 42c50 0 89.833 -14.167 119.5 -42.5zM260 559c0 20.667 -5.16699 37 -15.5 49s-25.166 18 -44.499 18s-34.166 -6 -44.499 -18s-15.5 -28.333 -15.5 -49v-28c0 -20.667 5.16699 -37 15.5 -49s25.166 -18 44.499 -18s34.166 6 44.499 18
s15.5 28.333 15.5 49v28zM901.5 279.5c29 -28.333 43.498 -66.833 43.498 -115.5v-19c0 -48.667 -14.167 -87 -42.5 -115s-67.166 -42 -116.499 -42c-50.667 0 -89.667 15.667 -117 47c-27.333 -31.333 -66.333 -47 -117 -47c-49.333 0 -88.166 14 -116.499 42
s-42.5 66.333 -42.5 115v19c0 48.667 14.167 87.167 42.5 115.5s67.166 42.5 116.499 42.5c50.667 0 89.334 -16 116.001 -48c26.667 32 66 48 118 48c48 0 86.5 -14.167 115.5 -42.5zM74.998 62l203 226l64 -48l-164 -255zM616.998 169c0 20.667 -5.16699 37 -15.5 49
s-25.166 18 -44.499 18c-20 0 -35.333 -6 -46 -18s-16 -28.333 -16 -49v-28c0 -20.667 5.33301 -37 16 -49s26 -18 46 -18c19.333 0 34.166 6 44.499 18s15.5 28.333 15.5 49v28zM840.998 169c0 20.667 -5.16699 37 -15.5 49s-25.166 18 -44.499 18s-34.166 -6 -44.499 -18
s-15.5 -28.333 -15.5 -49v-28c0 -20.667 5.16699 -37 15.5 -49s25.166 -18 44.499 -18s34.166 6 44.499 18s15.5 28.333 15.5 49v28z" />
    <glyph glyph-name="prime" unicode="&#x2032;" horiz-adv-x="310" 
d="M230 700l-57 -280h-88l10 280h135z" />
    <glyph glyph-name="primedbl" unicode="&#x2033;" horiz-adv-x="440" 
d="M215 700l-57 -280h-88l10 280h135zM375 700l-57 -280h-88l10 280h135z" />
    <glyph glyph-name="guilsinglleft" unicode="&#x2039;" horiz-adv-x="480" 
d="M412 490h6v-136l-234 -97v-18l234 -97v-136h-6l-354 170v144z" />
    <glyph glyph-name="guilsinglright" unicode="&#x203a;" horiz-adv-x="480" 
d="M422 176l-354 -170h-6v136l234 97v18l-234 97v136h6l354 -170v-144z" />
    <glyph glyph-name="fraction" unicode="&#x2044;" horiz-adv-x="632" 
d="M514 716l103 -77l-203 -226l-64 48zM118 -16l-103 77l203 226l64 -48z" />
    <glyph glyph-name="uni2074" unicode="&#x2074;" horiz-adv-x="372" 
d="M310 700v-203h60v-76h-60v-71h-100v71h-200v70l138 209h162zM114 497h96v131h-9z" />
    <glyph glyph-name="uni20A8" unicode="&#x20a8;" horiz-adv-x="622" 
d="M422 596v-10.002c24 -16 41.333 -37.333 52 -64h120v-104h-109c-6.66699 -41.333 -23.667 -76.5 -51 -105.5s-62 -49.5 -104 -61.5l166 -251h-156l-149 240h-137v112h179c26 0 48.5 5.83301 67.5 17.5s32.833 27.834 41.5 48.501h-288v104h288
c-8.66699 20.667 -22.5 36.834 -41.5 48.501s-41.5 17.5 -67.5 17.5h-179v112h540v-104h-172z" />
    <glyph glyph-name="Euro" unicode="&#x20ac;" horiz-adv-x="662" 
d="M504 436l0.00488281 18.001c0 43.333 -10.833 77.5 -32.5 102.5s-53.5 37.5 -95.5 37.5c-36.667 0 -66.334 -10 -89.001 -30s-37.334 -46.667 -44.001 -80h133v-104h-138v-50h138v-104h-136c5.33301 -38 19.166 -67.5 41.499 -88.5s53.833 -31.5 94.5 -31.5
c85.333 0 128 46.667 128 140v18h132v-24c0 -79.333 -22 -141.5 -66 -186.5s-108.667 -67.5 -194 -67.5c-76.667 0 -138.5 20.667 -185.5 62s-74.5 100.666 -82.5 177.999h-66v104h64v50h-64v104h68c9.33301 72 37.166 128.333 83.499 169s107.166 61 182.499 61
c82.667 0 146.667 -22.667 192 -68s68 -107.333 68 -186v-24h-132z" />
    <glyph glyph-name="uni20BF" unicode="&#x20bf;" horiz-adv-x="614" 
d="M545 70.5c-26 -32.333 -61.333 -53.5029 -106 -63.5029v-123h-108v116h-60v-116h-108v116h-105v700h105v116h108v-116h60v116h108v-124c43.333 -10.667 77.666 -31.667 102.999 -63s38 -69.666 38 -114.999c0 -46 -11.167 -81.167 -33.5 -105.5
s-49.166 -41.166 -80.499 -50.499v-10c32 -8.66699 59.667 -25.5 83 -50.5s35 -60.833 35 -107.5c0 -47.333 -13 -87.166 -39 -119.499zM190 411.997h170c28 0 50.667 7.5 68 22.5s26 35.5 26 61.5s-8.66699 46.5 -26 61.5s-40 22.5 -68 22.5h-170v-168zM432 142.997
c17.333 15.333 26 36.333 26 63s-8.66699 47.667 -26 63s-40.666 23 -69.999 23h-172v-172h172c29.333 0 52.666 7.66699 69.999 23z" />
    <glyph glyph-name="trademark" unicode="&#x2122;" 
d="M256 700v-38h-74v-184h-42v184h-74v38h190zM361 700l50 -184h4l50 184h75v-222h-42v184h-4l-50 -184h-62l-50 184h-4v-184h-42v222h75z" />
    <glyph glyph-name="oneeighth" unicode="&#x215b;" horiz-adv-x="728" 
d="M220 700v-350h-100v246h-10l-18 -52h-88v10l65 146h151zM514 716l103 -77l-203 -226l-64 48zM118 -16l-103 77l203 226l64 -48zM427 334.5c28.667 18.333 65.6689 27.499 111.002 27.499s82.333 -9.16699 111 -27.5s43 -41.833 43 -70.5v-3
c0 -20.667 -5.83301 -36.834 -17.5 -48.501s-24.834 -20.167 -39.501 -25.5v-10c14.667 -3.33301 28.834 -12.166 42.501 -26.499s20.5 -33.5 20.5 -57.5v-2c0 -30 -14.5 -54.667 -43.5 -74s-67.833 -29 -116.5 -29s-87.5 9.66699 -116.5 29s-43.5 44 -43.5 74v2
c0 25.333 6.66699 44.833 20 58.5s27.666 22.167 42.999 25.5v10c-14.667 5.33301 -27.834 13.833 -39.501 25.5s-17.5 27.834 -17.5 48.501v3c0 28.667 14.333 52.167 43 70.5zM498.502 227.499c9.66699 -6.33301 22.834 -9.5 39.501 -9.5s29.834 3.16699 39.501 9.5
s14.5 14.5 14.5 24.5s-4.83301 17.833 -14.5 23.5s-22.834 8.5 -39.501 8.5s-29.834 -2.83301 -39.501 -8.5s-14.5 -13.5 -14.5 -23.5s4.83301 -18.167 14.5 -24.5zM494.002 75.999c10.667 -6.66699 25.334 -10 44.001 -10s33.334 3.33301 44.001 10s16 16 16 28
s-5.33301 21.333 -16 28s-25.334 10 -44.001 10s-33.334 -3.33301 -44.001 -10s-16 -16 -16 -28s5.33301 -21.333 16 -28z" />
    <glyph glyph-name="threeeighths" unicode="&#x215c;" horiz-adv-x="794" 
d="M328 632l-102 -61v-10c30 -1.33301 54.833 -10.333 74.5 -27s29.5 -40.334 29.5 -71.001c0 -36 -14.667 -65.833 -44 -89.5s-66.333 -35.5 -111 -35.5c-47.333 0 -85.5 11.833 -114.5 35.5s-44.5 56.834 -46.5 99.501h98c1.33301 -15.333 7.5 -28 18.5 -38
s24.833 -15 41.5 -15c17.333 0 31.333 4.66699 42 14s16 20.333 16 33c0 28.667 -19.333 43 -58 43h-66v62l82 48h-168v80h308v-68zM592 716l103 -77l-203 -226l-64 48zM196 -16l-103 77l203 226l64 -48zM505 334.5c28.667 18.333 65.6689 27.499 111.002 27.499
s82.333 -9.16699 111 -27.5s43 -41.833 43 -70.5v-3c0 -20.667 -5.83301 -36.834 -17.5 -48.501s-24.834 -20.167 -39.501 -25.5v-10c14.667 -3.33301 28.834 -12.166 42.501 -26.499s20.5 -33.5 20.5 -57.5v-2c0 -30 -14.5 -54.667 -43.5 -74s-67.833 -29 -116.5 -29
s-87.5 9.66699 -116.5 29s-43.5 44 -43.5 74v2c0 25.333 6.66699 44.833 20 58.5s27.666 22.167 42.999 25.5v10c-14.667 5.33301 -27.834 13.833 -39.501 25.5s-17.5 27.834 -17.5 48.501v3c0 28.667 14.333 52.167 43 70.5zM576.502 227.499
c9.66699 -6.33301 22.834 -9.5 39.501 -9.5s29.834 3.16699 39.501 9.5s14.5 14.5 14.5 24.5s-4.83301 17.833 -14.5 23.5s-22.834 8.5 -39.501 8.5s-29.834 -2.83301 -39.501 -8.5s-14.5 -13.5 -14.5 -23.5s4.83301 -18.167 14.5 -24.5zM572.002 75.999
c10.667 -6.66699 25.334 -10 44.001 -10s33.334 3.33301 44.001 10s16 16 16 28s-5.33301 21.333 -16 28s-25.334 10 -44.001 10s-33.334 -3.33301 -44.001 -10s-16 -16 -16 -28s5.33301 -21.333 16 -28z" />
    <glyph glyph-name="fiveeighths" unicode="&#x215d;" horiz-adv-x="796" 
d="M324 620l-196 -0.00292969v-61h10c11.333 7.33301 22.5 13 33.5 17s26.5 6 46.5 6c33.333 0 61.333 -10.167 84 -30.5s34 -47.166 34 -80.499v-7c0 -23.333 -6.5 -44.666 -19.5 -63.999s-31.5 -34.5 -55.5 -45.5s-51.667 -16.5 -83 -16.5c-43.333 0 -79 11 -107 33
s-45.667 52.333 -53 91h98c4 -13.333 11.167 -24 21.5 -32s23.833 -12 40.5 -12c17.333 0 31.333 4.33301 42 13s16 20 16 34s-4.5 24.833 -13.5 32.5s-20.167 11.5 -33.5 11.5c-10.667 0 -19.167 -1.66699 -25.5 -5s-12.5 -7.66602 -18.5 -12.999h-115v209h294v-80z
M596 715.997l103 -77l-203 -226l-64 48zM200 -16.0029l-103 77l203 226l64 -48zM509 334.497c28.667 18.333 65.6689 27.499 111.002 27.499s82.333 -9.16699 111 -27.5s43 -41.833 43 -70.5v-3c0 -20.667 -5.83301 -36.834 -17.5 -48.501s-24.834 -20.167 -39.501 -25.5
v-10c14.667 -3.33301 28.834 -12.166 42.501 -26.499s20.5 -33.5 20.5 -57.5v-2c0 -30 -14.5 -54.667 -43.5 -74s-67.833 -29 -116.5 -29s-87.5 9.66699 -116.5 29s-43.5 44 -43.5 74v2c0 25.333 6.66699 44.833 20 58.5s27.666 22.167 42.999 25.5v10
c-14.667 5.33301 -27.834 13.833 -39.501 25.5s-17.5 27.834 -17.5 48.501v3c0 28.667 14.333 52.167 43 70.5zM580.502 227.496c9.66699 -6.33301 22.834 -9.5 39.501 -9.5s29.834 3.16699 39.501 9.5s14.5 14.5 14.5 24.5s-4.83301 17.833 -14.5 23.5
s-22.834 8.5 -39.501 8.5s-29.834 -2.83301 -39.501 -8.5s-14.5 -13.5 -14.5 -23.5s4.83301 -18.167 14.5 -24.5zM576.002 75.9961c10.667 -6.66699 25.334 -10 44.001 -10s33.334 3.33301 44.001 10s16 16 16 28s-5.33301 21.333 -16 28s-25.334 10 -44.001 10
s-33.334 -3.33301 -44.001 -10s-16 -16 -16 -28s5.33301 -21.333 16 -28z" />
    <glyph glyph-name="seveneighths" unicode="&#x215e;" horiz-adv-x="714" 
d="M312 700v-76l-139 -274h-108l139 270h-202v80h310zM528 716l103 -77l-203 -226l-64 48zM132 -16l-103 77l203 226l64 -48zM441 334.5c28.667 18.333 65.6689 27.499 111.002 27.499s82.333 -9.16699 111 -27.5s43 -41.833 43 -70.5v-3
c0 -20.667 -5.83301 -36.834 -17.5 -48.501s-24.834 -20.167 -39.501 -25.5v-10c14.667 -3.33301 28.834 -12.166 42.501 -26.499s20.5 -33.5 20.5 -57.5v-2c0 -30 -14.5 -54.667 -43.5 -74s-67.833 -29 -116.5 -29s-87.5 9.66699 -116.5 29s-43.5 44 -43.5 74v2
c0 25.333 6.66699 44.833 20 58.5s27.666 22.167 42.999 25.5v10c-14.667 5.33301 -27.834 13.833 -39.501 25.5s-17.5 27.834 -17.5 48.501v3c0 28.667 14.333 52.167 43 70.5zM512.502 227.499c9.66699 -6.33301 22.834 -9.5 39.501 -9.5s29.834 3.16699 39.501 9.5
s14.5 14.5 14.5 24.5s-4.83301 17.833 -14.5 23.5s-22.834 8.5 -39.501 8.5s-29.834 -2.83301 -39.501 -8.5s-14.5 -13.5 -14.5 -23.5s4.83301 -18.167 14.5 -24.5zM508.002 75.999c10.667 -6.66699 25.334 -10 44.001 -10s33.334 3.33301 44.001 10s16 16 16 28
s-5.33301 21.333 -16 28s-25.334 10 -44.001 10s-33.334 -3.33301 -44.001 -10s-16 -16 -16 -28s5.33301 -21.333 16 -28z" />
    <glyph glyph-name="arrowleft" unicode="&#x2190;" horiz-adv-x="800" 
d="M363 451l-108 -108l-33 -22l3 -9l40 4h485v-122h-485l-40 4l-3 -9l33 -22l108 -108l-84 -84l-229 229v102l229 229z" />
    <glyph glyph-name="arrowup" unicode="&#x2191;" 
d="M259 706h102l229 -229l-84 -84l-106 106l-22 33l-9 -3l4 -40v-489h-126v489l4 40l-9 3l-22 -33l-106 -106l-84 84z" />
    <glyph glyph-name="arrowright" unicode="&#x2192;" horiz-adv-x="800" 
d="M750 306v-102l-229 -229l-84 84l108 108l33 22l-3 9l-40 -4h-485v122h485l40 -4l3 9l-33 22l-108 108l84 84z" />
    <glyph glyph-name="arrowdown" unicode="&#x2193;" 
d="M114 307l106 -106l22 -33l9 3l-4 40v489h126v-489l-4 -40l9 -3l22 33l106 106l84 -84l-229 -229h-102l-229 229z" />
    <glyph glyph-name="arrowboth" unicode="&#x2194;" horiz-adv-x="800" 
d="M531 525l219 -219v-102l-219 -219l-84 84l98 98l33 22l-3 9l-40 -4h-270l-40 4l-3 -9l33 -22l98 -98l-84 -84l-219 219v102l219 219l84 -84l-98 -98l-33 -22l3 -9l40 4h270l40 -4l3 9l-33 22l-98 98z" />
    <glyph glyph-name="arrowupdn" unicode="&#x2195;" 
d="M400 201l106 106l84 -84l-229 -229h-102l-229 229l84 84l106 -106l22 -33l9 3l-4 40v278l4 40l-9 3l-22 -33l-106 -106l-84 84l229 229h102l229 -229l-84 -84l-106 106l-22 33l-9 -3l4 -40v-278l-4 -40l9 -3z" />
    <glyph glyph-name="uni2196" unicode="&#x2196;" 
d="M463 380h-149l-39 8l-5 -9l32 -25l278 -280l-89 -89l-279 279l-25 32l-9 -5l8 -39v-149h-116v324l69 69h324v-116z" />
    <glyph glyph-name="uni2197" unicode="&#x2197;" 
d="M481 496l69 -69v-324h-116v149l8 39l-9 5l-25 -32l-279 -279l-89 89l278 280l32 25l-5 9l-39 -8h-149v116h324z" />
    <glyph glyph-name="uni2198" unicode="&#x2198;" 
d="M157 116h149l39 -8l5 9l-32 25l-278 280l89 89l279 -279l25 -32l9 5l-8 39v149h116v-324l-69 -69h-324v116z" />
    <glyph glyph-name="uni2199" unicode="&#x2199;" 
d="M139 0l-69 69v324h116v-149l-8 -39l9 -5l25 32l279 279l89 -89l-278 -280l-32 -25l5 -9l39 8h149v-116h-324z" />
    <glyph glyph-name="partialdiff" unicode="&#x2202;" 
d="M79 384.5c18.667 39 44.6699 69.665 78.0029 91.998s71.333 33.5 114 33.5c31.333 0 56.333 -3.66699 75 -11s35 -19 49 -35h18c-32.667 83.333 -120 133.333 -262 150l20 114c129.333 -13.333 228 -57.166 296 -131.499s102 -176.166 102 -305.499
c0 -61.333 -10.333 -114.833 -31 -160.5s-50.834 -81.167 -90.501 -106.5s-87.167 -38 -142.5 -38c-48.667 0 -92.334 11 -131.001 33s-68.834 52.5 -90.501 91.5s-32.5 82.833 -32.5 131.5v12c0 48 9.33301 91.5 28 130.5zM401.003 143.498
c23.333 25 35.002 61.833 35.002 110.5c0 41.333 -12 74.333 -36 99s-55.333 37 -94 37s-69.834 -12.667 -93.501 -38s-35.5 -59 -35.5 -101v-6c0 -43.333 11.667 -77.333 35 -102s54.666 -37 93.999 -37c40 0 71.667 12.5 95 37.5z" />
    <glyph glyph-name="emptyset" unicode="&#x2205;" horiz-adv-x="640" 
d="M560 376c20 -36.667 30 -78 30 -124v-8c0 -50 -11.833 -94.667 -35.5 -134s-56 -69.833 -97 -91.5s-86.833 -32.5 -137.5 -32.5c-18.667 0 -34.667 1.33301 -48 4l-42 -97l-108 46l40 92c-34.667 22.667 -62 52.334 -82 89.001s-30 78 -30 124v8
c0 50 11.833 94.667 35.5 134s56 69.833 97 91.5s86.833 32.5 137.5 32.5c18.667 0 34.667 -1.33301 48 -4l42 97l108 -46l-40 -92c34.667 -22.667 62 -52.334 82 -89.001zM213 148l105 242c-40.667 -0.666992 -74.5 -13.667 -101.5 -39s-40.5 -57.333 -40.5 -96v-14
c0 -36 12.333 -67 37 -93zM464 255c0 36 -12.333 67 -37 93l-105 -242c40.667 0.666992 74.5 13.667 101.5 39s40.5 57.333 40.5 96v14z" />
    <glyph glyph-name="product" unicode="&#x220f;" 
d="M65 700h490v-700h-132v574h-226v-574h-132v700z" />
    <glyph glyph-name="summation" unicode="&#x2211;" 
d="M64 700h492v-124h-292v-18l152 -158v-100l-152 -158v-18h292v-124h-492v120l214 221v18l-214 221v120z" />
    <glyph glyph-name="minus" unicode="&#x2212;" 
d="M519 407v-114h-418v114h418z" />
    <glyph glyph-name="uni2215" unicode="&#x2215;" horiz-adv-x="537" 
d="M489 806l-316 -963h-125l316 963h125z" />
    <glyph glyph-name="radical" unicode="&#x221a;" 
d="M28 412h210l63 -298h18l147 742h126l-175 -856h-216l-63 298h-110v114z" />
    <glyph glyph-name="infinity" unicode="&#x221e;" 
d="M60 431.5c14.667 25 33.999 44.833 57.999 59.5s50 22 78 22c48 0 83 -16 105 -48h18c22 32 57 48 105 48c28.667 0 55 -7.33301 79 -22s43.167 -34.5 57.5 -59.5s21.5 -52.167 21.5 -81.5c0 -30 -7.16699 -57.5 -21.5 -82.5s-33.666 -44.667 -57.999 -59
s-50.5 -21.5 -78.5 -21.5c-48 0 -83 16 -105 48h-18c-22 -32 -57 -48 -105 -48c-28.667 0 -55 7.5 -79 22.5s-43.167 35 -57.5 60s-21.5 51.833 -21.5 80.5c0 29.333 7.33301 56.5 22 81.5zM239.999 389c-10.667 10.667 -23.667 16 -39 16s-28.333 -5.33301 -39 -16
s-16 -23.667 -16 -39s5.33301 -28.333 16 -39s23.667 -16 39 -16s28.333 5.33301 39 16s16 23.667 16 39s-5.33301 28.333 -16 39zM379.999 311c10.667 -10.667 23.667 -16 39 -16s28.333 5.33301 39 16s16 23.667 16 39s-5.33301 28.333 -16 39s-23.667 16 -39 16
s-28.333 -5.33301 -39 -16s-16 -23.667 -16 -39s5.33301 -28.333 16 -39z" />
    <glyph glyph-name="integral" unicode="&#x222b;" 
d="M344 -170.5c-19.333 -19.667 -43.333 -29.5 -72 -29.5h-139v120h87c18 0 27 10 27 30v648c0 28.667 9.66699 52.834 29 72.501s43.333 29.5 72 29.5h139v-120h-87c-18 0 -27 -10 -27 -30v-648c0 -28.667 -9.66699 -52.834 -29 -72.501z" />
    <glyph glyph-name="approxequal" unicode="&#x2248;" 
d="M361.5 482c5 -4.66699 12.167 -7 21.5 -7c11.333 0 24.333 6.33301 39 19l70 51l70 -93l-105 -80c-28 -23.333 -57.667 -35 -89 -35c-41.333 0 -70 13.667 -86 41c-8.66699 14 -15.5 23.333 -20.5 28s-12.167 7 -21.5 7c-11.333 0 -24.333 -6.33301 -39 -19l-70 -51
l-70 93l105 80c28 23.333 57.667 35 89 35c41.333 0 70 -13.667 86 -41c8.66699 -14 15.5 -23.333 20.5 -28zM361.5 256c5 -4.66699 12.167 -7 21.5 -7c11.333 0 24.333 6.33301 39 19l70 51l70 -93l-105 -80c-28 -23.333 -57.667 -35 -89 -35c-41.333 0 -70 13.667 -86 41
c-8.66699 14 -15.5 23.333 -20.5 28s-12.167 7 -21.5 7c-11.333 0 -24.333 -6.33301 -39 -19l-73 -53l-70 93l108 82c28 23.333 57.667 35 89 35c41.333 0 70 -13.667 86 -41c8.66699 -14 15.5 -23.333 20.5 -28z" />
    <glyph glyph-name="notequal" unicode="&#x2260;" 
d="M101 494h194l33 99l113 -35l-21 -64h99v-114h-137l-20 -60h157v-114h-195l-32 -99l-113 35l21 64h-99v114h136l20 60h-156v114z" />
    <glyph glyph-name="lessequal" unicode="&#x2264;" 
d="M100 428l420 142v-120l-298 -91v-18l298 -91v-120l-420 142v156zM101 108h418v-108h-418v108z" />
    <glyph glyph-name="greaterequal" unicode="&#x2265;" 
d="M100 130v120l298 91v18l-298 91v120l420 -142v-156zM101 0v108h418v-108h-418z" />
    <glyph glyph-name="lozenge" unicode="&#x25ca;" 
d="M209 700h202l166 -350l-166 -350h-202l-166 350zM301 98h18l117 252l-117 252h-18l-117 -252z" />
    <glyph glyph-name="uniE132" unicode="&#xe132;" horiz-adv-x="480" 
d="M182 0h-126v496h126v-496zM239 700l-88 -130h-108l54 130h142zM394 -169.5c-20 -20.333 -46.667 -30.5 -80 -30.5h-130v102h86c18.667 0 28 10 28 30v564h126v-584c0 -34 -10 -61.167 -30 -81.5zM481 700l-88 -130h-108l54 130h142z" />
    <glyph glyph-name="uniE133" unicode="&#xe133;" horiz-adv-x="566" 
d="M239 880l-88 -120h-108l54 120h142zM567 880l-88 -120h-108l54 120h142zM185 700v-358h-132v358h132zM513 210c0 -72 -19.668 -127.333 -59.001 -166s-94 -58 -164 -58c-73.333 0 -131.166 19.833 -173.499 59.5s-63.5 94.5 -63.5 164.5v36h132v-36
c0 -31.333 8.83301 -55.833 26.5 -73.5s42.5 -26.5 74.5 -26.5c30.667 0 54.167 8.66699 70.5 26s24.5 42 24.5 74v490h132v-490z" />
    <glyph glyph-name="NULL" horiz-adv-x="600" 
 />
    <glyph glyph-name="i.loclTRK" horiz-adv-x="238" 
d="M182 0h-126v496h126v-496zM55.5 702c17 16 38.167 24 63.5 24s46.5 -8 63.5 -24s25.5 -36.667 25.5 -62s-8.5 -46 -25.5 -62s-38.167 -24 -63.5 -24s-46.5 8 -63.5 24s-25.5 36.667 -25.5 62s8.5 46 25.5 62z" />
    <glyph glyph-name="zero.lf" horiz-adv-x="596" 
d="M63.5 583.5c22.333 42.333 53.6699 74.666 94.0029 96.999s87.166 33.5 140.499 33.5s100.166 -11.167 140.499 -33.5s71.666 -54.666 93.999 -96.999s33.5 -92.833 33.5 -151.5v-164c0 -90 -24.167 -159.5 -72.5 -208.5s-113.5 -73.5 -195.5 -73.5
s-147.167 24.5 -195.5 73.5s-72.5 118.5 -72.5 208.5v164c0 58.667 11.167 109.167 33.5 151.5zM196.504 145c23 -27.333 56.833 -41 101.5 -41c45.333 0 79.333 14 102 42s34 66.667 34 116v176c0 48.667 -12.333 87.167 -37 115.5s-57.667 42.5 -99 42.5
c-42 0 -75.167 -14.5 -99.5 -43.5s-36.5 -67.167 -36.5 -114.5v-176c0 -50.667 11.5 -89.667 34.5 -117z" />
    <glyph glyph-name="one.lf" horiz-adv-x="438" 
d="M380 700v-700h-132v560h-12l-98 -176h-138l180 316h200z" />
    <glyph glyph-name="two.lf" horiz-adv-x="568" 
d="M63.5 601c23.667 37.333 55.333 65.498 95 84.498s83.834 28.5 132.501 28.5c46 0 88.167 -9.5 126.5 -28.5s69 -46 92 -81s34.5 -75.833 34.5 -122.5c0 -66 -19 -117.5 -57 -154.5s-95.667 -65.167 -173 -84.5c-54.667 -14 -93.334 -28.333 -116.001 -43
s-34 -37.334 -34 -68.001v-12h376v-120h-508v120c0 60 19.167 107.5 57.5 142.5s92.5 62.167 162.5 81.5c54.667 14.667 95 32.334 121 53.001s39 50.334 39 89.001c0 34 -10.833 60.833 -32.5 80.5s-50.5 29.5 -86.5 29.5c-38.667 0 -70.5 -11.167 -95.5 -33.5
s-37.5 -55.166 -37.5 -98.499v-22h-132v24c0 52.667 11.833 97.667 35.5 135z" />
    <glyph glyph-name="three.lf" horiz-adv-x="572" 
d="M534 584l-194 -158.002v-12h26c33.333 0 64 -7.5 92 -22.5s50.333 -37.167 67 -66.5s25 -64.333 25 -105c0 -46.667 -11.167 -87.667 -33.5 -123s-53.333 -62.666 -93 -81.999s-85.5 -29 -137.5 -29c-54.667 0 -102.167 10.167 -142.5 30.5s-71.333 48.333 -93 84
s-32.5 76.834 -32.5 123.501v28h132v-24c0 -35.333 12 -64.833 36 -88.5s57.333 -35.5 100 -35.5c40.667 0 72.834 10.833 96.501 32.5s35.5 49.5 35.5 83.5c0 32.667 -10.333 57.5 -31 74.5s-48.334 25.5 -83.001 25.5h-122v118l173 142h-317v120h496v-116z" />
    <glyph glyph-name="four.lf" horiz-adv-x="606" 
d="M486 700v-442h114v-120h-114v-138h-132v138h-348v116l274 446h206zM144 258h210v328h-12z" />
    <glyph glyph-name="five.lf" horiz-adv-x="568" 
d="M522 580l-344.004 -0.000976562v-182h12c14.667 20.667 33.167 38.167 55.5 52.5s54.166 21.5 95.499 21.5c36.667 0 70.834 -9 102.501 -27s57 -43.833 76 -77.5s28.5 -73.167 28.5 -118.5c0 -52 -10.833 -97.833 -32.5 -137.5s-52.167 -70.5 -91.5 -92.5
s-84.666 -33 -135.999 -33c-52 0 -98.167 10 -138.5 30s-71.666 48.5 -93.999 85.5s-33.5 79.833 -33.5 128.5v18h132v-10c0 -40.667 11.333 -73.167 34 -97.5s54.667 -36.5 96 -36.5c40.667 0 72.834 12.5 96.501 37.5s35.5 58.833 35.5 101.5
c0 36 -10.167 64.5 -30.5 85.5s-46.5 31.5 -78.5 31.5c-23.333 0 -42.166 -4.66699 -56.499 -14s-24.833 -20.666 -31.5 -33.999h-173v388h476v-120z" />
    <glyph glyph-name="six.lf" horiz-adv-x="566" 
d="M512.5 103c-22.333 -36.667 -53.666 -65.166 -93.999 -85.499s-85.833 -30.5 -136.5 -30.5c-48 0 -91.167 9.83301 -129.5 29.5s-68.333 47.167 -90 82.5s-32.5 75.333 -32.5 120v245c0 53.333 11.333 98.833 34 136.5s53.667 66 93 85s84.333 28.5 135 28.5
c48.667 0 91.667 -8.83301 129 -26.5s66.5 -43.167 87.5 -76.5s31.5 -73 31.5 -119h-134c0 31.333 -9.83301 56.5 -29.5 75.5s-47.834 28.5 -84.501 28.5c-41.333 0 -73.333 -10.667 -96 -32s-34 -52 -34 -92v-80h12c31.333 44 81.333 66 150 66
c42 0 79.833 -9.83301 113.5 -29.5s60.167 -46.834 79.5 -81.501s29 -73.667 29 -117c0 -48 -11.167 -90.333 -33.5 -127zM196.5 321.001c-23 -22.667 -34.5 -53 -34.5 -91c0 -38.667 11.667 -69.167 35 -91.5s53.666 -33.5 90.999 -33.5c36.667 0 66.834 11.5 90.501 34.5
s35.5 53.167 35.5 90.5c0 38 -11.5 68.333 -34.5 91s-53.5 34 -91.5 34s-68.5 -11.333 -91.5 -34z" />
    <glyph glyph-name="seven.lf" horiz-adv-x="528" 
d="M524 700v-116l-272 -584h-146l268 580h-370v120h520z" />
    <glyph glyph-name="eight.lf" horiz-adv-x="568" 
d="M64 621.5c21.333 29 51.002 51.667 89.002 68s81.667 24.5 131 24.5s93 -8.16699 131 -24.5s67.667 -39 89 -68s32 -61.833 32 -98.5c0 -72.667 -37.333 -124.667 -112 -156v-12c32.667 -9.33301 61.167 -28.5 85.5 -57.5s36.5 -65.167 36.5 -108.5
c0 -40 -11.167 -75.333 -33.5 -106s-53.333 -54.5 -93 -71.5s-84.834 -25.5 -135.501 -25.5s-95.834 8.5 -135.501 25.5s-70.667 40.833 -93 71.5s-33.5 66 -33.5 106c0 43.333 12.167 79.5 36.5 108.5s52.833 48.167 85.5 57.5v12c-74.667 31.333 -112 83.333 -112 156
c0 36.667 10.667 69.5 32 98.5zM197.002 442c22 -16 51 -24 87 -24s65 8 87 24s33 37.667 33 65s-11 49 -33 65s-51 24 -87 24s-65 -8 -87 -24s-33 -37.667 -33 -65s11 -49 33 -65zM188.002 131c22.667 -18 54.667 -27 96 -27s73.333 9 96 27s34 41.667 34 71
s-11.333 53 -34 71s-54.667 27 -96 27s-73.333 -9 -96 -27s-34 -41.667 -34 -71s11.333 -53 34 -71z" />
    <glyph glyph-name="nine.lf" horiz-adv-x="568" 
d="M55.5 598c22.333 36.667 53.666 65.166 93.999 85.499s85.833 30.5 136.5 30.5c48 0 91.167 -9.83301 129.5 -29.5s68.333 -47.167 90 -82.5s32.5 -75.333 32.5 -120v-245c0 -53.333 -11.333 -98.833 -34 -136.5s-53.667 -66 -93 -85s-84.333 -28.5 -135 -28.5
c-48.667 0 -91.667 8.83301 -129 26.5s-66.5 43.167 -87.5 76.5s-31.5 73 -31.5 119h134c0 -30.667 9.83301 -55.667 29.5 -75s47.834 -29 84.501 -29c41.333 0 73.333 10.667 96 32s34 52 34 92v80h-12c-31.333 -44 -81.333 -66 -150 -66
c-42 0 -79.833 9.83301 -113.5 29.5s-60.167 46.834 -79.5 81.501s-29 73.667 -29 117c0 48 11.167 90.333 33.5 127zM371.5 379.999c23 22.667 34.5 53 34.5 91c0 38.667 -11.667 69.167 -35 91.5s-53.666 33.5 -90.999 33.5c-36.667 0 -66.834 -11.5 -90.501 -34.5
s-35.5 -53.167 -35.5 -90.5c0 -38 11.5 -68.333 34.5 -91s53.5 -34 91.5 -34s68.5 11.333 91.5 34z" />
    <glyph glyph-name="gravecomb.case" horiz-adv-x="0" 
d="M-40 760h-108l-88 120h142z" />
    <glyph glyph-name="acutecomb.case" horiz-adv-x="0" 
d="M-40 880l-88 -120h-108l54 120h142z" />
    <glyph glyph-name="uni0302.case" horiz-adv-x="0" 
d="M-206 820h-12l-43 -60h-123l94 120h156l94 -120h-123z" />
    <glyph glyph-name="tildecomb.case" horiz-adv-x="0" 
d="M-346 900.5c13.333 7 28 10.5 44 10.5c29.333 0 55.333 -12.667 78 -38c1.33301 -1.33301 4.16602 -4.5 8.49902 -9.5s8.83301 -8.66699 13.5 -11s10 -3.5 16 -3.5c8.66699 0 15.834 1.83301 21.501 5.5s11.5 9.83398 17.5 18.501l30 38l77 -61l-56 -72
c-12 -15.333 -24.5 -26.5 -37.5 -33.5s-27.833 -10.5 -44.5 -10.5c-29.333 0 -55.333 12.667 -78 38c-1.33301 1.33301 -4.16602 4.5 -8.49902 9.5s-8.83301 8.66699 -13.5 11s-10 3.5 -16 3.5c-8.66699 0 -15.834 -1.83301 -21.501 -5.5s-11.5 -9.83398 -17.5 -18.501
l-30 -38l-77 61l56 72c12 15.333 24.667 26.5 38 33.5z" />
    <glyph glyph-name="uni0304.case" horiz-adv-x="0" 
d="M-40 760h-294v102h294v-102z" />
    <glyph glyph-name="uni0306.case" horiz-adv-x="0" 
d="M-40 872c0 -37.333 -11.999 -67 -35.999 -89s-56 -33 -96 -33s-72 11 -96 33s-36 51.667 -36 89v8h90v-2c0 -12 3.5 -21.667 10.5 -29s17.5 -11 31.5 -11c13.333 0 23.666 3.66699 30.999 11s11 17 11 29v2h90v-8z" />
    <glyph glyph-name="uni0307.case" horiz-adv-x="0" 
d="M-192.5 884c17 16 38.167 24 63.5 24s46.5 -8 63.5 -24s25.5 -36.667 25.5 -62s-8.5 -46 -25.5 -62s-38.167 -24 -63.5 -24s-46.5 8 -63.5 24s-25.5 36.667 -25.5 62s8.5 46 25.5 62z" />
    <glyph glyph-name="uni0308.case" horiz-adv-x="0" 
d="M-408.5 884c17 16 38.167 24 63.5 24s46.5 -8 63.5 -24s25.5 -36.667 25.5 -62s-8.5 -46 -25.5 -62s-38.167 -24 -63.5 -24s-46.5 8 -63.5 24s-25.5 36.667 -25.5 62s8.5 46 25.5 62zM-192.5 884c17 16 38.167 24 63.5 24s46.5 -8 63.5 -24s25.5 -36.667 25.5 -62
s-8.5 -46 -25.5 -62s-38.167 -24 -63.5 -24s-46.5 8 -63.5 24s-25.5 36.667 -25.5 62s8.5 46 25.5 62z" />
    <glyph glyph-name="uni030A.case" horiz-adv-x="0" 
d="M-225 914c20.667 20 46.3311 30 76.998 30s56.334 -9.83301 77.001 -29.5s31 -44.5 31 -74.5c0 -30.667 -10.667 -55.667 -32 -75s-46.666 -29 -75.999 -29c-30 0 -55.5 10 -76.5 30s-31.5 44.667 -31.5 74s10.333 54 31 74zM-169.503 818.5
c5.66699 -5.66699 12.834 -8.5 21.501 -8.5s15.834 2.83301 21.501 8.5s8.5 12.834 8.5 21.501s-2.83301 15.834 -8.5 21.501s-12.834 8.5 -21.501 8.5s-15.834 -2.83301 -21.501 -8.5s-8.5 -12.834 -8.5 -21.501s2.83301 -15.834 8.5 -21.501z" />
    <glyph glyph-name="uni030B.case" horiz-adv-x="0" 
d="M-206 880l-88 -120h-104l54 120h138zM-40 880l-87 -120h-104l53 120h138z" />
    <glyph glyph-name="uni030C.case" horiz-adv-x="0" 
d="M-40 884l-94 -120h-156l-94 120h123l43 -60h12l43 60h123z" />
    <glyph glyph-name="zero.zero" horiz-adv-x="596" 
d="M438.5 680.5c40.333 -22.333 71.6699 -54.666 94.0029 -96.999s33.5 -92.833 33.5 -151.5v-164c0 -90 -24.167 -159.5 -72.5 -208.5s-113.5 -73.5 -195.5 -73.5s-147.167 24.5 -195.5 73.5s-72.5 118.5 -72.5 208.5v164c0 58.667 11.167 109.167 33.5 151.5
s53.666 74.666 93.999 96.999s87.166 33.5 140.499 33.5s100.166 -11.167 140.499 -33.5zM198.504 552.5c-24.333 -29 -36.5 -67.167 -36.5 -114.5v-128l265 186c-8.66699 31.333 -24.167 55.833 -46.5 73.5s-49.833 26.5 -82.5 26.5c-42 0 -75.167 -14.5 -99.5 -43.5z
M400.004 146c22.667 28 34 66.667 34 116v128l-266 -187c8 -32 23 -56.5 45 -73.5s50.333 -25.5 85 -25.5c45.333 0 79.333 14 102 42z" />
    <glyph glyph-name="zero.dnom" horiz-adv-x="360" 
d="M62.5 320c28.333 28 67.5 42 117.5 42c49.333 0 88.333 -14.167 117 -42.5s43 -66.833 43 -115.5v-59c0 -49.333 -14 -87.833 -42 -115.5s-67.333 -41.5 -118 -41.5s-90 13.833 -118 41.5s-42 66.167 -42 115.5v59c0 49.333 14.167 88 42.5 116zM135.5 90
c10.333 -12 25.166 -18 44.499 -18s34.166 6 44.499 18s15.5 28.333 15.5 49v72c0 20.667 -5.16699 37 -15.5 49s-25.166 18 -44.499 18s-34.166 -6 -44.499 -18s-15.5 -28.333 -15.5 -49v-72c0 -20.667 5.16699 -37 15.5 -49z" />
    <glyph glyph-name="one.dnom" horiz-adv-x="250" 
d="M220 350v-350h-100v246h-10l-18 -52h-88v10l65 146h151z" />
    <glyph glyph-name="two.dnom" horiz-adv-x="348" 
d="M286 329c28 -22 42 -51.334 42 -88.001c0 -35.333 -11.5 -62 -34.5 -80s-57.833 -32 -104.5 -42c-24 -4.66699 -41.667 -9.83398 -53 -15.501s-17.333 -13.5 -18 -23.5h208v-80h-308v44c0 40 10.5 71.333 31.5 94s54.167 39.334 99.5 50.001c28.667 6.66699 49 14 61 22
s18 18.667 18 32c0 12.667 -4.66699 22.5 -14 29.5s-21.333 10.5 -36 10.5c-16.667 0 -30.5 -4.66699 -41.5 -14s-16.5 -22.666 -16.5 -39.999h-98c0.666992 42.667 15.5 75.667 44.5 99s66.5 35 112.5 35c43.333 0 79 -11 107 -33z" />
    <glyph glyph-name="three.dnom" horiz-adv-x="348" 
d="M328 282l-102 -61v-10c30 -1.33301 54.833 -10.333 74.5 -27s29.5 -40.334 29.5 -71.001c0 -36 -14.667 -65.833 -44 -89.5s-66.333 -35.5 -111 -35.5c-47.333 0 -85.5 11.833 -114.5 35.5s-44.5 56.834 -46.5 99.501h98c1.33301 -15.333 7.5 -28 18.5 -38
s24.833 -15 41.5 -15c17.333 0 31.333 4.66699 42 14s16 20.333 16 33c0 28.667 -19.333 43 -58 43h-66v62l82 48h-168v80h308v-68z" />
    <glyph glyph-name="four.dnom" horiz-adv-x="372" 
d="M310 350v-203h60v-76h-60v-71h-100v71h-200v70l138 209h162zM114 147h96v131h-9z" />
    <glyph glyph-name="five.dnom" horiz-adv-x="352" 
d="M324 270l-196 -0.00292969v-61h10c11.333 7.33301 22.5 13 33.5 17s26.5 6 46.5 6c33.333 0 61.333 -10.167 84 -30.5s34 -47.166 34 -80.499v-7c0 -23.333 -6.5 -44.666 -19.5 -63.999s-31.5 -34.5 -55.5 -45.5s-51.667 -16.5 -83 -16.5c-43.333 0 -79 11 -107 33
s-45.667 52.333 -53 91h98c4 -13.333 11.167 -24 21.5 -32s23.833 -12 40.5 -12c17.333 0 31.333 4.33301 42 13s16 20 16 34s-4.5 24.833 -13.5 32.5s-20.167 11.5 -33.5 11.5c-10.667 0 -19.167 -1.66699 -25.5 -5s-12.5 -7.66602 -18.5 -12.999h-115v209h294v-80z" />
    <glyph glyph-name="six.dnom" horiz-adv-x="354" 
d="M65.5 324c30.333 25.333 68.5029 38 114.503 38c42 0 76.667 -10.333 104 -31s42.666 -47.667 45.999 -81h-98c-5.33301 21.333 -22.333 32 -51 32c-18.667 0 -33.5 -5 -44.5 -15s-16.5 -23 -16.5 -39v-29h10c20.667 16.667 45.667 25 75 25
c37.333 0 68.833 -9.5 94.5 -28.5s38.5 -46.167 38.5 -81.5c0 -38 -14.833 -68.5 -44.5 -91.5s-67.834 -34.5 -114.501 -34.5s-84.834 12 -114.501 36s-44.5 55 -44.5 93v109c0 40 15.167 72.667 45.5 98zM136.003 79c10.667 -8.66699 25 -13 43 -13s32.333 4.33301 43 13
s16 20 16 34c0 13.333 -5.33301 24.166 -16 32.499s-25 12.5 -43 12.5s-32.333 -4.16699 -43 -12.5s-16 -19.166 -16 -32.499c0 -14 5.33301 -25.333 16 -34z" />
    <glyph glyph-name="seven.dnom" horiz-adv-x="314" 
d="M312 350v-76l-139 -274h-108l139 270h-202v80h310z" />
    <glyph glyph-name="eight.dnom" horiz-adv-x="352" 
d="M65 334.5c28.667 18.333 65.6689 27.499 111.002 27.499s82.333 -9.16699 111 -27.5s43 -41.833 43 -70.5v-3c0 -20.667 -5.83301 -36.834 -17.5 -48.501s-24.834 -20.167 -39.501 -25.5v-10c14.667 -3.33301 28.834 -12.166 42.501 -26.499s20.5 -33.5 20.5 -57.5v-2
c0 -30 -14.5 -54.667 -43.5 -74s-67.833 -29 -116.5 -29s-87.5 9.66699 -116.5 29s-43.5 44 -43.5 74v2c0 25.333 6.66699 44.833 20 58.5s27.666 22.167 42.999 25.5v10c-14.667 5.33301 -27.834 13.833 -39.501 25.5s-17.5 27.834 -17.5 48.501v3
c0 28.667 14.333 52.167 43 70.5zM136.502 227.499c9.66699 -6.33301 22.834 -9.5 39.501 -9.5s29.834 3.16699 39.501 9.5s14.5 14.5 14.5 24.5s-4.83301 17.833 -14.5 23.5s-22.834 8.5 -39.501 8.5s-29.834 -2.83301 -39.501 -8.5s-14.5 -13.5 -14.5 -23.5
s4.83301 -18.167 14.5 -24.5zM132.002 75.999c10.667 -6.66699 25.334 -10 44.001 -10s33.334 3.33301 44.001 10s16 16 16 28s-5.33301 21.333 -16 28s-25.334 10 -44.001 10s-33.334 -3.33301 -44.001 -10s-16 -16 -16 -28s5.33301 -21.333 16 -28z" />
    <glyph glyph-name="nine.dnom" horiz-adv-x="354" 
d="M289.5 26c-29.667 -25.333 -67.1689 -38 -112.502 -38c-40 0 -74.167 10 -102.5 30s-46.5 46 -54.5 78h104c6.66699 -18.667 24.667 -28 54 -28c17.333 0 31 5 41 15s15 23 15 39v29h-10c-20.667 -16.667 -45.667 -25 -75 -25c-37.333 0 -68.833 9.5 -94.5 28.5
s-38.5 46.167 -38.5 81.5c0 38 14.833 68.5 44.5 91.5s67.834 34.5 114.501 34.5s84.834 -12 114.501 -36s44.5 -55 44.5 -93v-109c0 -40 -14.833 -72.667 -44.5 -98zM217.998 271c-10.667 8.66699 -25 13 -43 13s-32.333 -4.33301 -43 -13s-16 -20 -16 -34
c0 -13.333 5.33301 -24.166 16 -32.499s25 -12.5 43 -12.5s32.333 4.16699 43 12.5s16 19.166 16 32.499c0 14 -5.33301 25.333 -16 34z" />
    <glyph glyph-name="zero.numr" horiz-adv-x="360" 
d="M62.5 670c28.333 28 67.5 42 117.5 42c49.333 0 88.333 -14.167 117 -42.5s43 -66.833 43 -115.5v-59c0 -49.333 -14 -87.833 -42 -115.5s-67.333 -41.5 -118 -41.5s-90 13.833 -118 41.5s-42 66.167 -42 115.5v59c0 49.333 14.167 88 42.5 116zM135.5 440
c10.333 -12 25.166 -18 44.499 -18s34.166 6 44.499 18s15.5 28.333 15.5 49v72c0 20.667 -5.16699 37 -15.5 49s-25.166 18 -44.499 18s-34.166 -6 -44.499 -18s-15.5 -28.333 -15.5 -49v-72c0 -20.667 5.16699 -37 15.5 -49z" />
    <glyph glyph-name="one.numr" horiz-adv-x="250" 
d="M220 700v-350h-100v246h-10l-18 -52h-88v10l65 146h151z" />
    <glyph glyph-name="two.numr" horiz-adv-x="348" 
d="M286 679c28 -22 42 -51.334 42 -88.001c0 -35.333 -11.5 -62 -34.5 -80s-57.833 -32 -104.5 -42c-24 -4.66699 -41.667 -9.83398 -53 -15.501s-17.333 -13.5 -18 -23.5h208v-80h-308v44c0 40 10.5 71.333 31.5 94s54.167 39.334 99.5 50.001c28.667 6.66699 49 14 61 22
s18 18.667 18 32c0 12.667 -4.66699 22.5 -14 29.5s-21.333 10.5 -36 10.5c-16.667 0 -30.5 -4.66699 -41.5 -14s-16.5 -22.666 -16.5 -39.999h-98c0.666992 42.667 15.5 75.667 44.5 99s66.5 35 112.5 35c43.333 0 79 -11 107 -33z" />
    <glyph glyph-name="three.numr" horiz-adv-x="348" 
d="M328 632l-102 -61v-10c30 -1.33301 54.833 -10.333 74.5 -27s29.5 -40.334 29.5 -71.001c0 -36 -14.667 -65.833 -44 -89.5s-66.333 -35.5 -111 -35.5c-47.333 0 -85.5 11.833 -114.5 35.5s-44.5 56.834 -46.5 99.501h98c1.33301 -15.333 7.5 -28 18.5 -38
s24.833 -15 41.5 -15c17.333 0 31.333 4.66699 42 14s16 20.333 16 33c0 28.667 -19.333 43 -58 43h-66v62l82 48h-168v80h308v-68z" />
    <glyph glyph-name="four.numr" horiz-adv-x="372" 
d="M310 700v-203h60v-76h-60v-71h-100v71h-200v70l138 209h162zM114 497h96v131h-9z" />
    <glyph glyph-name="five.numr" horiz-adv-x="352" 
d="M324 620l-196 -0.00292969v-61h10c11.333 7.33301 22.5 13 33.5 17s26.5 6 46.5 6c33.333 0 61.333 -10.167 84 -30.5s34 -47.166 34 -80.499v-7c0 -23.333 -6.5 -44.666 -19.5 -63.999s-31.5 -34.5 -55.5 -45.5s-51.667 -16.5 -83 -16.5c-43.333 0 -79 11 -107 33
s-45.667 52.333 -53 91h98c4 -13.333 11.167 -24 21.5 -32s23.833 -12 40.5 -12c17.333 0 31.333 4.33301 42 13s16 20 16 34s-4.5 24.833 -13.5 32.5s-20.167 11.5 -33.5 11.5c-10.667 0 -19.167 -1.66699 -25.5 -5s-12.5 -7.66602 -18.5 -12.999h-115v209h294v-80z" />
    <glyph glyph-name="six.numr" horiz-adv-x="354" 
d="M65.5 674c30.333 25.333 68.5029 38 114.503 38c42 0 76.667 -10.333 104 -31s42.666 -47.667 45.999 -81h-98c-5.33301 21.333 -22.333 32 -51 32c-18.667 0 -33.5 -5 -44.5 -15s-16.5 -23 -16.5 -39v-29h10c20.667 16.667 45.667 25 75 25
c37.333 0 68.833 -9.5 94.5 -28.5s38.5 -46.167 38.5 -81.5c0 -38 -14.833 -68.5 -44.5 -91.5s-67.834 -34.5 -114.501 -34.5s-84.834 12 -114.501 36s-44.5 55 -44.5 93v109c0 40 15.167 72.667 45.5 98zM136.003 429c10.667 -8.66699 25 -13 43 -13s32.333 4.33301 43 13
s16 20 16 34c0 13.333 -5.33301 24.166 -16 32.499s-25 12.5 -43 12.5s-32.333 -4.16699 -43 -12.5s-16 -19.166 -16 -32.499c0 -14 5.33301 -25.333 16 -34z" />
    <glyph glyph-name="seven.numr" horiz-adv-x="314" 
d="M312 700v-76l-139 -274h-108l139 270h-202v80h310z" />
    <glyph glyph-name="eight.numr" horiz-adv-x="352" 
d="M65 684.5c28.667 18.333 65.6689 27.499 111.002 27.499s82.333 -9.16699 111 -27.5s43 -41.833 43 -70.5v-3c0 -20.667 -5.83301 -36.834 -17.5 -48.501s-24.834 -20.167 -39.501 -25.5v-10c14.667 -3.33301 28.834 -12.166 42.501 -26.499s20.5 -33.5 20.5 -57.5v-2
c0 -30 -14.5 -54.667 -43.5 -74s-67.833 -29 -116.5 -29s-87.5 9.66699 -116.5 29s-43.5 44 -43.5 74v2c0 25.333 6.66699 44.833 20 58.5s27.666 22.167 42.999 25.5v10c-14.667 5.33301 -27.834 13.833 -39.501 25.5s-17.5 27.834 -17.5 48.501v3
c0 28.667 14.333 52.167 43 70.5zM136.502 577.499c9.66699 -6.33301 22.834 -9.5 39.501 -9.5s29.834 3.16699 39.501 9.5s14.5 14.5 14.5 24.5s-4.83301 17.833 -14.5 23.5s-22.834 8.5 -39.501 8.5s-29.834 -2.83301 -39.501 -8.5s-14.5 -13.5 -14.5 -23.5
s4.83301 -18.167 14.5 -24.5zM132.002 425.999c10.667 -6.66699 25.334 -10 44.001 -10s33.334 3.33301 44.001 10s16 16 16 28s-5.33301 21.333 -16 28s-25.334 10 -44.001 10s-33.334 -3.33301 -44.001 -10s-16 -16 -16 -28s5.33301 -21.333 16 -28z" />
    <glyph glyph-name="nine.numr" horiz-adv-x="380" 
d="M304.5 376c-29.667 -25.333 -67.1689 -38 -112.502 -38c-40 0 -74.167 10 -102.5 30s-46.5 46 -54.5 78h104c6.66699 -18.667 24.667 -28 54 -28c17.333 0 31 5 41 15s15 23 15 39v29h-10c-20.667 -16.667 -45.667 -25 -75 -25c-37.333 0 -68.833 9.5 -94.5 28.5
s-38.5 46.167 -38.5 81.5c0 38 14.833 68.5 44.5 91.5s67.834 34.5 114.501 34.5s84.834 -12 114.501 -36s44.5 -55 44.5 -93v-109c0 -40 -14.833 -72.667 -44.5 -98zM232.998 621c-10.667 8.66699 -25 13 -43 13s-32.333 -4.33301 -43 -13s-16 -20 -16 -34
c0 -13.333 5.33301 -24.166 16 -32.499s25 -12.5 43 -12.5s32.333 4.16699 43 12.5s16 19.166 16 32.499c0 14 -5.33301 25.333 -16 34z" />
    <glyph glyph-name="zero.subs" horiz-adv-x="360" 
d="M62.5 120c28.333 28 67.5 42 117.5 42c49.333 0 88.333 -14.167 117 -42.5s43 -66.833 43 -115.5v-59c0 -49.333 -14 -87.833 -42 -115.5s-67.333 -41.5 -118 -41.5s-90 13.833 -118 41.5s-42 66.167 -42 115.5v59c0 49.333 14.167 88 42.5 116zM135.5 -110
c10.333 -12 25.166 -18 44.499 -18s34.166 6 44.499 18s15.5 28.333 15.5 49v72c0 20.667 -5.16699 37 -15.5 49s-25.166 18 -44.499 18s-34.166 -6 -44.499 -18s-15.5 -28.333 -15.5 -49v-72c0 -20.667 5.16699 -37 15.5 -49z" />
    <glyph glyph-name="one.subs" horiz-adv-x="250" 
d="M220 150v-350h-100v246h-10l-18 -52h-88v10l65 146h151z" />
    </font>
</defs>
</svg>
